<svg width="40" height="40" viewBox="0 0 40 40" fill="none" xmlns="http://www.w3.org/2000/svg">
<circle cx="20" cy="20" r="20" fill="black"/>
<g clip-path="url(#clip0)">
<path d="M20.0049 14.6094C16.8817 14.6094 14.3625 17.0141 14.3625 19.9953C14.3625 22.9766 16.8817 25.3813 20.0049 25.3813C23.1281 25.3813 25.6473 22.9766 25.6473 19.9953C25.6473 17.0141 23.1281 14.6094 20.0049 14.6094ZM20.0049 23.4969C17.9866 23.4969 16.3366 21.9266 16.3366 19.9953C16.3366 18.0641 17.9817 16.4938 20.0049 16.4938C22.0281 16.4938 23.6732 18.0641 23.6732 19.9953C23.6732 21.9266 22.0232 23.4969 20.0049 23.4969ZM27.1942 14.3891C27.1942 15.0875 26.6049 15.6453 25.8781 15.6453C25.1464 15.6453 24.562 15.0828 24.562 14.3891C24.562 13.6953 25.1513 13.1328 25.8781 13.1328C26.6049 13.1328 27.1942 13.6953 27.1942 14.3891ZM30.9312 15.6641C30.8477 13.9813 30.4451 12.4906 29.1535 11.2625C27.8669 10.0344 26.3053 9.65002 24.5424 9.56565C22.7254 9.46721 17.2794 9.46721 15.4625 9.56565C13.7045 9.64534 12.1428 10.0297 10.8513 11.2578C9.55981 12.486 9.16204 13.9766 9.07365 15.6594C8.97053 17.3938 8.97053 22.5922 9.07365 24.3266C9.15713 26.0094 9.55981 27.5 10.8513 28.7281C12.1428 29.9563 13.6995 30.3406 15.4625 30.425C17.2794 30.5235 22.7254 30.5235 24.5424 30.425C26.3053 30.3453 27.8669 29.961 29.1535 28.7281C30.4402 27.5 30.8428 26.0094 30.9312 24.3266C31.0343 22.5922 31.0343 17.3985 30.9312 15.6641ZM28.5839 26.1875C28.2009 27.1063 27.4594 27.8141 26.4919 28.1844C25.0433 28.7328 21.6058 28.6063 20.0049 28.6063C18.404 28.6063 14.9616 28.7281 13.5178 28.1844C12.5553 27.8188 11.8138 27.111 11.4259 26.1875C10.8513 24.8047 10.9839 21.5235 10.9839 19.9953C10.9839 18.4672 10.8562 15.1813 11.4259 13.8031C11.8089 12.8844 12.5504 12.1766 13.5178 11.8063C14.9665 11.2578 18.404 11.3844 20.0049 11.3844C21.6058 11.3844 25.0482 11.2625 26.4919 11.8063C27.4544 12.1719 28.196 12.8797 28.5839 13.8031C29.1585 15.186 29.0259 18.4672 29.0259 19.9953C29.0259 21.5235 29.1585 24.8094 28.5839 26.1875Z" fill="white"/>
</g>
<defs>
<clipPath id="clip0">
<rect width="22" height="24" fill="white" transform="translate(9 8)"/>
</clipPath>
</defs>
</svg>
