<svg width="449" height="296" viewBox="0 0 449 296" fill="none" xmlns="http://www.w3.org/2000/svg">
<path d="M405.653 126.665C421.008 97.0405 436.913 53.1534 392.378 18.1414C347.839 -16.8737 303.856 9.47954 283.165 28.5338C271.227 39.5272 260.359 52.2811 250.842 63.4493C245.294 69.9604 240.205 75.9326 235.63 80.7029C204.803 112.851 173.816 121.405 130.601 133.334C113.755 137.984 95.0518 143.148 73.7754 150.421C15.8767 170.216 7.54608 188.845 14.2507 206.157C16.3982 205.257 18.6487 204.367 20.9988 203.491C60.099 188.907 126.738 177.907 204.065 177.907C302.803 177.907 405.492 213.586 443.913 242.166C438.055 230.389 422.857 217.763 408.946 206.205C397.619 196.795 387.146 188.094 383.259 181.136C375.478 167.208 380.664 160.91 389.448 150.241C394.28 144.371 400.202 137.179 405.653 126.665Z" fill="#7EE8FF"/>
<path d="M405.653 126.665C421.008 97.0405 436.913 53.1534 392.378 18.1414C347.839 -16.8737 303.856 9.47954 283.165 28.5338C271.227 39.5272 260.359 52.2811 250.842 63.4493C245.294 69.9604 240.205 75.9326 235.63 80.7029C204.803 112.851 173.816 121.405 130.601 133.334C113.755 137.984 95.0518 143.148 73.7754 150.421C15.8767 170.216 7.54608 188.845 14.2507 206.157C16.3982 205.257 18.6487 204.367 20.9988 203.491C60.099 188.907 126.738 177.907 204.065 177.907C302.803 177.907 405.492 213.586 443.913 242.166C438.055 230.389 422.857 217.763 408.946 206.205C397.619 196.795 387.146 188.094 383.259 181.136C375.478 167.208 380.664 160.91 389.448 150.241C394.28 144.371 400.202 137.179 405.653 126.665Z" fill="url(#paint0_linear)"/>
<path d="M406.224 287.815L405.7 287.829L403.397 287.878C326.598 289.361 171.24 279.554 72.6842 266.829C72.6826 266.828 72.6811 266.828 72.6795 266.827L72.667 266.827C72.6727 266.827 72.6785 266.828 72.6842 266.829C112.242 282.789 168.383 293.559 226 293.724C273.668 293.86 306.41 294.627 329.836 295.177C379.022 296.329 387.133 296.52 406.081 287.881L406.224 287.815Z" fill="#7EE8FF"/>
<path d="M406.224 287.815L405.7 287.829L403.397 287.878C326.598 289.361 171.24 279.554 72.6842 266.829C72.6826 266.828 72.6811 266.828 72.6795 266.827L72.667 266.827C72.6727 266.827 72.6785 266.828 72.6842 266.829C112.242 282.789 168.383 293.559 226 293.724C273.668 293.86 306.41 294.627 329.836 295.177C379.022 296.329 387.133 296.52 406.081 287.881L406.224 287.815Z" fill="url(#paint1_linear)"/>
<path fill-rule="evenodd" clip-rule="evenodd" d="M208.643 191.28L210.527 191.402L207.738 236.13L206.394 237.821L204.328 236.403L208.643 191.28Z" fill="white"/>
<circle cx="350.705" cy="82.036" r="52.1699" fill="white"/>
<path fill-rule="evenodd" clip-rule="evenodd" d="M214.135 132.874C214.135 132.874 214.02 129.88 217.587 129.704C221.151 129.527 250.268 132.874 250.268 132.874C250.268 132.874 256.533 133.776 255.498 140.816C254.461 147.857 250.679 164.081 250.679 164.081C250.679 164.081 251.123 166.857 246.574 166.12C242.024 165.383 228.517 161.871 214.135 164.101C214.135 164.101 211.76 164.379 211.829 174.479L210.527 174.239C210.527 174.239 212.428 135.707 214.135 132.874Z" fill="white"/>
<path fill-rule="evenodd" clip-rule="evenodd" d="M235.505 109.051C235.787 108.751 235.505 109.051 235.505 109.051C234.363 110.276 233.392 111.366 232.766 112.152C229.778 115.91 225.775 119.471 224.158 122.194C224.158 122.194 217.002 125.455 214.135 122.065C214.135 122.065 220.71 113.443 225.924 109.592C225.924 109.592 230.989 107.098 235.505 109.051ZM241.061 103.302L235.77 101.765C235.77 101.765 241.136 98.4216 244.11 97.1553L246.573 97.8229C246.573 97.8229 244.027 100.311 241.061 103.302C241.061 103.302 240.987 103.382 241.061 103.302Z" fill="white"/>
<path fill-rule="evenodd" clip-rule="evenodd" d="M153.207 246.719C153.207 246.719 143.899 244.655 141.684 234.012C141.684 234.012 143.38 230.941 150.032 223.832C150.032 223.832 158.441 218.433 157.056 209.875C157.056 209.875 147.883 207.497 150.95 193.559L152.906 189.986C152.906 189.986 150.741 174.512 152.575 165.35C152.575 165.35 150.879 153.664 157.947 152.825C157.947 152.825 160.921 152.389 161.249 151.225C161.249 151.225 156.896 139.166 169.641 133.321C182.384 127.477 192.299 137.544 191.899 148.273C191.899 148.273 190.796 155.617 186.299 158.903C186.299 158.903 195.958 164.945 201.335 172.887C201.335 172.887 207.346 179.122 209.989 178.071C209.989 178.071 218.047 177.895 216.949 180.711C215.854 183.525 215.082 187.559 203.282 188.171C203.282 188.171 191.875 186.709 188.901 186.626L186.809 185.895C186.809 185.895 189.383 191.355 186.583 196.561C183.783 201.764 181.747 203.565 182.048 204.575L188.249 233.576C188.249 233.576 187.803 238.473 193.284 237.615C198.766 236.754 197.312 240.1 196.22 240.903C195.127 241.709 186.095 249.433 178.514 239.582C170.932 229.727 169.818 227.702 169.818 227.702L154.658 238.315C154.658 238.315 153.48 239.46 154.338 242.125C154.338 242.125 155.977 246.07 153.207 246.719Z" fill="white"/>
<path fill-rule="evenodd" clip-rule="evenodd" d="M291.887 86.2616C289.184 25.56 351.665 28.514 351.799 28.5337C426.398 39.569 408.643 134.206 350.83 137.2C350.79 137.202 294.219 138.641 291.887 86.2616ZM294.03 86.1894C292.402 49.6274 316.498 37.6197 333.997 33.7135C334.056 33.7757 334.133 33.8423 334.223 33.9137C335.425 34.871 336.617 35.7521 338.234 36.0633C339.182 36.2457 340.1 36.5776 341.019 36.9098C341.727 37.166 342.437 37.4225 343.161 37.6107C344.12 37.8599 345.117 37.9712 346.112 38.0822C346.399 38.1142 346.685 38.1463 346.971 38.1815C347.235 38.2141 347.503 38.2158 347.771 38.2174C348.109 38.2195 348.446 38.2216 348.772 38.2856C349.204 38.3702 349.628 38.4915 350.052 38.6127C350.578 38.7629 351.103 38.9129 351.639 38.9926C352.019 39.0493 352.414 39.0298 352.807 39.0103C353.278 38.9871 353.746 38.9639 354.185 39.0715C355.338 39.3544 356.457 39.7888 357.572 40.2216L357.575 40.2229L357.576 40.223L357.576 40.2231C357.732 40.2837 357.889 40.3444 358.045 40.4046L358.295 40.5012C359.477 40.9566 360.665 41.4146 361.788 41.9912C362.867 42.5449 363.874 42.4365 364.448 41.4681C365.323 39.9955 366.241 38.6227 368.189 38.4434C368.566 38.4085 368.933 38.2479 369.299 38.0875L369.299 38.0872C369.466 38.0142 369.633 37.9413 369.8 37.8803L369.601 37.8022C369.119 37.6123 368.636 37.4226 368.156 37.2275C368.147 37.2241 368.149 37.2001 368.151 37.1738C368.153 37.1437 368.155 37.1103 368.142 37.1012C366.981 36.2526 365.055 36.9473 364.404 38.1964C364.004 38.9656 363.231 39.7287 362.442 40.0633C361.636 40.4051 360.956 39.9811 360.238 39.5327C359.941 39.3477 359.638 39.1585 359.317 39.0172C357.94 38.6059 356.698 38.1989 355.463 37.7815C355.074 37.6505 354.688 37.5104 354.302 37.3703C353.48 37.0716 352.658 36.7732 351.813 36.5638C351.389 36.4587 350.941 36.4662 350.49 36.4738C350.139 36.4797 349.786 36.4856 349.443 36.4383C348.767 36.3445 348.094 36.2196 347.422 36.0948L347.421 36.0947C346.675 35.9562 345.929 35.8177 345.178 35.7215C344.68 35.6578 344.17 35.6438 343.661 35.6298C342.835 35.607 342.012 35.5843 341.252 35.3488C340.974 35.2624 340.704 35.163 340.436 35.0641C339.733 34.8048 339.037 34.5484 338.214 34.5366C337.486 34.5261 336.636 34.0251 336.074 33.4963C336.001 33.4282 335.932 33.3703 335.864 33.3215C344.724 31.5772 351.471 31.8769 351.513 31.8834C418.962 42.3252 405.078 131.685 350.83 134.495C350.793 134.497 296.218 135.339 294.03 86.1894ZM141.863 237.463L141.92 237.629C142.27 238.655 142.868 239.597 143.484 240.566L143.484 240.567C143.724 240.945 143.967 241.327 144.199 241.721C144.348 241.903 144.483 242.081 144.613 242.254L144.614 242.255L144.614 242.256C144.85 242.568 145.07 242.859 145.329 243.111C146.973 244.714 148.769 246.118 150.904 247.012C151.048 247.073 151.232 247.037 151.415 247.002C151.599 246.966 151.783 246.93 151.925 246.993C153.842 247.84 155.744 246.753 155.668 244.639C155.641 243.913 155.424 243.196 155.205 242.475C155.053 241.972 154.9 241.467 154.811 240.956C154.719 240.427 154.812 239.748 155.086 239.296C155.802 238.109 156.938 237.387 158.136 236.683C158.701 236.351 159.182 235.88 159.665 235.407C160.041 235.039 160.418 234.669 160.838 234.363C161.502 233.88 162.208 233.455 162.915 233.03L162.915 233.03L162.915 233.03L162.915 233.03L162.916 233.03L162.916 233.03L162.916 233.03L162.916 233.029L162.917 233.029L162.917 233.029L162.917 233.029L162.917 233.029L162.917 233.029L162.918 233.029L162.918 233.028L162.918 233.028L162.918 233.028L162.919 233.028L162.919 233.028L162.919 233.028L162.919 233.028C163.437 232.716 163.955 232.405 164.457 232.07C164.802 231.839 165.127 231.582 165.451 231.325C166.214 230.719 166.975 230.114 168.01 229.855C169.319 229.529 170.686 229.943 171.466 231.163C171.8 231.685 172.196 232.166 172.593 232.648L172.594 232.648C172.895 233.014 173.196 233.38 173.471 233.764C174.136 234.694 174.763 235.657 175.348 236.639C175.583 237.032 175.788 237.449 175.992 237.865L175.992 237.866C176.347 238.588 176.701 239.308 177.208 239.9C177.901 240.705 178.697 241.42 179.494 242.135C180.035 242.622 180.577 243.109 181.088 243.624C182.525 245.075 184.378 245.456 186.252 245.616C187.214 245.696 188.188 245.507 189.139 245.322L189.139 245.322L189.139 245.322L189.139 245.322C189.736 245.206 190.324 245.092 190.894 245.048C191.647 244.989 192.247 244.692 192.837 244.4L192.837 244.4C193.386 244.128 193.925 243.86 194.57 243.795C195.174 243.734 195.732 243.223 196.29 242.711C196.539 242.482 196.788 242.254 197.042 242.065C198.641 240.876 198.694 238.669 197.094 237.547C196.931 237.433 196.689 237.424 196.449 237.415C196.2 237.406 195.954 237.397 195.799 237.271C194.568 236.264 193.25 236.531 191.903 236.824C190.712 237.08 189.263 235.762 189.28 234.55C189.287 234.057 189.155 233.559 189.025 233.068C188.992 232.941 188.958 232.814 188.927 232.688C188.852 232.378 188.756 232.07 188.661 231.762C188.49 231.21 188.32 230.66 188.264 230.098C188.216 229.605 188.096 229.129 187.976 228.654C187.818 228.03 187.661 227.406 187.664 226.74C187.666 226.341 187.511 225.946 187.356 225.547C187.241 225.253 187.126 224.958 187.071 224.657C186.992 224.223 186.961 223.781 186.929 223.339C186.896 222.88 186.863 222.42 186.778 221.97C186.662 221.363 186.51 220.762 186.357 220.162L186.357 220.162C186.184 219.482 186.012 218.802 185.893 218.113C185.805 217.603 185.805 217.079 185.804 216.553C185.804 216.212 185.804 215.87 185.78 215.531C185.765 215.332 185.765 215.116 185.764 214.899C185.762 214.285 185.76 213.653 185.452 213.305C185.073 212.879 185.089 212.435 185.106 211.982C185.119 211.605 185.133 211.222 184.92 210.839C184.511 210.104 184.487 209.15 184.464 208.203C184.455 207.849 184.446 207.496 184.417 207.156C184.397 206.92 184.426 206.655 184.453 206.395C184.501 205.951 184.547 205.521 184.35 205.268C183.627 204.348 184.043 203.434 184.351 202.758C184.369 202.719 184.387 202.68 184.403 202.643C184.907 201.524 185.505 200.448 186.104 199.373L186.104 199.372L186.104 199.372C186.745 198.219 187.386 197.066 187.91 195.862C188.397 194.741 188.552 193.462 188.705 192.206L188.705 192.203C188.736 191.952 188.766 191.702 188.799 191.455C188.858 191.006 188.842 190.546 188.825 190.087V190.087C188.806 189.575 188.788 189.064 188.875 188.571C188.937 188.222 189.416 187.921 189.824 187.667C189.885 187.628 189.944 187.591 190.001 187.555C190.042 187.529 190.135 187.61 190.247 187.708C190.376 187.822 190.532 187.958 190.662 187.974C191.031 188.022 191.435 188.018 191.836 188.014H191.837C192.617 188.006 193.388 187.999 193.878 188.371C194.756 189.037 195.677 189.002 196.556 188.968C196.92 188.954 197.276 188.941 197.619 188.977C199.543 189.182 201.502 189.061 203.461 188.94L203.461 188.94C204.231 188.893 205 188.845 205.768 188.817C206.274 188.799 206.784 188.779 207.283 188.699C209.766 188.298 212.206 187.719 214.17 186.04C214.777 185.522 215.286 184.889 215.794 184.257C216.007 183.992 216.22 183.727 216.44 183.471C217.026 182.789 217.246 182.013 217.495 181.125C217.957 179.482 216.931 177.42 215.153 177.553C214.422 177.607 213.928 177.378 213.341 177.096C212.99 176.928 212.517 176.925 212.113 176.97C211.833 177.002 211.551 177.056 211.269 177.109C210.128 177.327 208.999 177.542 208.083 176.261C207.892 175.993 207.514 175.848 207.151 175.709L207.151 175.709C207.082 175.682 207.013 175.656 206.946 175.629C206.923 175.619 206.899 175.61 206.876 175.6L206.84 175.585C206.636 175.496 206.413 175.431 206.191 175.366C205.795 175.251 205.403 175.136 205.123 174.889C203.971 173.877 202.9 172.766 201.863 171.633C201.333 171.054 200.831 170.45 200.328 169.845L200.328 169.845L200.328 169.845L200.328 169.845L200.328 169.845L200.328 169.845L200.328 169.844L200.328 169.844L200.328 169.844L200.327 169.844L200.327 169.844L200.327 169.844L200.327 169.844L200.327 169.844L200.327 169.844L200.327 169.844L200.327 169.844L200.327 169.843L200.327 169.843L200.327 169.843L200.326 169.843C199.807 169.218 199.288 168.593 198.738 167.996C197.654 166.82 196.518 165.685 195.342 164.601C194.376 163.711 193.346 162.883 192.29 162.1C191.521 161.532 190.695 161.04 189.871 160.55L189.636 160.41C188.544 159.759 188.454 158.613 188.43 157.586C188.425 157.345 188.853 157.095 189.281 156.844C189.478 156.728 189.676 156.613 189.831 156.498C189.868 156.471 189.906 156.439 189.928 156.4L190.026 156.222L190.132 156.029L190.262 155.796L190.368 155.603L190.475 155.411C191.014 154.438 191.553 153.466 192.064 152.48C192.196 152.223 192.249 151.924 192.301 151.627L192.311 151.566L192.324 151.494L192.33 151.462L192.339 151.415C192.344 151.39 192.349 151.365 192.354 151.34L192.362 151.3C192.443 150.923 192.538 150.546 192.633 150.168L192.633 150.168L192.633 150.168L192.633 150.168L192.633 150.168L192.633 150.168L192.633 150.167L192.633 150.167C192.881 149.177 193.129 148.186 193.14 147.194C193.145 146.705 193.045 146.045 192.949 145.471C192.767 144.382 192.576 143.29 192.277 142.23C192.17 141.849 191.986 141.492 191.801 141.134L191.801 141.134L191.8 141.134C191.66 140.861 191.518 140.588 191.411 140.304C191.28 139.956 191.185 139.582 191.091 139.209L191.091 139.209L191.091 139.209L191.091 139.208L191.091 139.208L191.091 139.208L191.091 139.208L191.091 139.208L191.091 139.208L191.091 139.208L191.091 139.207L191.091 139.207L191.091 139.207L191.091 139.207L191.091 139.207L191.09 139.207L191.09 139.207L191.09 139.206L191.09 139.206C190.914 138.509 190.739 137.816 190.328 137.311C189.954 136.853 189.641 136.34 189.327 135.826C188.598 134.631 187.865 133.429 186.351 132.89C185.74 132.672 185.161 132.337 184.585 132.004C183.816 131.559 183.052 131.117 182.228 130.964C180.099 130.568 177.872 130.604 175.689 130.641C173.97 130.67 172.184 130.744 170.563 131.24C169.394 131.597 168.214 132.174 167.094 132.924C166.891 133.061 166.683 133.196 166.474 133.333C165.406 134.03 164.314 134.743 163.616 135.68C163.346 136.042 163.036 136.388 162.722 136.736C161.776 137.79 160.804 138.872 160.868 140.493C159.804 141.099 159.774 142.141 159.746 143.107C159.737 143.409 159.729 143.703 159.689 143.975L159.684 144.006C159.518 145.135 159.341 146.343 159.599 147.675C159.916 149.308 160.275 150.773 161.127 152.174C161.631 153.003 162.047 153.885 160.65 154.346C160.454 154.41 160.213 154.579 160.148 154.757C159.815 155.662 159.366 156.482 158.407 156.805C157.528 157.101 157.594 157.718 157.658 158.322V158.322C157.675 158.477 157.691 158.631 157.692 158.779C157.692 158.858 158.428 159.111 158.607 158.983C159.152 158.593 159.678 158.176 160.204 157.759L160.204 157.759L160.205 157.759L160.205 157.759L160.205 157.759L160.205 157.758L160.205 157.758L160.206 157.758L160.206 157.758L160.206 157.758L160.206 157.758L160.206 157.758L160.206 157.757L160.207 157.757L160.207 157.757L160.207 157.757L160.207 157.757L160.207 157.757L160.208 157.757L160.208 157.757L160.208 157.756L160.209 157.756C160.932 157.183 161.654 156.611 162.423 156.108C162.886 155.805 163.704 155.762 164.256 155.935C164.853 156.122 165.415 156.421 165.977 156.72L165.977 156.72C166.32 156.902 166.662 157.084 167.014 157.242C167.92 157.648 168.835 158.033 169.749 158.419L169.752 158.42L169.755 158.421L169.757 158.422L169.76 158.423C170.235 158.623 170.71 158.824 171.183 159.026C171.806 159.294 171.919 159.643 171.339 160.094C171.042 160.325 170.744 160.555 170.446 160.785L170.444 160.787L170.442 160.788L170.44 160.79L170.437 160.792C169.657 161.394 168.876 161.996 168.109 162.615C165.982 164.329 164.912 166.709 164.619 169.286C164.416 171.067 164.614 173.027 165.183 174.722C165.633 176.062 166.553 177.265 167.449 178.438C167.61 178.648 167.77 178.858 167.926 179.067C169.089 180.621 170.745 181.543 172.393 182.46C172.864 182.722 173.334 182.983 173.792 183.259C174.852 183.898 176.081 184.29 177.274 184.661C177.861 184.843 178.469 184.955 179.078 185.067C179.564 185.156 180.051 185.245 180.527 185.371C180.963 185.485 181.386 185.646 181.809 185.806L181.809 185.806L181.81 185.806L181.81 185.806L181.81 185.806L181.81 185.806L181.81 185.806L181.81 185.807L181.81 185.807L181.811 185.807L181.811 185.807L181.811 185.807L181.811 185.807L181.811 185.807L181.811 185.807L181.811 185.807L181.812 185.807L181.812 185.807L181.812 185.807L181.812 185.807L181.812 185.807C182.205 185.956 182.599 186.105 183.003 186.218C183.731 186.42 184.47 186.586 185.209 186.752C185.576 186.835 185.944 186.918 186.311 187.005C186.319 187.007 186.321 187.028 186.323 187.052C186.325 187.08 186.327 187.113 186.342 187.124C186.833 187.514 187.525 190.447 187.334 191.014C186.99 192.042 186.697 193.088 186.405 194.133L186.405 194.133L186.405 194.133L186.405 194.133L186.404 194.134L186.404 194.134L186.404 194.134L186.404 194.135L186.404 194.135L186.404 194.135L186.404 194.135L186.404 194.136L186.404 194.136L186.404 194.136L186.404 194.136L186.403 194.137L186.403 194.137L186.403 194.137L186.403 194.138L186.403 194.138L186.403 194.138L186.343 194.351C186.28 194.577 186.24 194.815 186.2 195.053C186.128 195.48 186.056 195.906 185.85 196.254L185.654 196.586L185.654 196.586C184.75 198.115 183.838 199.658 182.716 201.019C181.6 202.371 180.296 203.646 178.634 204.356C178.309 204.495 178.03 204.709 177.749 204.925C177.171 205.368 176.582 205.819 175.565 205.641C175.019 205.545 174.35 206.14 173.684 206.733C173.39 206.994 173.096 207.255 172.814 207.456C172.745 207.504 172.694 207.577 172.642 207.651C172.619 207.683 172.596 207.715 172.571 207.746C172.611 207.758 172.651 207.773 172.691 207.788C172.773 207.819 172.856 207.851 172.939 207.851C173.225 207.854 173.513 207.846 173.8 207.839L173.801 207.838C174.391 207.822 174.98 207.806 175.555 207.889C176.113 207.969 177.111 208.436 177.086 208.612C176.953 209.534 176.899 210.461 176.845 211.39C176.758 212.879 176.672 214.374 176.257 215.865C175.996 216.804 175.572 217.647 175.15 218.485L175.15 218.485C174.831 219.12 174.513 219.753 174.268 220.423C173.623 222.186 172.048 223.733 170.583 225.044C169.33 226.166 167.941 227.135 166.552 228.105L166.552 228.105L166.552 228.105L166.552 228.105L166.552 228.106L166.551 228.106L166.551 228.106L166.551 228.106L166.551 228.106L166.551 228.106L166.551 228.106L166.551 228.106L166.551 228.106L166.551 228.106L166.551 228.106L166.551 228.107L166.55 228.107L166.55 228.107L166.55 228.107L166.55 228.107L166.55 228.107L166.55 228.107C165.856 228.592 165.163 229.076 164.486 229.579C163.685 230.177 162.899 230.797 162.113 231.416L162.113 231.416L162.112 231.417L162.112 231.417L162.111 231.417L162.111 231.418L162.111 231.418L162.11 231.418L162.11 231.419L162.109 231.419L162.109 231.419L162.108 231.419L162.108 231.42L162.108 231.42L162.106 231.421L162.106 231.422C161.648 231.783 161.189 232.144 160.728 232.501L160.589 232.608L160.589 232.608C159.883 233.152 159.176 233.697 158.453 234.219C158.159 234.432 157.87 234.655 157.58 234.878C156.823 235.462 156.064 236.047 155.217 236.44C153.857 237.069 153.018 238.101 153.029 239.414C153.037 240.375 153.297 241.331 153.559 242.29C153.689 242.769 153.82 243.248 153.919 243.729C153.979 244.017 153.983 244.316 153.987 244.615C153.989 244.753 153.991 244.89 153.998 245.026C153.722 245.017 153.438 245.03 153.153 245.043C152.512 245.072 151.87 245.101 151.324 244.885C150.669 244.627 150.077 244.218 149.483 243.808L149.483 243.808C149.067 243.521 148.649 243.233 148.209 242.995C146.622 242.14 145.75 240.689 144.914 239.218C144.316 238.166 143.818 237.052 143.322 235.946L143.322 235.946L143.255 235.795C143.237 235.756 143.219 235.715 143.2 235.674C143.004 235.242 142.753 234.69 142.905 234.393C143.405 233.422 144.061 232.514 144.757 231.665C146.137 229.978 147.561 228.326 148.985 226.674L149.477 226.103C149.681 225.866 149.88 225.623 150.079 225.38L150.079 225.379C150.656 224.674 151.235 223.967 151.934 223.413C153.847 221.899 155.381 220.114 156.725 218.086C157.771 216.505 158.181 214.916 157.791 213.084C157.766 212.968 157.843 212.831 157.92 212.693C157.956 212.629 157.992 212.565 158.018 212.502C157.856 212.461 157.694 212.42 157.531 212.379L157.04 212.253L157.029 212.251L157.019 212.248C156.686 212.163 156.354 212.079 156.021 211.994C155.99 212.13 155.945 212.266 155.901 212.403L155.901 212.403L155.901 212.403L155.901 212.403L155.901 212.404L155.901 212.404L155.901 212.404L155.901 212.404L155.901 212.404L155.901 212.404L155.901 212.404L155.901 212.405L155.9 212.405C155.804 212.702 155.708 213 155.737 213.286C155.971 215.515 155.26 217.181 153.571 218.8C151.407 220.877 149.42 223.141 147.434 225.405C146.774 226.158 146.113 226.91 145.446 227.656C145.091 228.052 144.718 228.426 144.345 228.798C143.069 230.075 141.807 231.337 141.37 233.447C141.037 235.057 141.442 236.238 141.863 237.463ZM204.101 186.513C203.54 186.555 202.978 186.597 202.412 186.63C193.878 187.124 184.21 184.598 183.528 184.282C182.784 183.937 181.969 183.741 181.155 183.546L181.155 183.546C180.832 183.469 180.509 183.391 180.19 183.305C179.915 183.229 179.637 183.161 179.36 183.092L179.359 183.092C178.925 182.984 178.491 182.877 178.065 182.745C176.916 182.391 175.774 182.014 174.64 181.617C174.234 181.474 173.84 181.273 173.472 181.048C173.201 180.882 172.925 180.722 172.648 180.562L172.647 180.562C171.877 180.118 171.105 179.673 170.466 179.085C169.832 178.501 169.372 177.711 168.922 176.938C168.84 176.796 168.758 176.655 168.675 176.516C168.18 175.684 167.73 174.807 167.368 173.917C165.849 170.172 167.752 166.125 168.551 164.826C169.561 163.181 171.443 162.277 172.979 162C174.295 161.762 176.034 161.708 177.629 162.258C178.727 162.637 179.682 163.21 180.633 163.781C181.198 164.119 181.761 164.457 182.351 164.753C184.334 165.745 186.109 167.033 187.868 168.309L188.075 168.46C189.091 169.196 189.964 170.125 190.838 171.057C191.375 171.629 191.913 172.202 192.485 172.732C193.373 173.553 194.331 174.299 195.288 175.044L195.566 175.261C195.7 175.365 195.833 175.469 195.966 175.574C196.202 175.76 196.436 175.953 196.67 176.146L196.67 176.146C197.378 176.731 198.089 177.317 198.888 177.725C199.902 178.243 200.991 178.613 202.079 178.982C202.428 179.101 202.778 179.219 203.124 179.343C203.962 179.642 204.81 179.924 205.673 180.137C205.769 180.16 205.866 180.185 205.964 180.21L205.964 180.21L205.964 180.21C206.639 180.381 207.337 180.557 208.004 180.503C209.947 180.344 210.036 180.276 211.654 179.046L211.927 178.838C212.123 178.69 212.448 178.582 212.677 178.63C214.015 178.909 215.39 179.247 216.258 180.362C216.446 180.604 215.995 181.586 215.599 181.994C215.525 182.07 215.452 182.147 215.378 182.223C214.197 183.445 213.042 184.64 211.328 185.344C209.839 185.956 208.431 186.304 206.868 186.348C205.943 186.374 205.024 186.443 204.101 186.513ZM161.821 149.714L161.821 149.713C161.813 149.573 161.805 149.434 161.789 149.3C161.717 148.698 161.653 148.094 161.589 147.491C161.563 147.244 161.537 146.996 161.51 146.749C161.662 145.493 161.796 144.511 161.971 143.536C162.002 143.362 162.029 143.183 162.055 143.005C162.141 142.43 162.227 141.849 162.482 141.36C162.771 140.803 163.134 140.285 163.497 139.766L163.497 139.766L163.497 139.766L163.498 139.766L163.498 139.765L163.498 139.765L163.498 139.765L163.498 139.765L163.498 139.765L163.498 139.765L163.498 139.765L163.498 139.764L163.498 139.764L163.498 139.764L163.499 139.764L163.499 139.764L163.499 139.764L163.499 139.763L163.499 139.763L163.499 139.763L163.499 139.763L163.499 139.763C163.848 139.264 164.197 138.766 164.481 138.233C165.45 136.42 167.131 135.523 168.788 134.639C169.233 134.401 169.676 134.165 170.103 133.912C171.019 133.369 172.161 133.19 173.288 133.014L173.288 133.014L173.289 133.014C173.651 132.957 174.011 132.901 174.362 132.833C175.287 132.654 176.245 132.543 177.185 132.561C178.69 132.59 180.141 132.937 181.615 133.306C183.621 133.809 185.231 134.841 186.705 136.153C187.007 136.422 187.182 136.832 187.358 137.243C187.444 137.444 187.529 137.645 187.63 137.83C187.839 138.213 188.051 138.594 188.262 138.975L188.263 138.977L188.264 138.978L188.264 138.979L188.265 138.98L188.265 138.981L188.266 138.981L188.266 138.982L188.267 138.983L188.267 138.984L188.268 138.985L188.268 138.986L188.269 138.987L188.269 138.987L188.269 138.988L188.27 138.989L188.27 138.989L188.27 138.99L188.271 138.99L188.271 138.991L188.271 138.991C188.623 139.625 188.976 140.259 189.313 140.901C189.788 141.804 188.997 142.819 187.954 142.874C187.224 142.913 181.826 143.37 179.876 145.079C178.213 146.536 177.809 147.096 177.158 147.998C177.046 148.154 176.926 148.32 176.791 148.503C176.312 149.151 175.906 152.123 176.166 152.915C176.394 153.608 176.706 154.273 177.018 154.939L177.018 154.94L177.018 154.94C177.268 155.472 177.517 156.004 177.724 156.551C177.872 156.942 177.908 157.376 177.943 157.81C177.96 158.007 177.976 158.204 178.002 158.396C177.811 158.391 177.619 158.393 177.427 158.395C176.99 158.4 176.554 158.405 176.136 158.32C175.671 158.226 175.223 158.05 174.774 157.874C174.574 157.796 174.374 157.717 174.172 157.646C173.305 157.34 172.438 157.034 171.57 156.728L171.504 156.704L170.766 156.444L170.263 156.267C169.983 156.168 169.698 156.076 169.414 155.984C168.788 155.782 168.162 155.579 167.573 155.3C165.351 154.244 163.273 152.968 162.026 150.737C161.865 150.448 161.843 150.079 161.821 149.714ZM184.742 222.095L184.742 222.096C184.879 222.664 185.016 223.232 185.143 223.802C185.163 223.896 185.101 224.007 185.038 224.118L185.038 224.118L185.016 224.158C185.01 224.169 185.004 224.179 184.999 224.19C184.991 224.205 184.983 224.22 184.976 224.234C184.97 224.247 184.965 224.259 184.96 224.271C185.144 225.314 185.318 226.084 185.514 226.848C185.652 227.39 185.796 227.931 185.939 228.472C186.213 229.507 186.488 230.543 186.731 231.585C186.866 232.164 186.931 232.79 186.874 233.378C186.721 234.962 188.549 238.396 190.007 238.633C190.999 238.795 192.018 238.78 193.04 238.765H193.04H193.04H193.04H193.04H193.04H193.041H193.041H193.041H193.041H193.041H193.042H193.042H193.042H193.042H193.042H193.042H193.043H193.043C193.674 238.756 194.307 238.747 194.934 238.78C195.427 238.805 195.963 239.036 196.358 239.334C196.482 239.428 196.324 240.154 196.094 240.405C195.555 240.992 194.935 241.53 194.273 241.974C191.929 243.552 189.253 243.528 186.587 243.437C184.23 243.357 182.081 242.816 180.65 240.669C179.978 239.662 179.268 238.679 178.557 237.696C178.119 237.089 177.68 236.482 177.25 235.869C176.89 235.355 176.54 234.834 176.189 234.313L176.189 234.312L176.188 234.311L176.187 234.31L176.187 234.309L176.186 234.308L176.185 234.307C175.758 233.671 175.33 233.036 174.885 232.412C174.549 231.942 174.191 231.482 173.834 231.023L173.833 231.022L173.833 231.022C173.063 230.033 172.294 229.045 171.738 227.949C171.448 227.378 172.031 226.103 172.566 225.427C173.135 224.707 173.78 224.046 174.425 223.385L174.425 223.384C175.161 222.629 175.896 221.875 176.518 221.035C176.817 220.63 176.921 220.075 177.024 219.523C177.133 218.942 177.241 218.366 177.574 217.973C178.422 216.975 178.434 215.863 178.445 214.77C178.45 214.298 178.455 213.83 178.527 213.377C178.632 212.718 178.729 212.057 178.826 211.394L178.827 211.392L178.827 211.391L178.827 211.39C179.031 210.002 179.236 208.611 179.51 207.241C179.611 206.738 180.149 206.313 180.666 205.904C180.839 205.767 181.009 205.633 181.16 205.497C181.228 205.437 181.757 205.68 181.826 205.87C182.058 206.51 182.235 207.183 182.33 207.859C182.443 208.666 182.538 209.476 182.633 210.286L182.633 210.287L182.633 210.288C182.757 211.346 182.881 212.405 183.046 213.457C183.132 214.003 183.283 214.539 183.435 215.076C183.568 215.547 183.701 216.018 183.789 216.497C183.878 216.975 183.92 217.461 183.962 217.948C184.007 218.455 184.051 218.962 184.147 219.46C184.319 220.343 184.53 221.219 184.742 222.095ZM183.19 158.367C182.673 158.519 181.825 158.101 181.344 157.688C180.917 157.323 180.597 156.831 180.278 156.34C180.14 156.128 180.002 155.916 179.856 155.715C179.726 155.519 179.596 155.334 179.472 155.155C179.067 154.574 178.709 154.06 178.508 153.49C178.386 153.144 178.386 152.758 178.385 152.369C178.385 152.059 178.385 151.746 178.323 151.451C178.033 150.081 178.773 149.225 179.536 148.342L179.537 148.341C179.649 148.212 179.761 148.082 179.871 147.95C180.755 146.883 181.843 146.092 183.044 145.491C183.732 145.146 184.567 145.002 185.347 144.952C185.85 144.919 186.36 144.941 186.869 144.964C187.603 144.996 188.335 145.028 189.038 144.894C189.822 144.744 190.069 145.115 190.329 145.534C190.571 145.924 190.72 146.43 190.734 146.89C190.768 148.106 190.728 149.326 190.663 150.541C190.658 150.636 190.554 150.724 190.447 150.813C190.342 150.9 190.235 150.989 190.219 151.089C189.841 153.416 188.415 155.168 186.805 156.662C185.867 157.532 184.464 157.991 183.19 158.367ZM199.793 175.777C199.767 175.805 199.741 175.833 199.72 175.854C199.517 175.679 199.32 175.508 199.128 175.341C198.338 174.654 197.625 174.034 196.877 173.458C196.688 173.312 196.458 173.216 196.229 173.121C195.98 173.018 195.731 172.915 195.536 172.747C194.88 172.18 194.244 171.588 193.609 170.996L193.608 170.995L193.607 170.994C193.069 170.493 192.531 169.992 191.981 169.506C190.852 168.51 189.694 167.547 188.525 166.599C188.279 166.4 188.036 166.198 187.793 165.995C186.964 165.305 186.133 164.613 185.218 164.064C184.351 163.544 183.428 163.118 182.505 162.693L182.504 162.692L182.503 162.692L182.502 162.691L182.501 162.691L182.5 162.691L182.499 162.69L182.498 162.69L182.498 162.689L182.497 162.689L182.496 162.689L182.495 162.688L182.494 162.688L182.493 162.687L182.493 162.687C181.938 162.432 181.383 162.176 180.84 161.899C180.235 161.59 179.666 161.209 179.099 160.829L179.099 160.829C179.013 160.772 178.928 160.715 178.843 160.659C178.83 160.649 179.016 160.166 179.139 160.151C179.584 160.097 180.035 160.017 180.488 159.937L180.488 159.937C181.653 159.732 182.824 159.525 183.899 159.754C185.421 160.078 186.959 160.626 188.4 161.618C190.777 163.254 192.877 165.126 194.872 167.156C197.065 169.387 199.228 171.648 201.39 173.908L202.182 174.736C203.14 175.737 204.07 176.764 204.999 177.792C205.084 177.885 205.143 178.125 205.086 178.2L205.085 178.2C204.897 178.448 204.571 178.877 204.441 178.831C204.01 178.679 203.619 178.395 203.24 178.119L203.24 178.119L203.171 178.069C202.599 177.655 202.032 177.234 201.464 176.814C200.946 176.431 200.428 176.048 199.908 175.668C199.9 175.663 199.847 175.72 199.793 175.777ZM448.415 243.042C448.168 243.051 447.908 243.088 447.647 243.125C447.073 243.207 446.499 243.288 446.07 243.078C446.042 243.064 445.961 243.023 445.829 242.957L445.828 242.956L445.826 242.955C441.523 240.784 383.528 211.526 324.365 193.524C273.08 177.918 219.216 173.5 216.912 173.311L216.846 173.305C216.6 173.285 271.584 171.922 325.175 187.993C386.784 206.468 448.158 242.732 448.415 243.042ZM256.207 140.722C256.272 140.118 256.338 139.506 256.413 138.886C256.373 138.722 256.334 138.562 256.297 138.405L256.297 138.405C256.123 137.678 255.965 137.021 255.719 136.399L255.68 136.298L255.656 136.237L255.618 136.14C255.242 135.165 254.864 134.189 253.598 133.885C253.319 133.818 253.081 133.604 252.839 133.386C252.64 133.206 252.439 133.025 252.21 132.922C251.541 132.62 250.812 132.411 250.088 132.283C249.722 132.219 249.346 132.21 248.971 132.2C248.601 132.191 248.231 132.182 247.87 132.12C247.223 132.01 246.579 131.871 245.935 131.732C244.946 131.518 243.957 131.304 242.956 131.194C242.57 131.152 242.185 131.116 241.801 131.079L241.8 131.079L241.799 131.079C240.725 130.977 239.653 130.876 238.582 130.649C237.589 130.438 236.557 130.409 235.528 130.38C235.199 130.371 234.87 130.361 234.542 130.346C234.393 130.339 234.238 130.389 234.084 130.438C233.914 130.493 233.745 130.547 233.586 130.523C232.45 130.352 231.319 130.145 230.188 129.939C229.9 129.886 229.611 129.833 229.322 129.781C228.819 129.69 228.319 129.698 227.813 129.706H227.813C227.248 129.715 226.676 129.723 226.084 129.595C225.068 129.375 224.009 129.367 222.941 129.359C222.223 129.354 221.502 129.348 220.787 129.278C219.311 129.133 217.816 129.168 216.322 129.202H216.322H216.322H216.322C215.711 129.216 215.101 129.23 214.491 129.232C213.59 129.235 212.47 130.273 212.406 131.156C212.387 131.407 212.401 131.682 212.415 131.957C212.445 132.534 212.474 133.109 212.204 133.45C211.522 134.313 211.615 135.241 211.708 136.172C211.785 136.937 211.861 137.704 211.511 138.44C211.164 139.169 211.207 140.045 211.251 140.921C211.273 141.348 211.294 141.775 211.27 142.186C211.229 142.875 211.168 143.565 211.106 144.255V144.256V144.256V144.256V144.256V144.256V144.257V144.257V144.257V144.257V144.257V144.258V144.258V144.258V144.258V144.258V144.259V144.259V144.259C210.984 145.609 210.863 146.962 210.902 148.318C210.907 148.502 210.955 148.688 211.004 148.873C211.064 149.105 211.124 149.336 211.097 149.559C210.979 150.51 210.836 151.458 210.692 152.406C210.573 153.197 210.453 153.988 210.348 154.781C210.272 155.353 210.276 155.924 210.279 156.498V156.498C210.284 157.233 210.289 157.974 210.127 158.726C209.94 159.599 209.936 160.502 209.932 161.413C209.929 162.1 209.926 162.792 209.844 163.479C209.739 164.364 209.756 165.256 209.774 166.151C209.797 167.359 209.821 168.572 209.544 169.78C209.373 170.527 209.328 171.302 209.282 172.078V172.078C209.253 172.575 209.224 173.073 209.161 173.565C209.138 173.747 209.022 173.95 208.915 174.139C208.787 174.364 208.671 174.568 208.738 174.689C208.953 175.072 209.459 175.365 209.904 175.53C211.117 175.978 212.75 175.389 212.819 174.527C212.85 174.142 212.894 173.754 212.938 173.365C213.054 172.351 213.171 171.335 213.047 170.35C212.931 169.433 213.14 168.582 213.347 167.736C213.523 167.019 213.698 166.306 213.673 165.559C213.666 165.33 213.944 164.893 214.104 164.886C216.174 164.798 218.247 164.747 220.319 164.735C221.058 164.731 221.797 164.752 222.535 164.773C223.347 164.796 224.159 164.82 224.97 164.809C225.821 164.798 226.673 164.762 227.524 164.726L227.525 164.726H227.525H227.525H227.526H227.526H227.526H227.527H227.527H227.527H227.527H227.528H227.528H227.528H227.529H227.529H227.529H227.53H227.53H227.53C228.903 164.668 230.275 164.609 231.644 164.657C232.505 164.687 233.359 164.861 234.215 165.036C234.811 165.157 235.408 165.279 236.009 165.352C236.381 165.397 236.754 165.406 237.129 165.414H237.129C237.737 165.428 238.348 165.442 238.959 165.614C239.319 165.714 239.709 165.702 240.1 165.69C240.463 165.678 240.827 165.667 241.168 165.745C241.727 165.874 242.27 166.071 242.813 166.268L242.813 166.269C243.279 166.438 243.746 166.607 244.222 166.733C244.768 166.878 245.331 166.953 245.894 167.028C246.178 167.066 246.462 167.105 246.743 167.151C246.993 167.193 247.255 167.267 247.517 167.34L247.517 167.34C248.083 167.5 248.646 167.659 249.085 167.489C249.95 167.156 250.798 166.407 251.302 165.614C251.814 164.807 252.022 163.779 252.22 162.808L252.249 162.664C252.309 162.367 252.277 162.036 252.245 161.712C252.204 161.286 252.163 160.872 252.333 160.56C252.846 159.615 252.982 158.608 253.117 157.603C253.183 157.11 253.249 156.617 253.36 156.132C253.413 155.901 253.386 155.629 253.359 155.365C253.323 155.017 253.289 154.682 253.445 154.475C254.144 153.549 254.244 152.492 254.344 151.433V151.433C254.407 150.766 254.47 150.099 254.683 149.464C254.977 148.588 255.145 147.644 255.313 146.701C255.386 146.291 255.459 145.881 255.542 145.477C255.861 143.93 256.031 142.352 256.207 140.722V140.722ZM251.145 157.18L251.145 157.18L251.145 157.18L251.145 157.18L251.145 157.18L251.145 157.181L251.145 157.181L251.145 157.181L251.145 157.181L251.145 157.181L251.145 157.181L251.144 157.181L251.144 157.182C250.957 158.143 250.771 159.099 250.344 159.991C250.322 160.193 250.308 160.38 250.295 160.552C250.26 161.014 250.233 161.374 250.08 161.668C249.843 162.127 249.812 162.659 249.781 163.19C249.731 164.057 249.68 164.919 248.733 165.454C248.693 165.477 248.651 165.501 248.608 165.526L248.607 165.526C248.305 165.701 247.957 165.903 247.689 165.843C247.416 165.783 247.161 165.64 246.906 165.497C246.638 165.347 246.372 165.198 246.086 165.144C245.582 165.05 245.068 165.01 244.554 164.97C243.964 164.924 243.374 164.879 242.803 164.751C242.315 164.642 241.847 164.446 241.38 164.251C240.904 164.051 240.428 163.852 239.931 163.745C239.299 163.608 238.649 163.56 237.997 163.513C237.491 163.476 236.983 163.439 236.484 163.359C232.207 162.681 227.912 162.783 223.618 162.885C221.045 162.946 218.471 163.007 215.901 162.9C215.011 162.863 214.264 162.815 214.199 161.678C214.175 161.269 214.102 160.842 214.029 160.415C213.879 159.537 213.729 158.663 214.018 157.97C214.629 156.508 214.556 155.064 214.484 153.626C214.454 153.023 214.424 152.42 214.444 151.818C214.637 146.146 214.688 140.468 214.733 134.793C214.733 134.71 214.733 134.627 214.734 134.545C214.736 133.616 214.737 132.755 215.422 131.982C215.815 131.537 216.163 131.371 216.771 131.415C217.487 131.466 218.205 131.476 218.923 131.486H218.924C219.738 131.498 220.551 131.509 221.36 131.581C222.171 131.652 222.977 131.779 223.784 131.906C224.632 132.039 225.48 132.172 226.334 132.241C226.883 132.286 227.452 132.246 228.018 132.206C228.896 132.144 229.765 132.083 230.537 132.34C232.099 132.86 233.675 132.898 235.248 132.935C236.064 132.955 236.878 132.974 237.69 133.061C238.32 133.128 238.982 133.078 239.639 133.028C240.627 132.954 241.601 132.88 242.429 133.208C243.793 133.749 245.154 133.759 246.496 133.769C247.029 133.773 247.558 133.777 248.083 133.814C250.296 133.97 252.218 134.602 253.445 136.222C254.158 137.163 254.844 138.721 253.947 140.185C253.868 140.313 253.889 140.499 253.91 140.688V140.689C253.922 140.795 253.934 140.902 253.928 141.001C253.901 141.471 253.907 141.954 253.912 142.436C253.924 143.543 253.936 144.651 253.564 145.61C253.207 146.53 253.036 147.475 252.865 148.417C252.723 149.207 252.58 149.995 252.328 150.765C252.152 151.303 252.156 151.908 252.159 152.509C252.164 153.188 252.168 153.861 251.912 154.425C251.509 155.312 251.327 156.248 251.145 157.18L251.145 157.18ZM211.546 163.13L211.499 163.082C211.479 163.062 211.46 163.043 211.445 163.026C211.956 163.077 212.533 163.181 212.655 163.475C212.788 163.795 212.768 164.178 212.749 164.562C212.74 164.725 212.732 164.888 212.735 165.046C212.697 165.046 212.653 165.052 212.61 165.057C212.514 165.069 212.418 165.081 212.376 165.04C212.317 164.98 212.275 164.891 212.234 164.805C212.182 164.694 212.132 164.588 212.051 164.559C211.099 164.219 211.073 164.157 211.695 163.305C211.705 163.291 211.626 163.21 211.546 163.13ZM316.393 267.35L316.394 267.35L316.394 267.351L316.395 267.351L316.404 267.355C316.544 267.427 316.682 267.498 316.821 267.568C317.008 267.663 317.193 267.757 317.38 267.849C317.627 267.972 317.885 268.076 318.143 268.179C318.569 268.35 318.992 268.519 319.358 268.773C319.811 269.086 320.191 269.508 320.57 269.927C320.688 270.059 320.807 270.19 320.928 270.318C320.983 270.379 320.944 270.655 320.9 270.669C320.827 270.691 320.751 270.718 320.673 270.747C320.637 270.761 320.601 270.775 320.564 270.789C320.249 270.909 319.924 271.034 319.684 270.945C319.287 270.796 318.879 270.676 318.47 270.556C317.257 270.2 316.044 269.845 315.14 268.732C314.406 267.827 313.391 267.077 312.362 266.514C311.898 266.263 311.051 266.633 310.861 267.402C310.379 269.342 305.106 277.036 297.21 277.036C289.315 277.036 276.894 276.223 273.592 272.259C268.953 266.689 270.74 256.052 270.912 255.028L270.922 254.971C270.977 254.624 270.72 254.185 270.502 253.859C270.435 253.76 269.965 253.818 269.766 253.942C269.157 254.327 268.565 254.736 267.972 255.146L267.971 255.147C267.731 255.313 267.491 255.48 267.249 255.644C266.976 255.829 266.706 256.019 266.436 256.208L266.433 256.21C265.696 256.726 264.959 257.242 264.174 257.672C263.934 257.804 263.538 257.675 263.168 257.555C263.058 257.519 262.95 257.484 262.85 257.457C262.64 257.398 262.441 257.296 262.243 257.194C262.154 257.148 262.064 257.102 261.973 257.06C262.134 256.916 262.291 256.766 262.448 256.616L262.449 256.615L262.449 256.615L262.45 256.614C262.799 256.281 263.148 255.947 263.543 255.683C264.08 255.327 264.642 255.009 265.204 254.69C265.613 254.459 266.023 254.227 266.422 253.981C267.457 253.341 268.476 252.673 269.483 251.992C269.525 251.963 269.567 251.935 269.609 251.907C269.691 251.853 269.773 251.799 269.856 251.745C270.371 251.407 270.892 251.064 271.294 250.62C273.002 248.733 274.922 247.133 276.914 245.542C277.84 244.804 278.854 244.297 279.864 243.794C280.572 243.44 281.278 243.088 281.949 242.659C282.42 242.358 283.016 242.258 283.615 242.158C283.944 242.102 284.275 242.047 284.586 241.958C285.188 241.785 285.784 241.595 286.379 241.404L286.381 241.404C286.823 241.262 287.265 241.121 287.709 240.987C287.836 240.949 287.976 240.954 288.114 240.959C288.16 240.96 288.205 240.962 288.25 240.962C288.799 240.962 289.35 240.947 289.901 240.932H289.902C291.196 240.898 292.49 240.863 293.759 241.02C294.555 241.119 295.315 241.491 296.076 241.864C296.418 242.031 296.76 242.199 297.106 242.341C297.087 242.372 297.071 242.409 297.055 242.447C297.022 242.521 296.991 242.594 296.943 242.609C295.111 243.117 293.323 243.417 291.447 242.554C290.868 242.287 290.093 242.384 289.369 242.475L289.367 242.476C289.286 242.486 289.205 242.496 289.125 242.505L289.047 242.515L288.988 242.521L288.942 242.526C288.267 242.598 287.6 242.764 286.937 242.929C286.858 242.949 286.779 242.968 286.701 242.988C286.63 243.005 286.56 243.022 286.49 243.039C286.434 243.053 286.378 243.066 286.321 243.079C286.239 243.097 286.156 243.116 286.073 243.134C285.559 243.249 285.042 243.364 284.578 243.583C282.9 244.372 281.24 245.208 279.606 246.091C279.067 246.382 278.551 246.715 278.035 247.047L278.035 247.048L278.035 247.048L278.034 247.048L278.034 247.048L278.034 247.048L278.034 247.049L278.033 247.049L278.033 247.049L278.033 247.049L278.032 247.049L278.032 247.049L278.032 247.05L278.032 247.05L278.031 247.05L278.031 247.05L278.031 247.05L278.03 247.051L278.03 247.051L278.03 247.051L278.03 247.051L278.029 247.051L278.029 247.051L278.029 247.052L278.029 247.052L278.028 247.052L278.028 247.052L278.028 247.052L278.027 247.053L278.027 247.053L278.027 247.053L278.027 247.053L278.026 247.053C277.558 247.355 277.09 247.657 276.605 247.928C276.337 248.078 276.048 248.194 275.759 248.311L275.758 248.311C275.009 248.613 274.263 248.913 273.898 249.787C273.87 249.854 273.784 249.899 273.699 249.943C273.662 249.962 273.624 249.981 273.592 250.003C273.783 250.008 273.978 250.026 274.172 250.045C274.609 250.087 275.045 250.129 275.441 250.016C276.107 249.829 276.741 249.525 277.376 249.222C277.592 249.118 277.808 249.014 278.026 248.916C278.34 248.773 278.65 248.619 278.961 248.465C279.563 248.166 280.166 247.867 280.795 247.652C281.169 247.525 281.575 247.5 281.983 247.475C282.273 247.457 282.565 247.44 282.848 247.384C283.374 247.284 283.895 247.144 284.415 247.004C284.678 246.933 284.941 246.862 285.204 246.797C285.331 246.766 285.469 246.758 285.601 246.758C286.164 246.757 286.734 246.786 287.304 246.814C288.668 246.882 290.031 246.95 291.29 246.617C291.799 246.484 292.255 246.527 292.702 246.57C293.068 246.605 293.428 246.639 293.806 246.576C294.533 246.455 295.357 246.793 296.143 247.115L296.143 247.115C296.327 247.19 296.509 247.265 296.686 247.332C297.547 247.658 298.452 248.008 299.161 248.568C299.992 249.228 300.752 249.976 301.512 250.723L301.512 250.723L301.512 250.724L301.512 250.724L301.513 250.724L301.513 250.724L301.513 250.724L301.513 250.725L301.513 250.725L301.514 250.725L301.514 250.725L301.514 250.725L301.514 250.725L301.514 250.726L301.514 250.726L301.515 250.726L301.515 250.726L301.515 250.727L301.517 250.728C301.838 251.044 302.159 251.36 302.485 251.669C302.448 251.707 302.409 251.753 302.368 251.802C302.34 251.834 302.313 251.868 302.285 251.902L302.285 251.902C302.135 252.085 301.986 252.266 301.92 252.24C301.602 252.113 281.96 249.661 274.287 253.859C271.504 255.382 274.065 266.441 274.279 267.367L274.287 267.402C275.441 272.407 293.422 275.292 300.263 274.148C308.499 272.77 308.993 264.162 309.153 261.37C309.182 260.88 309.199 260.569 309.247 260.508C309.688 259.942 310.392 259.639 311.018 260.163C311.316 260.411 311.515 260.894 311.564 261.292C311.611 261.668 311.728 262.026 311.843 262.374C311.934 262.651 312.023 262.922 312.072 263.19C312.225 264.035 312.769 264.565 313.319 265.1C313.704 265.476 314.091 265.853 314.348 266.343C315.076 266.677 315.741 267.017 316.39 267.348L316.393 267.35ZM114.509 214.801C114.251 214.743 113.993 214.685 113.821 214.781C113.222 215.116 87.7136 226.529 69.9035 216.764C69.685 216.645 69.3716 216.483 68.996 216.288L68.9959 216.288L68.9956 216.288C66.7661 215.136 62.349 212.852 62.6137 211.559C63.3346 208.035 73.4141 203.193 74.7248 202.564L74.7268 202.563L74.7287 202.562L74.8048 202.525C74.84 202.508 74.8602 202.498 74.8642 202.496C74.8076 202.407 74.756 202.3 74.7045 202.194L74.7044 202.194L74.7042 202.194C74.5901 201.958 74.476 201.723 74.3069 201.672C73.8197 201.528 73.2514 201.509 72.7485 201.605C72.1611 201.717 65.7692 203.141 64.6494 203.852C63.4722 204.598 60.2505 208.524 60.3095 209.79C60.3351 210.331 60.1547 210.881 59.9734 211.433C59.8783 211.723 59.783 212.013 59.7169 212.303C59.6782 212.473 59.6706 212.659 59.6631 212.842C59.6513 213.133 59.6396 213.42 59.5042 213.633C59.3566 213.866 59.1826 214.239 58.9717 214.692L58.9715 214.692L58.9715 214.692C58.557 215.582 58.0002 216.777 57.2222 217.809C56.6386 218.584 55.8455 219.234 55.2426 219.729L55.2425 219.729C54.8823 220.025 54.59 220.265 54.4509 220.442C54.3674 220.548 54.2571 220.655 54.1444 220.764L54.1443 220.764C53.8329 221.065 53.5027 221.385 53.6625 221.766C53.8786 222.282 54.6395 222.029 55.0487 221.893L55.0576 221.89C55.6535 221.694 56.2202 221.314 56.7068 220.903C57.3885 220.326 58.031 219.689 58.606 219.007C59.195 218.307 59.7702 217.567 60.1912 216.764C60.656 215.873 61.684 215.504 62.6137 216.144C88.7663 234.128 113.444 216.985 114.597 215.962C114.755 215.822 114.783 215.536 114.811 215.249C114.824 215.117 114.837 214.985 114.862 214.866C114.75 214.855 114.629 214.828 114.509 214.801ZM232.618 113.712C232.103 114.229 231.59 114.736 231.08 115.239L231.079 115.24C229.798 116.505 228.542 117.745 227.355 119.049C226.938 119.507 226.677 120.109 226.417 120.711L226.417 120.711L226.417 120.711L226.417 120.711C226.304 120.971 226.192 121.23 226.067 121.477C225.395 122.81 224.404 123.311 222.659 124.068C221.65 124.505 220.594 124.923 219.661 124.741C219.007 124.612 218.349 124.622 217.701 124.632C216.982 124.643 216.275 124.653 215.597 124.475C214.771 124.259 213.866 123.549 213.45 122.806C213.089 122.163 213.493 121.328 214.212 120.636C215.005 119.873 215.688 118.998 216.372 118.122L216.372 118.121L216.372 118.121L216.373 118.12L216.373 118.12L216.373 118.12C216.768 117.614 217.163 117.108 217.58 116.623C218.026 116.103 218.469 115.579 218.912 115.055C220.375 113.325 221.84 111.592 223.441 109.999C224.764 108.682 226.411 107.834 228.352 107.288C230.117 106.791 231.466 106.914 233.045 107.589C233.633 107.841 234.313 107.877 234.994 107.913C235.326 107.93 235.659 107.948 235.981 107.99C237.01 108.126 237.62 109.096 236.958 109.568C236.372 109.985 235.279 110.396 234.789 110.124C232.101 108.634 229.422 108.986 226.79 109.987C226.089 110.253 225.508 110.864 224.937 111.463L224.937 111.463C224.755 111.654 224.574 111.844 224.39 112.022C222.982 113.384 221.577 114.753 220.241 116.185C219.724 116.739 219.281 117.363 218.839 117.987C218.675 118.218 218.511 118.449 218.344 118.676C218.233 118.826 218.121 118.977 218.01 119.127C217.446 119.888 216.882 120.65 216.357 121.437C215.967 122.023 216.018 122.133 216.628 122.328C218.151 122.813 219.637 122.718 221.152 122.167C223 121.495 224.064 120.084 225.168 118.62C225.303 118.442 225.439 118.262 225.577 118.082C226.477 116.91 227.57 115.884 228.663 114.859C229.14 114.412 229.616 113.965 230.077 113.505C230.157 113.425 230.24 113.346 230.323 113.268C230.471 113.129 230.619 112.989 230.754 112.838C231.424 112.085 232.1 111.361 233.24 111.422C233.292 111.425 233.343 111.36 233.399 111.29C233.441 111.237 233.486 111.181 233.535 111.15C233.607 111.103 233.694 111.079 233.781 111.055C233.819 111.045 233.857 111.034 233.894 111.022C233.888 111.06 233.885 111.1 233.883 111.14C233.877 111.227 233.871 111.313 233.835 111.385C233.46 112.141 233.071 112.891 232.618 113.712ZM242.757 102.996C244.655 101.201 246.567 99.3931 247.861 96.9522C247.548 96.848 247.234 96.8242 246.922 96.8007C246.775 96.7896 246.628 96.7785 246.482 96.759C246.24 96.7267 245.995 96.6653 245.752 96.604C245.326 96.4969 244.902 96.3905 244.497 96.4426C243.745 96.5389 242.969 96.8465 242.317 97.2471C241.361 97.8345 240.344 98.3017 239.324 98.7699C237.821 99.4604 236.313 100.153 234.99 101.237C234.627 101.534 234.448 101.867 234.278 102.184C234.141 102.439 234.009 102.685 233.791 102.894C233.847 102.905 233.903 102.916 233.959 102.926L234.032 102.939L234.117 102.955C234.359 102.999 234.6 103.043 234.836 103.105C235.399 103.255 235.96 103.411 236.521 103.567L236.522 103.567C236.999 103.7 237.476 103.832 237.954 103.961C237.986 103.969 238.018 103.978 238.05 103.987L238.138 104.011C238.204 104.03 238.271 104.049 238.337 104.068L238.338 104.069L238.339 104.069L238.34 104.069L238.34 104.069C238.752 104.188 239.166 104.306 239.586 104.352C239.699 104.364 239.822 104.381 239.949 104.398L239.949 104.398L239.949 104.398L239.949 104.398C240.501 104.475 241.13 104.561 241.386 104.31C241.836 103.866 242.296 103.431 242.757 102.996ZM242.762 98.9704C242.808 98.9899 242.854 99.0093 242.895 99.0213C243.205 98.7915 243.656 98.7313 243.79 98.9095C243.968 99.1462 244.056 99.762 243.91 99.8801C242.969 100.645 241.989 101.377 240.946 101.994C240.547 102.23 239.948 102.194 239.449 102.161C239.293 102.15 238.994 101.669 239.054 101.526C239.07 101.489 239.086 101.45 239.102 101.409L239.128 101.346L239.129 101.343C239.334 100.843 239.598 100.196 239.906 100.156C240.86 100.033 241.569 99.5546 242.299 99.0633C242.37 99.0154 242.442 98.9673 242.513 98.9195C242.563 98.8865 242.662 98.9285 242.762 98.9704ZM286.967 190.545C284.011 190.194 281.088 190.194 278.175 190.193C277.277 190.193 276.379 190.193 275.482 190.183C274.93 190.177 274.301 190.064 273.857 189.774C273.592 189.603 273.49 188.959 273.565 188.578C273.614 188.336 274.125 188.015 274.423 188.02C274.997 188.032 275.966 187.986 277.132 187.931H277.133C279.908 187.799 283.802 187.615 286.166 188.02C291.591 188.95 294.402 192.414 294.239 192.399C293.988 192.377 293.733 192.366 293.477 192.355C292.827 192.326 292.175 192.298 291.591 192.086C291.142 191.923 290.704 191.726 290.265 191.529C289.233 191.066 288.192 190.599 286.967 190.545ZM256.041 92.7913C257.092 92.3731 257.134 91.7521 256.137 91.1586C255.853 91.2368 255.601 91.3259 255.363 91.4098C255.089 91.5068 254.834 91.5968 254.572 91.655C254.004 91.7813 253.434 91.8945 252.863 92.0076C251.997 92.1795 251.131 92.3514 250.276 92.569C249.972 92.6462 249.53 93.1514 249.567 93.3963C249.632 93.8245 249.92 94.2294 250.19 94.6094C250.218 94.6496 250.247 94.6895 250.274 94.7291C250.324 94.8 250.689 94.693 250.884 94.6105C251.13 94.5063 251.371 94.3901 251.612 94.274C252.003 94.0862 252.393 93.8986 252.801 93.7619C253.254 93.61 253.717 93.4871 254.181 93.3643C254.811 93.1973 255.44 93.0306 256.041 92.7913ZM259.172 89.5034C259.187 88.6233 259.193 88.6224 260.462 88.4063L260.593 88.3839C260.862 88.338 261.118 88.2265 261.376 88.1146C261.588 88.0224 261.8 87.93 262.021 87.8738C262.133 87.8454 262.483 88.1847 262.456 88.2763L262.443 88.3188L262.429 88.3702L262.404 88.4583C262.288 88.8745 262.141 89.4025 261.917 89.4493C261.668 89.5013 261.42 89.627 261.17 89.7535C260.528 90.0789 259.875 90.4094 259.172 89.5034ZM266.523 86.1536C266.627 86.142 266.73 86.1304 266.828 86.1238C267.593 85.9851 267.614 85.5075 267.634 85.0451C267.643 84.8409 267.652 84.6397 267.724 84.4719C267.612 84.4924 267.497 84.5081 267.382 84.5239C267.125 84.5594 266.867 84.5949 266.63 84.6848C266.579 84.7039 266.526 84.7234 266.471 84.7437C266.094 84.8811 265.633 85.0499 265.56 85.3012C265.273 86.2943 265.905 86.2231 266.523 86.1536ZM275.38 82.8133L275.352 82.8256L275.313 82.8427C275.282 82.8566 275.252 82.8704 275.222 82.884L275.221 82.8845C274.992 82.9888 274.795 83.0786 274.624 83.0428C274.382 82.9916 274.152 82.8807 273.922 82.7697C273.824 82.7227 273.727 82.6756 273.628 82.6331C273.762 82.5943 273.896 82.5527 274.029 82.5112C274.335 82.4158 274.642 82.3204 274.955 82.2574C275.416 82.1647 275.523 82.2955 275.38 82.8133ZM321.053 45.7107C321.114 45.9574 321.176 46.2094 321.245 46.466C321.319 46.7154 321.402 46.9211 321.478 47.1101L321.478 47.1108L321.478 47.1115C321.542 47.2685 321.6 47.414 321.645 47.5637C322.191 49.371 322.415 51.215 322.373 53.1089C322.364 53.5221 322.463 53.9355 322.563 54.3507C322.639 54.6665 322.715 54.9834 322.743 55.3019C322.779 55.6959 322.77 56.1032 322.762 56.5089C322.747 57.2311 322.732 57.9482 322.967 58.5763C323.335 59.5662 323.248 60.5198 323.163 61.4475L323.163 61.4516C323.147 61.6268 323.131 61.8012 323.118 61.9746C323.005 63.4782 322.426 64.7806 320.837 65.6215C320.381 65.8626 319.927 65.9285 319.478 65.9936C319.079 66.0514 318.685 66.1086 318.299 66.288C317.772 66.5329 317.202 66.6171 316.622 66.7026C315.886 66.8112 315.135 66.922 314.442 67.367C314.035 67.629 313.492 67.6758 312.947 67.7228C312.422 67.7682 311.895 67.8137 311.484 68.0523C310.555 68.5914 309.904 68.5395 309.148 67.9817C308.802 67.7263 308.462 67.4623 308.122 67.1981C307.808 66.9543 307.494 66.7105 307.175 66.4731C306.803 66.1956 306.419 65.9297 306.022 65.6896C305.6 65.4342 305.088 65.2963 304.606 65.1667C304.152 65.0444 303.725 64.9295 303.426 64.7301C302.601 64.1809 301.936 64.3893 301.287 64.5927C300.982 64.6885 300.68 64.7831 300.366 64.7972C300.114 64.8084 299.877 65.1912 299.641 65.5734C299.534 65.7469 299.427 65.9201 299.318 66.0585C299.486 66.1439 299.661 66.2599 299.836 66.3759C300.223 66.6327 300.611 66.8892 300.913 66.8122L300.987 66.7929L301.04 66.7791C301.086 66.7667 301.133 66.7542 301.179 66.7418L301.179 66.7417C301.86 66.5581 302.451 66.3985 303.153 66.8602C303.469 67.0686 303.832 67.206 304.195 67.3436C304.519 67.4664 304.844 67.5895 305.136 67.7634C305.237 67.8232 305.339 67.8828 305.44 67.9426C306.244 68.4153 307.067 68.899 307.697 69.5534C308.676 70.5686 309.733 70.9413 311.14 70.5201C312.122 70.2255 313.116 69.9643 314.109 69.7031C314.875 69.5016 315.642 69.3001 316.403 69.0833C316.812 68.9668 317.223 68.8603 317.634 68.754C319.385 68.3006 321.128 67.8494 322.638 66.6362C324.95 64.7765 325.025 62.256 324.743 59.7877C324.693 59.3483 324.634 58.909 324.575 58.469L324.575 58.4683L324.575 58.4676L324.575 58.4669L324.575 58.4662L324.575 58.4655L324.575 58.4647C324.445 57.4917 324.314 56.5151 324.269 55.5262C324.233 54.7385 324.254 53.9469 324.275 53.1552C324.327 51.195 324.378 49.2338 323.571 47.3278C323.335 46.7698 323.202 46.1685 323.069 45.5668L323.069 45.5664C322.94 44.9868 322.812 44.4068 322.591 43.8647C322.191 42.8762 321.565 41.9614 320.939 41.0874L320.863 40.9813C320.446 40.3984 319.917 39.6592 319.369 39.5924C318.894 39.5343 318.377 39.8203 317.86 40.1065L317.86 40.1067C317.635 40.231 317.411 40.3553 317.19 40.4515C317.305 40.5275 317.42 40.6031 317.535 40.6787C317.811 40.8589 318.086 41.0393 318.357 41.2273C318.503 41.3304 318.644 41.4543 318.759 41.5917C318.918 41.7788 319.088 41.961 319.257 42.1432L319.258 42.1437C319.671 42.588 320.084 43.033 320.348 43.5532C320.68 44.2033 320.86 44.9302 321.053 45.7107ZM298.289 72.2142L298.278 72.1919C298.185 72.1517 298.091 72.1435 298.026 72.1379C297.98 72.1339 297.949 72.1312 297.944 72.119C297.845 71.8419 297.76 71.5596 297.674 71.2772L297.643 71.1743L297.61 71.0671C297.572 71.1941 297.521 71.322 297.47 71.4499C297.357 71.7336 297.245 72.0173 297.266 72.2909C297.406 74.1691 297.577 75.986 298.499 77.7702C298.913 78.5731 299.073 79.5007 299.233 80.4331L299.233 80.4336C299.369 81.2211 299.505 82.012 299.795 82.7338L299.908 83.0146C300.437 84.3304 300.961 85.6356 301.219 87.0257C301.316 87.5468 301.202 88.1585 301.02 88.6691C300.807 89.2652 300.378 89.7432 299.947 90.2226C299.296 90.9465 298.643 91.6735 298.728 92.815C298.735 92.9179 298.639 93.0284 298.542 93.139L298.511 93.1749C298.476 93.2155 298.443 93.2559 298.416 93.2959C298.483 93.2709 298.552 93.2493 298.621 93.2278C298.782 93.1779 298.943 93.1279 299.07 93.0341C299.148 92.9781 299.194 92.8819 299.241 92.7856C299.285 92.6939 299.33 92.6022 299.401 92.5452C299.606 92.3828 299.812 92.2255 300.017 92.0693C301.238 91.1381 302.412 90.2437 302.96 88.4942C303.44 86.9647 303.274 85.7729 302.742 84.5074C302.44 83.7936 302.073 83.0967 301.707 82.4016L301.706 82.4007C301.05 81.1555 300.397 79.9157 300.129 78.5928C299.776 76.8399 299.365 75.1259 298.83 73.43C298.705 73.0363 298.516 72.6632 298.29 72.2155L298.29 72.2149L298.289 72.2142ZM338.074 130.058C337.495 129.94 336.972 129.818 336.469 129.7C336.188 129.634 335.913 129.57 335.638 129.509C335.463 129.47 335.288 129.43 335.113 129.39C334.397 129.227 333.681 129.063 332.956 128.955C332.564 128.897 332.165 128.885 331.765 128.873C331.47 128.864 331.174 128.855 330.882 128.828C330.44 128.787 329.974 128.741 329.577 128.569C329.222 128.417 328.896 128.201 328.569 127.985C328.429 127.892 328.288 127.799 328.145 127.711C328.329 127.703 328.514 127.698 328.699 127.693L328.7 127.693C329.132 127.682 329.564 127.671 329.991 127.621C330.201 127.596 330.409 127.535 330.617 127.473C330.892 127.392 331.165 127.311 331.439 127.317L331.73 127.324C333.587 127.37 335.447 127.415 337.293 127.6C338.491 127.721 339.677 127.976 340.861 128.231L340.861 128.231L340.862 128.231C341.142 128.291 341.422 128.351 341.702 128.41C342.74 128.626 343.769 128.886 344.798 129.145L344.798 129.145L344.799 129.145L344.799 129.145L344.799 129.145L344.8 129.145L345.147 129.233C346.066 129.464 346.978 129.71 347.891 129.958L348.27 130.06C348.402 130.096 348.529 130.146 348.655 130.197C348.715 130.22 348.774 130.244 348.833 130.266C348.786 130.33 348.739 130.413 348.692 130.496C348.589 130.677 348.486 130.858 348.384 130.858C347.893 130.854 347.402 130.943 346.91 131.032C345.885 131.218 344.855 131.404 343.815 130.757C343.629 130.642 343.415 130.665 343.171 130.692C342.859 130.726 342.499 130.766 342.085 130.532C341.35 130.117 340.387 130.109 339.377 130.101C338.947 130.097 338.508 130.093 338.074 130.058ZM120.374 176.81C135.957 174.852 148.95 173.22 148.917 172.797C148.915 172.771 148.937 172.701 148.968 172.599C149.169 171.94 149.778 169.945 147.091 169.911C135.556 169.764 102.067 173.693 70.5965 180.439C25.9445 189.594 0.219456 202.354 0.524844 203.223C0.663657 203.617 11.7666 200.361 25.3932 196.364L25.3934 196.364L25.3951 196.364L25.3965 196.363L25.3973 196.363C41.7483 191.567 61.7316 185.706 70.7657 183.809L71.7721 183.6C80.3886 181.834 102.152 179.1 120.374 176.81ZM82.3542 204.432C85.1868 204.432 89.2753 204.74 94.5069 206.514L95.8201 206.963C96.8202 207.309 98.6786 207.818 101.372 208.484C101.998 208.638 102.379 209.271 102.225 209.896C102.07 210.522 94.0921 208.837 94.0921 208.837C88.6986 206.999 86.5462 206.496 84.0254 206.607C81.5715 206.715 76.3866 208.62 72.449 210.066C69.6684 211.087 67.5098 211.88 67.3738 211.651C67.0455 211.096 67.4341 210.393 67.7831 210.052C71.3172 206.607 73.2755 205.635 82.3542 204.432ZM274.849 184.377C275.04 184.209 275.185 183.986 275.257 183.723C275.45 183.012 269.948 181.944 266.243 183.329C265.491 183.61 264.825 184.047 264.096 184.684C263.973 184.791 263.703 185.163 263.367 185.624L263.367 185.625C262.817 186.382 262.094 187.378 261.567 187.831C260.72 188.559 259.282 189.335 258.296 189.832C257.896 190.033 256.38 190.369 254.67 190.747L254.669 190.748L254.668 190.748C251.927 191.355 248.691 192.071 248.764 192.518C248.883 193.245 250.222 193.135 250.948 193.016C252.212 192.809 253.302 192.65 254.251 192.513L254.252 192.513C256.68 192.16 258.18 191.942 259.276 191.389C260.469 190.789 261.499 190.081 262.502 189.218C262.661 189.081 262.886 188.874 263.139 188.637L263.945 187.872C263.818 188.896 264.162 189.881 265.029 190.58L265.358 190.843C275.688 199.011 286.861 200.248 298.653 194.542L298.836 194.451L298.923 194.92C299.229 196.476 299.667 197.773 300.246 198.813C301.104 200.353 302.567 201.865 304.627 203.376L306.205 201.226L305.943 201.031C304.31 199.799 303.191 198.619 302.576 197.515C301.925 196.346 301.466 194.592 301.229 192.266L301.026 190.272L299.266 191.229L298.916 191.417C287.378 197.555 276.728 196.589 266.703 188.505C266.644 188.457 266.584 187.653 266.703 187.306C266.912 186.694 267.391 185.473 268.619 185.05C269.421 184.774 274.849 184.377 274.849 184.377ZM358.272 114.212L357.717 113.209C357.3 112.462 356.759 111.503 356.491 111.063L356.404 110.923C355.316 109.237 355.117 107.1 355.396 103.64L355.512 102.361L355.619 101.248C355.933 97.8207 355.853 96.5142 355.226 95.8393L355.131 95.7417C354.506 95.1388 353.776 95.1467 351.141 95.7319L350.498 95.8772C347.453 96.5751 345.439 96.745 343.112 96.1914L341.099 95.6912C340.586 95.5654 340.076 95.4412 339.711 95.3522C339.432 95.2843 339.238 95.2369 339.19 95.2249L338.645 95.0854C333.845 93.8282 331.826 92.4776 331.07 89.2064C330.89 88.4255 330.963 87.6182 331.247 86.6112L331.311 86.3923C331.495 85.7852 332.389 83.3751 332.389 83.3763C332.59 82.8052 332.76 82.2839 332.91 81.76L333.103 81.0792C333.266 80.4976 333.433 79.8796 333.608 79.2187L335.43 72.0873C335.757 70.83 336.036 69.7867 336.15 69.4349L336.667 67.9146L336.885 67.2982C337.027 66.9046 337.164 66.5418 337.305 66.1886C338.444 63.3359 339.652 61.5745 341.355 61.0881C342.925 60.6399 344.081 60.7011 345.346 61.2056C345.61 61.3108 346.294 61.6372 346.813 61.8848C347.093 62.018 347.324 62.1284 347.416 62.1692C348.684 62.7297 349.982 63.086 351.742 63.2627L352.078 63.2938C352.926 63.3658 353.624 63.2728 355.695 62.8201L357.181 62.4911C358.76 62.1482 359.794 61.9787 360.927 61.9081C361.955 61.8441 362.911 61.889 363.822 62.0611C365.321 62.3446 367.62 63.278 370.776 64.8674C371.269 65.1157 371.468 65.717 371.22 66.2103C370.971 66.7035 370.37 66.9021 369.877 66.6537L369.288 66.3601C366.593 65.0291 364.631 64.2495 363.45 64.0263C362.715 63.8872 361.922 63.85 361.051 63.9043C359.98 63.971 358.969 64.1434 357.318 64.5083L356.076 64.7843C353.87 65.2665 353.074 65.3744 352.015 65.2952L351.909 65.2866C349.749 65.1033 348.152 64.6815 346.607 63.9983L344.881 63.1847C344.762 63.13 344.665 63.0872 344.605 63.0632C343.75 62.7222 343.047 62.685 341.905 63.0113C341.021 63.2635 340.076 64.6419 339.162 66.9301C338.997 67.3448 338.836 67.7777 338.662 68.2682L338.057 70.0364C337.787 70.8208 335.823 78.6381 335.757 78.9075L335.436 80.1287C335.226 80.9121 335.026 81.6359 334.832 82.312C334.702 82.7644 334.56 83.2122 334.399 83.6838L334.274 84.0423C334.113 84.5004 333.969 84.907 333.841 85.2686C332.939 87.8129 332.83 88.1221 332.9 88.3831C332.91 88.4192 332.923 88.4544 332.938 88.4944C332.96 88.5533 332.986 88.6227 333.01 88.721L333.019 88.7563C333.568 91.1342 335.09 92.1151 339.422 93.2207L343.353 94.1904C345.33 94.7011 347.049 94.5948 349.736 93.9987L351.44 93.6127C352.574 93.3616 352.862 93.3293 353.515 93.3031C354.824 93.2507 355.873 93.5972 356.692 94.478C357.888 95.7659 357.999 97.2334 357.614 101.398L357.415 103.495L357.368 104.083C357.164 106.849 357.325 108.563 358.012 109.72L358.226 110.068C358.431 110.409 358.741 110.951 359.046 111.491L360.02 113.241L360.149 113.466C361.45 115.705 362.523 116.96 363.663 117.394L363.785 117.437C365.243 117.915 367.046 116.966 369.372 113.945L369.674 113.552C370.026 113.117 370.386 112.843 372.04 111.818L374.594 110.248L374.902 110.054C376.498 109.042 377.437 108.29 377.646 107.864C380.089 102.877 381.646 95.0923 381.176 86.2424C381.117 85.1331 380.527 83.4336 379.394 81.1941L379.259 80.9294L379.197 80.8941C376.522 79.3739 374.577 77.9297 373.352 76.5372L373.209 76.3704C371.954 74.8775 370.692 72.4411 369.392 69.0398C369.195 68.5239 369.454 67.9459 369.969 67.7487C370.485 67.5515 371.063 67.8099 371.261 68.3258C372.488 71.5367 373.658 73.7964 374.74 75.0836C375.736 76.2694 377.458 77.5797 379.897 78.9903L380.497 79.3307L380.757 79.476L380.895 79.7399C382.327 82.4748 383.091 84.5861 383.173 86.1364C383.661 95.3241 382.036 103.448 379.442 108.744C379.002 109.642 377.921 110.508 375.973 111.743L375.488 112.048L373.421 113.317C371.703 114.378 371.359 114.634 371.125 114.945C368.267 118.733 365.646 120.152 363.162 119.337C361.3 118.727 359.922 117.107 358.272 114.212ZM388.512 54.2297C388.01 53.9983 387.416 54.2172 387.185 54.7187C386.685 55.8019 385.904 56.4819 384.786 56.8119C383.984 57.0486 383.087 57.1851 381.989 57.2568C381.605 57.2819 381.276 57.2968 380.784 57.3108L379.096 57.354C376.39 57.4421 375.211 57.6709 374.029 58.5222C372.462 59.6512 371.804 63.2596 372.354 65.338L372.383 65.4517C372.403 65.53 372.423 65.6137 372.444 65.7053L372.511 66.0065C372.515 66.0265 372.531 66.1001 372.552 66.202C372.599 66.4237 372.674 66.7793 372.724 67.0076L372.818 67.4278C372.902 67.7906 372.986 68.1143 373.078 68.4298C373.449 69.6907 373.94 70.7119 374.662 71.5533C374.761 71.6693 375.04 72.1736 375.346 72.7504L376.397 74.7568C377.246 76.2528 378.128 77.3404 379.245 78.068C379.715 78.3746 380.146 78.5015 380.953 78.6469L381.312 78.7125C381.967 78.8349 382.277 78.9121 382.667 79.0645L382.97 79.1876C383.275 79.3041 383.633 79.3897 384.153 79.4802L384.523 79.5415C384.524 79.5416 385.404 79.6751 385.902 79.7547L386.44 79.8466C386.954 79.9401 387.409 80.0398 387.843 80.1571C388.266 80.2716 388.658 80.4006 389.022 80.5474L389.253 80.6377C389.622 80.7765 389.93 80.863 390.473 80.9909L390.976 81.1073C391.206 81.1613 391.37 81.204 391.517 81.2497L391.688 81.307C392.332 81.5382 392.878 81.9426 393.562 82.79C394.469 83.9119 394.469 84.438 393.772 84.9199C393.317 85.234 393.204 85.8569 393.518 86.3112C393.832 86.7654 394.455 86.879 394.909 86.5649C396.686 85.3359 396.686 83.4748 395.118 81.5334C394.211 80.4103 393.367 79.7845 392.363 79.4244C392.162 79.3525 391.978 79.2965 391.748 79.2374L391.448 79.1638L390.824 79.0187C390.435 78.9251 390.206 78.859 389.948 78.7622L389.502 78.5886C389.14 78.4537 388.762 78.334 388.365 78.2265C387.775 78.067 387.164 77.939 386.459 77.8194L384.542 77.5176C384.086 77.4391 383.808 77.3723 383.648 77.3049C383.028 77.0431 382.648 76.9328 381.87 76.7826L381.175 76.6541C380.713 76.5665 380.5 76.499 380.337 76.3924C379.54 75.873 375.27 68.7933 374.997 67.8656C374.896 67.5202 374.804 67.1546 374.707 66.7148L374.428 65.4099C374.403 65.2987 374.379 65.1965 374.356 65.1002L374.287 64.8263C373.927 63.463 374.431 60.6977 375.198 60.145C375.972 59.5873 376.977 59.4149 379.446 59.3444L380.855 59.3097C381.364 59.295 381.71 59.2793 382.119 59.2526L382.483 59.226C383.56 59.1392 384.486 58.9859 385.352 58.7301C387.026 58.2362 388.26 57.1607 389.001 55.5567C389.232 55.0553 389.013 54.4612 388.512 54.2297Z" fill="#00160A"/>
<path fill-rule="evenodd" clip-rule="evenodd" d="M154.889 158.198C155.257 157.477 155.57 156.848 156.008 156.323C156.45 155.791 157.01 155.354 157.537 154.898C157.589 154.853 157.88 154.966 157.878 154.996C157.87 155.155 157.852 155.362 157.749 155.46C156.966 156.205 156.9 157.195 156.661 158.17C156.398 159.238 156.664 160.074 157.151 160.964C157.475 161.558 157.712 162.21 157.915 162.858C158.342 164.225 158.765 165.596 159.106 166.986C159.337 167.923 159.549 168.893 159.558 169.851C159.603 174.678 159.577 179.506 159.579 184.333C159.581 186.8 159.546 189.267 159.618 191.731C159.642 192.535 160.077 193.329 160.091 194.131C160.102 194.779 159.777 195.438 159.563 196.08C159.532 196.172 159.202 196.278 159.154 196.231C158.815 195.897 158.247 195.529 158.242 195.164C158.198 192.328 158.307 189.49 158.278 186.654C158.265 185.374 157.971 184.099 157.939 182.818C157.864 179.834 158.2 176.797 157.74 173.88C157.381 171.601 157.468 169.431 157.503 167.191C157.511 166.688 156.108 166.06 155.271 165.672C154.183 165.167 153.491 165.842 152.976 166.747C152.929 166.829 152.734 166.869 152.734 166.929C152.708 172.199 152.674 177.47 152.695 182.741C152.701 184.266 152.877 185.79 152.952 187.316C152.98 187.888 152.92 188.185 153.797 188.051C155.281 187.825 157.229 190.018 156.8 191.269C156.469 192.233 155.87 193.105 155.538 194.068C154.788 196.243 153.15 198.346 153.872 200.708C154.421 202.502 155.609 204.179 156.822 205.655C157.305 206.242 158.628 206.118 159.552 206.378C159.864 206.466 160.228 206.684 160.369 206.949C160.461 207.122 160.262 207.575 160.061 207.729C159.94 207.823 159.565 207.58 159.303 207.495C158.872 207.354 158.448 207.147 158.006 207.095C155.927 206.855 155.812 206.728 154.867 204.413C154.529 203.583 153.894 202.877 153.534 202.053C153.195 201.276 153.003 200.427 152.814 199.593C152.633 198.79 152.391 197.958 152.444 197.156C152.506 196.211 152.782 195.258 153.105 194.36C153.393 193.558 153.889 192.832 154.249 192.052C154.29 191.961 154.076 191.701 153.928 191.595C153.847 191.537 153.625 191.599 153.514 191.675C152.438 192.409 151.925 193.593 151.245 194.631C151.021 194.972 151.09 195.506 151.027 195.952C150.934 196.619 150.755 197.289 150.77 197.954C150.798 199.184 150.661 200.522 151.095 201.616C151.997 203.889 152.872 206.289 154.714 207.98C155.391 208.604 156.517 208.902 157.646 209.054C159.134 209.252 160.545 208.822 162.004 208.987C162.671 209.065 163.396 208.483 164.094 208.485C164.945 208.488 165.611 208.022 166.364 207.9C167.224 207.76 167.934 207.39 168.684 207.034C169.908 206.455 171.235 206.041 172.352 205.304C173.345 204.648 174.103 203.64 174.981 202.805C176.335 201.514 177.478 200.089 178.387 198.428C178.788 197.697 179.423 197.141 179.161 196.215C179.12 196.071 179.018 195.841 178.931 195.835C178.738 195.822 178.474 195.863 178.348 195.991C175.478 198.887 172.679 201.857 169.727 204.667C168.931 205.423 167.687 205.718 166.633 206.195C166.046 206.46 165.418 206.631 164.829 206.891C163.545 207.453 162.527 206.67 161.433 206.262C161.484 206.149 161.514 205.958 161.589 205.936C163.372 205.462 165.178 205.067 166.937 204.518C167.751 204.264 168.511 203.773 169.224 203.285C169.915 202.813 170.486 202.171 171.159 201.668C173.673 199.787 175.731 197.573 176.716 194.499C176.982 193.667 178.773 193.139 179.803 193.446C180.423 193.631 181.132 193.616 181.678 193.915C182.027 194.108 182.402 194.758 182.334 195.121C181.967 197.06 180.751 198.498 179.395 199.878C178.494 200.795 177.937 202.062 177 202.929C175.412 204.397 173.755 205.848 171.925 206.979C170.075 208.124 168.021 208.976 165.979 209.752C164.515 210.306 162.94 210.717 161.386 210.847C158.733 211.07 156.123 210.858 153.77 209.283C152.296 208.295 151.302 206.927 150.535 205.448C150.105 204.62 150.518 203.373 150.142 202.49C149.395 200.737 149.257 198.939 149.414 197.133C149.521 195.901 150.285 194.704 150.289 193.49C150.294 192.126 151.297 191.457 151.735 190.427C151.823 190.22 151.587 189.896 151.586 189.626C151.574 186.545 151.58 183.465 151.578 180.384C151.576 178.834 151.673 177.272 151.523 175.736C151.435 174.843 150.882 174.005 150.662 173.111C150.55 172.657 150.74 172.135 150.746 171.643C150.761 170.248 150.624 168.839 150.783 167.462C150.982 165.729 151.465 164.031 151.726 162.303C151.872 161.338 151.82 160.342 151.854 159.36C151.921 157.428 152.316 155.52 153.662 154.131C154.712 153.047 155.968 152.022 157.712 152.017C158.14 152.016 158.724 151.242 158.962 151.363C159.503 151.639 160.028 152.19 160.241 152.75C160.335 152.999 159.729 153.646 159.315 153.927C158.579 154.426 157.72 154.408 156.821 154.37C155.345 154.306 153.998 156.238 153.429 157.934C152.962 159.325 153.676 160.564 153.358 161.889C153.263 162.284 154.041 162.898 154.449 163.386C154.491 163.437 154.869 163.32 154.87 163.278C154.879 162.442 154.936 161.594 154.816 160.773C154.703 159.995 154.179 159.215 155.15 158.626C155.063 158.529 154.976 158.432 154.889 158.198Z" fill="#FFB61D"/>
<path fill-rule="evenodd" clip-rule="evenodd" d="M209.513 221.374C209.254 222.784 208.978 224.053 208.75 225.328C208.713 225.54 208.944 225.786 208.952 226.02C209.022 228.026 208.656 230.009 208.591 232.015C208.56 232.978 208.646 234.032 208.381 234.978C208.054 236.151 208.527 237.69 207.026 238.38C206.447 238.644 205.597 239.147 205.259 238.931C204.604 238.515 203.516 238.286 203.688 237C203.839 235.869 203.523 234.661 203.764 233.566C204.175 231.692 203.738 229.803 204.061 227.982C204.257 226.878 204.045 225.777 204.301 224.735C204.714 223.052 204.652 221.338 204.875 219.653C205.086 218.05 205.214 216.442 205.423 214.847C205.64 213.197 205.765 211.542 205.989 209.906C206.189 208.441 206.156 206.891 206.577 205.536C206.951 204.335 206.074 202.951 207.246 201.914C207.406 201.771 206.986 201.095 207.05 200.702C207.583 197.43 207.166 194.139 207.334 190.863C207.345 190.632 207.71 190.3 207.973 190.222C208.798 189.978 209.647 189.793 210.499 189.677C210.697 189.65 211.142 189.992 211.139 190.158C211.088 192.97 210.926 195.781 210.912 198.593C210.903 200.623 211.126 202.653 211.147 204.684C211.157 205.671 210.917 206.662 210.834 207.655C210.747 208.687 211.069 209.669 210.462 210.769C210.004 211.597 210.406 212.877 210.329 213.948C210.186 215.951 210.064 217.964 209.715 219.934C209.642 220.351 209.485 220.781 209.513 221.374ZM205.651 235.858C206.104 236.542 206.08 236.523 206.498 236.002C206.99 235.386 206.617 234.669 206.777 234.046C207.209 232.368 207.102 230.649 207.306 228.958C207.47 227.601 207.703 226.246 207.777 224.886C207.871 223.129 207.689 221.347 207.903 219.609C208.086 218.116 208.028 216.618 208.557 215.101C209.093 213.561 208.863 211.754 208.958 210.063C208.981 209.649 208.806 209.139 208.99 208.838C209.617 207.815 209.056 206.747 209.21 205.715C209.23 205.577 208.88 205.387 208.701 205.219C208.598 205.415 208.433 205.599 208.403 205.806C208.205 207.155 207.982 208.502 207.871 209.859C207.725 211.661 207.674 213.473 207.583 215.28C207.576 215.418 207.639 215.6 207.573 215.688C206.826 216.69 207.405 217.884 207.066 219.007C206.638 220.425 206.83 222.031 206.755 223.557C206.753 223.603 206.762 223.65 206.753 223.695C206.527 224.762 206.243 225.824 206.09 226.903C205.967 227.769 206.474 228.561 205.773 229.568C205.24 230.335 205.706 231.764 205.632 232.89C205.587 233.571 205.317 234.236 205.239 234.92C205.216 235.122 205.505 235.362 205.651 235.858ZM209.237 198.062C209.267 197.297 209.298 196.532 209.323 195.767C209.327 195.659 209.301 195.456 209.287 195.456C209.112 195.454 208.794 195.455 208.785 195.506C208.645 196.271 208.516 197.041 208.468 197.816C208.461 197.93 208.878 198.072 209.237 198.062Z" fill="#00160A"/>
<path fill-rule="evenodd" clip-rule="evenodd" d="M155.372 201.856C155.31 201.327 155.318 200.867 155.326 200.407C155.702 200.516 156.123 200.55 156.448 200.745C158.158 201.769 159.836 202.847 161.546 203.871C161.844 204.05 162.238 204.092 162.595 204.143C162.869 204.182 163.156 204.136 163.437 204.128C163.168 204.359 162.846 204.83 162.638 204.783C161.335 204.495 159.784 205.555 158.699 204.089C158.678 204.061 158.558 204.07 158.512 204.101C158.025 204.442 157.479 205.111 156.934 204.464C156.311 203.722 155.928 202.78 155.372 201.856Z" fill="#00160A"/>
<defs>
<linearGradient id="paint0_linear" x1="444.572" y1="148.714" x2="11.7144" y2="148.714" gradientUnits="userSpaceOnUse">
<stop stop-color="#7EE8FF"/>
<stop offset="1" stop-color="#FFF066"/>
</linearGradient>
<linearGradient id="paint1_linear" x1="444.572" y1="148.714" x2="11.7144" y2="148.714" gradientUnits="userSpaceOnUse">
<stop stop-color="#7EE8FF"/>
<stop offset="1" stop-color="#FFF066"/>
</linearGradient>
</defs>
</svg>
