<svg width="25" height="26" viewBox="0 0 25 26" fill="none" xmlns="http://www.w3.org/2000/svg">
<path d="M6.76719 0.132324C3.03555 0.132324 0 3.1974 0 6.96535C0 8.12299 0 17.3849 0 18.5425C0 22.3101 3.03555 25.3755 6.76719 25.3755C7.91367 25.3755 17.0863 25.3755 18.2328 25.3755C21.9641 25.3755 25 22.3101 25 18.5425C25 17.3849 25 8.12299 25 6.96535C25 3.1974 21.9641 0.132324 18.2328 0.132324C18.2328 0.132324 7.91367 0.132324 6.76719 0.132324ZM23.5344 18.5425C23.5344 21.4944 21.1562 23.8957 18.2328 23.8957C17.0863 23.8957 7.91367 23.8957 6.76719 23.8957C3.84375 23.8957 1.46563 21.4944 1.46563 18.5425C1.46563 17.3849 1.46563 8.12299 1.46563 6.96535C1.46563 4.01347 3.84375 1.61221 6.76719 1.61221C7.91367 1.61221 17.0863 1.61221 18.2328 1.61221C21.1562 1.61221 23.5344 4.01347 23.5344 6.96535C23.5344 9.28102 23.5344 16.2272 23.5344 18.5425Z" fill="white"/>
<path d="M5.66406 12.7538C5.66406 16.5596 8.73087 19.6559 12.5 19.6559C16.2692 19.6559 19.3356 16.5596 19.3356 12.7538C19.3356 8.94797 16.2692 5.85132 12.5 5.85132C8.73087 5.85132 5.66406 8.94797 5.66406 12.7538ZM7.12969 12.7538C7.12969 9.76404 9.53907 7.33121 12.5 7.33121C15.461 7.33121 17.87 9.76404 17.87 12.7538C17.87 15.7436 15.461 18.176 12.5 18.176C9.53907 18.176 7.12969 15.7436 7.12969 12.7538Z" fill="white"/>
<path d="M17.4795 5.44019C17.4795 6.56468 18.3853 7.47974 19.4994 7.47974C20.6131 7.47974 21.5193 6.56468 21.5193 5.44019C21.5193 4.3153 20.6131 3.40063 19.4994 3.40063C18.3853 3.40063 17.4795 4.3153 17.4795 5.44019ZM18.9451 5.44019C18.9451 5.13135 19.1939 4.8805 19.4994 4.8805C19.8053 4.8805 20.0537 5.13135 20.0537 5.44019C20.0537 5.74862 19.8053 5.99947 19.4994 5.99947C19.1939 5.99947 18.9451 5.74862 18.9451 5.44019Z" fill="white"/>
</svg>
