<svg width="500" height="500" viewBox="0 0 500 500" fill="none" xmlns="http://www.w3.org/2000/svg">
<path fill-rule="evenodd" clip-rule="evenodd" d="M269.98 433.902C359.712 433.902 372.432 393.982 386.038 386.646C399.643 379.311 391.185 364.589 400.108 353.485C414.361 335.749 423 344.889 427.717 321.88C432.434 298.871 423.859 292.362 423.859 271.82C423.859 230.662 443.575 211.179 418.397 189.645C393.219 168.111 351.174 170.652 309.589 170.652C232.405 170.652 186.166 64.8444 83.2209 96.5878C47.7438 107.527 51.6648 122.435 59.4601 175.119C62.8452 197.997 37.2864 227.084 41.721 253.083C49.8202 300.566 71.2106 294.125 111.569 326.184C118.34 331.563 128.215 331.507 135.597 337.023C147.972 346.271 148.767 360.651 171.902 370.351C209.207 385.991 206.043 433.902 269.98 433.902Z" fill="#E4E4E4"/>
<path fill-rule="evenodd" clip-rule="evenodd" d="M269.98 433.902C359.712 433.902 372.432 393.982 386.038 386.646C399.643 379.311 391.185 364.589 400.108 353.485C414.361 335.749 423 344.889 427.717 321.88C432.434 298.871 423.859 292.362 423.859 271.82C423.859 230.662 443.575 211.179 418.397 189.645C393.219 168.111 351.174 170.652 309.589 170.652C232.405 170.652 186.166 64.8444 83.2209 96.5878C47.7438 107.527 51.6648 122.435 59.4601 175.119C62.8452 197.997 37.2864 227.084 41.721 253.083C49.8202 300.566 71.2106 294.125 111.569 326.184C118.34 331.563 128.215 331.507 135.597 337.023C147.972 346.271 148.767 360.651 171.902 370.351C209.207 385.991 206.043 433.902 269.98 433.902Z" fill="url(#paint0_linear)"/>
<ellipse cx="98.4377" cy="311.333" rx="22.6865" ry="21.3333" fill="#F8F8F8"/>
<path fill-rule="evenodd" clip-rule="evenodd" d="M89.541 235.271C85.6735 225.612 89.0518 219.825 91.2173 212.271C93.0261 205.96 107.172 195.71 113.682 206.398C115.597 209.543 114.829 212.515 119.015 215.278C129.148 221.968 123.62 208.089 123.997 204.581C124.181 202.869 122.735 198.922 123.273 197.271C123.838 195.538 126.848 193.075 126.848 189.483C126.848 185.89 120.724 184.507 119.015 183.624C103.823 175.78 94.1613 162.679 98.9761 156.03C105.684 146.767 131.975 161.342 139.875 162.679C139.977 162.697 141.388 155.332 142.54 153.645C144.845 150.271 147.393 146.996 150.433 144.265C151.795 143.041 153.64 142.286 155.454 142.041C160.883 141.309 166.437 140.708 171.875 141.372C173.797 141.606 185.24 128.362 189.702 124.09C223.935 91.3135 292.56 131.255 255.153 185.53C248.278 195.505 239.486 198.678 238.351 202.203C235.829 210.035 251.706 209.005 258.431 209.841C269.921 211.27 275.584 217.173 268.451 227.289C264.008 233.591 237.942 233.269 226.523 228.712C222.285 227.021 217.048 219.625 213.042 225.692C210.283 229.872 199.522 238.74 187.979 243.757C182.769 246.021 176.835 244.657 172.389 246.679C166.131 249.525 147.656 261.476 139.875 261.474C132.038 261.471 121.897 252.04 120.724 251.422C118.936 250.479 105.103 247.776 98.2696 237.231C96.2031 234.042 90.9567 238.806 89.541 235.271Z" fill="#F8F8F8"/>
<ellipse cx="222.596" cy="179.279" rx="2.40321" ry="2.36885" fill="#FFB61D"/>
<circle cx="205" cy="174.333" r="2.33333" fill="#FFB61D"/>
<ellipse cx="375" cy="172.333" rx="31.6667" ry="31.6667" fill="#F8F8F8"/>
<ellipse cx="275.983" cy="351.981" rx="92.0167" ry="78.6472" fill="#F8F8F8"/>
<path fill-rule="evenodd" clip-rule="evenodd" d="M197.974 394.864L199.007 395.611C196.676 397.703 193.17 395.102 191.204 392.664C188.043 388.745 184.834 384.579 183.872 379.636C183.325 376.824 183.544 373.926 183.765 371.069L184.657 359.551C185.052 354.446 185.448 349.333 186.332 344.29C188.723 330.642 194.743 317.647 203.607 306.998L203.696 306.891C205.261 305.011 206.97 302.959 206.94 300.522C206.876 295.365 209.846 290.547 213.744 287.171C217.643 283.796 222.417 281.63 227.118 279.51C229.247 278.549 232.028 277.689 233.679 279.342C237.073 282.743 242.739 280.576 247.223 278.849C252.728 276.729 258.608 275.586 264.507 275.491C264.679 275.488 264.852 275.486 265.026 275.483C268.568 275.433 272.554 275.376 274.715 272.632C276.09 270.885 278.721 270.986 280.929 271.25L296.115 273.066C297.276 273.205 298.666 273.522 299.032 274.632C300.013 277.608 303.474 278.823 306.474 279.727C317.141 282.943 327.566 287.31 336.622 293.799C345.677 300.289 353.331 309.018 357.392 319.392C350.789 310.367 344.015 301.172 334.851 294.763C332.229 292.929 329.44 291.346 326.609 289.853C319.927 286.331 312.972 283.294 305.748 281.089C272.211 270.853 233.416 280.347 208.396 304.914C204.768 308.476 201.367 312.399 199.31 317.049L202.027 317.892C197.72 319.817 194.52 324.036 193.828 328.703C195.561 325.734 198.032 323.199 200.956 321.389C200.119 324.185 197.943 326.431 195.809 328.633C193.09 331.439 190.44 334.174 190.722 337.882C192.013 334.494 195.265 331.936 198.862 331.48C193.156 337.055 187.034 343.597 187.216 351.572C189.297 346.967 192.831 343.031 197.186 340.468L190.916 348.894C188.545 352.08 186.048 355.721 186.59 359.656C188.653 355.954 191.602 352.75 195.121 350.389C193.426 354.242 191.007 357.775 188.027 360.749C190.861 360.407 193.589 359.233 195.786 357.411C194.865 358.696 194.035 360.148 194.004 361.729C193.973 363.31 194.998 365.007 196.563 365.235C197.037 364.175 198.523 363.728 199.503 364.35C196.533 367.24 196.502 372.595 199.439 375.519C199.7 374.145 200.86 372.987 202.234 372.727C200.043 376.558 199.649 381.368 201.188 385.504C201.653 383.161 202.954 380.992 204.801 379.477C203.736 385.036 201.381 390.344 197.974 394.864ZM196.677 393.093C198.532 393.074 199.685 390.999 199.879 389.154C200.11 386.947 199.562 384.741 199.018 382.589L195.791 369.828C195.184 370.02 195.113 370.681 195.04 371.373C194.977 371.964 194.911 372.577 194.507 372.941C193.69 371.925 193.598 370.388 194.286 369.281C194.982 368.164 194.527 366.6 193.54 365.729C192.554 364.858 191.182 364.563 189.866 364.519C189.156 364.496 188.4 364.551 187.818 364.96C187.237 365.369 186.931 366.239 187.344 366.818C188.574 368.541 189.499 370.481 190.064 372.521C190.106 372.673 190.147 372.827 190.188 372.982L190.188 372.983C190.469 374.042 190.758 375.131 191.532 375.886C192.131 376.469 192.284 377.36 192.406 378.188L193.392 384.893C193.571 386.114 193.75 387.358 193.545 388.575C193.34 389.791 192.682 390.997 191.579 391.55L195.102 392.748C195.613 392.922 196.137 393.098 196.677 393.093ZM235.08 283.18C234.385 283.327 233.803 282.717 233.306 282.196L233.249 282.137C232.74 281.604 231.864 281.14 231.327 281.645C225.074 287.528 217.958 292.492 210.278 296.329C208.884 297.026 208.697 298.903 208.696 300.462C208.695 300.982 209.194 301.713 209.519 301.306C211.102 299.322 213.162 297.781 215.197 296.264C220.924 291.994 226.719 287.684 233.285 284.869C234.081 284.528 235.014 284.045 235.08 283.18ZM297.929 276.564C297.574 275.733 296.566 275.433 295.678 275.265C293.258 274.809 290.794 274.603 288.333 274.396C284.953 274.113 281.578 273.83 278.326 272.902C277.284 272.604 276.392 273.66 275.821 274.581C277.535 274.403 279.26 274.329 280.983 274.361C283.982 274.416 286.965 274.789 289.941 275.162C291.454 275.352 292.977 275.544 294.427 276.013C294.596 276.068 294.766 276.126 294.938 276.185C295.928 276.525 296.951 276.876 297.929 276.564ZM265.914 289.346C266.599 289.503 267.252 290.015 267.355 290.711C267.457 291.405 266.983 292.081 266.377 292.434C265.771 292.787 265.055 292.886 264.36 292.978L262.267 293.256C262.058 293.283 261.841 293.313 261.659 293.421C261.133 293.733 261.17 294.577 261.6 295.011C262.03 295.445 262.689 295.553 263.301 295.552C266.148 295.547 268.842 293.498 269.712 290.787C269.918 290.144 270.028 289.428 269.772 288.802C269.642 288.485 269.426 288.209 269.185 287.965C268.065 286.831 266.397 286.33 264.807 286.443C263.217 286.555 261.704 287.232 260.41 288.163C259.79 288.61 259.199 289.132 258.847 289.81C258.494 290.488 258.419 291.349 258.813 292.003C258.964 292.253 259.196 292.474 259.483 292.521C259.771 292.568 260.103 292.382 260.139 292.093C260.238 291.289 260.825 290.61 261.524 290.201C262.223 289.793 263.03 289.613 263.824 289.454C264.513 289.316 265.229 289.19 265.914 289.346ZM209.811 329.112C210.593 324.485 214.331 320.724 218.687 318.981C221.088 318.02 223.835 317.599 226.25 318.524C226.846 318.753 227.422 319.068 227.852 319.54C228.255 319.984 228.509 320.543 228.701 321.111C229.927 324.75 228.682 328.957 226.047 331.75C223.412 334.542 219.575 336.007 215.745 336.281C214.518 336.369 213.201 336.32 212.187 335.622C211.174 334.925 210.671 333.376 211.451 332.425C211.82 332.443 212.019 332.772 212.222 333.109L212.222 333.109C212.323 333.276 212.425 333.445 212.55 333.579C212.975 334.036 213.679 334.069 214.303 334.043C217.018 333.929 219.775 333.256 221.985 331.674C224.195 330.093 225.784 327.509 225.737 324.792C225.722 323.916 225.532 323.02 225.036 322.298C224.221 321.114 222.682 320.579 221.247 320.674C219.813 320.768 218.468 321.404 217.247 322.163C215.64 323.16 214.155 324.414 213.147 326.015C212.14 327.616 211.647 329.595 212.073 331.438C211.697 332.117 210.577 331.981 210.115 331.357C209.653 330.733 209.681 329.878 209.811 329.112ZM234.82 367.246C232.833 368.524 231.186 370.525 230.879 372.868C230.632 374.763 231.267 376.65 231.893 378.456C232.381 379.866 232.886 381.305 233.817 382.471C235.497 384.577 238.28 385.448 240.94 385.876C241.665 385.993 242.764 385.666 242.505 384.979C239.697 384.927 236.934 383.626 235.107 381.493C233.279 379.36 232.416 376.431 232.795 373.647C232.875 373.062 233.008 372.479 233.254 371.942C233.752 370.855 234.679 370.019 235.683 369.37C237.845 367.973 240.476 367.319 243.04 367.54C245.512 367.754 247.981 368.837 249.49 370.807C250.999 372.776 251.358 375.682 250.027 377.775C249.81 378.115 249.652 378.717 250.049 378.788C252.193 377.633 253.383 375.087 253.263 372.655C253.142 370.223 251.858 367.947 250.094 366.269C249.118 365.341 247.962 364.557 246.653 364.241C244.927 363.825 243.121 364.254 241.404 364.706C239.119 365.307 236.807 365.968 234.82 367.246ZM332.392 370.267C325.208 367.584 317.401 366.585 309.773 367.37C306.574 367.699 303.365 368.352 300.49 369.791C295.064 372.507 291.185 378.097 290.539 384.13C289.894 390.163 292.503 396.447 297.231 400.249C299.024 401.691 301.06 402.77 303.098 403.851L303.098 403.851C304.489 404.589 305.882 405.328 307.199 406.183C307.576 406.542 306.729 406.901 306.233 406.742C301.625 405.254 297.15 402.992 293.864 399.436C289.865 395.111 287.915 388.968 288.686 383.128C289.457 377.288 292.935 371.862 297.92 368.723C301.863 366.24 306.576 365.194 311.233 365.026C315.889 364.858 320.532 365.524 325.136 366.237C328.012 366.683 331.384 367.537 332.392 370.267ZM256.799 379.268C256.473 378.521 255.161 378.326 254.921 379.106C253.397 384.065 248.558 387.815 243.375 388.053C242.204 388.106 241.031 387.998 239.864 387.885C237.35 387.641 234.757 387.354 232.556 386.116C229.39 384.336 227.485 380.681 227.462 377.049C227.44 373.417 229.163 369.888 231.778 367.368C231.416 366.351 229.856 366.843 229.082 367.595C224.792 371.765 224.056 378.962 227.066 384.133C230.077 389.303 236.385 392.201 242.332 391.544C248.278 390.887 253.647 386.905 256.412 381.599C256.789 380.876 257.125 380.016 256.799 379.268ZM219.56 404.382C218.591 408.097 218.499 412.037 219.293 415.793C219.65 417.478 219.689 418.406 219.696 418.58C219.697 418.6 219.697 418.61 219.698 418.61C219.698 418.61 219.699 418.6 219.699 418.58C219.707 418.406 219.75 417.474 220.114 415.787C220.926 412.024 220.733 408.048 219.56 404.382ZM224.706 406.629C223.33 409.513 223.501 413.083 225.146 415.823C225.515 416.439 225.796 416.939 226.002 417.308L226.003 417.308C226.281 417.805 226.426 418.064 226.476 418.047C226.531 418.028 226.473 417.68 226.351 416.952C226.302 416.66 226.242 416.307 226.176 415.889L224.706 406.629ZM228.581 410.312C227.997 412.154 228.427 414.284 229.68 415.755C230.959 417.257 231.376 417.739 230.987 415.805C230.589 413.83 229.763 411.944 228.581 410.312ZM340.719 389.362C338.962 396.416 333.35 401.761 327.908 406.581C328.157 407.117 328.96 406.925 329.475 406.635C334.987 403.532 339.448 398.476 341.483 392.487C343.518 386.498 343.012 379.618 339.8 374.169C339.53 373.711 339.186 373.224 338.665 373.122C338.144 373.02 337.544 373.625 337.85 374.058C340.938 378.431 342.013 384.168 340.719 389.362ZM261.47 325.672C261.457 324.556 261.473 323.349 262.147 322.459C263.074 321.234 264.835 321.106 266.371 321.084C267.057 321.075 267.751 321.066 268.418 321.225C269.838 321.563 270.97 322.611 271.978 323.667C272.201 323.901 272.439 324.189 272.384 324.508C272.315 324.903 271.82 325.085 271.427 325.004C271.166 324.95 270.932 324.82 270.697 324.69L270.697 324.69C270.579 324.624 270.46 324.559 270.338 324.503C268.925 323.854 267.265 324.565 265.996 325.463C265.797 325.604 265.582 325.785 265.577 326.029C265.572 326.275 265.782 326.465 265.98 326.61C267.695 327.866 269.89 328.447 272.001 328.205C272.506 328.147 273.099 327.962 273.23 327.471C273.282 327.279 273.262 327.053 273.242 326.835C273.21 326.47 273.18 326.127 273.487 326.001C273.646 325.935 273.828 325.982 273.993 326.03C275.136 326.363 276.473 326.897 276.694 328.067C276.758 328.404 276.712 328.757 276.605 329.083C276.29 330.039 275.413 330.786 274.419 330.944C273.978 331.014 273.527 330.976 273.082 330.938C271.919 330.838 270.754 330.738 269.602 330.552C267.486 330.211 265.416 329.581 263.469 328.684C262.794 328.372 262.092 327.99 261.749 327.329C261.489 326.827 261.477 326.238 261.47 325.672ZM304.936 298.156C304.256 296.317 302.613 294.866 300.704 294.42C300.113 294.281 299.446 294.247 298.946 294.589C298.445 294.932 298.273 295.766 298.75 296.14C299.213 296.502 298.933 297.356 298.368 297.517C297.802 297.678 297.193 297.294 296.911 296.778C296.628 296.262 296.598 295.65 296.595 295.061C296.591 294.276 296.662 293.401 297.242 292.872C297.463 292.67 297.738 292.54 298.011 292.418C299.141 291.913 300.39 291.485 301.597 291.756C302.747 292.014 303.665 292.864 304.467 293.728C305.124 294.436 305.747 295.178 306.33 295.949C306.844 296.628 307.338 297.353 307.531 298.183C307.724 299.012 307.558 299.975 306.917 300.536C306.289 301.085 305.324 301.132 304.562 300.793C303.889 300.493 303.315 299.834 303.365 299.099C303.415 298.364 304.318 297.755 304.936 298.156ZM311.006 349.842C312.693 349.793 314.265 348.494 314.63 346.846C314.851 345.844 314.578 344.652 313.704 344.113C313.067 343.719 312.264 343.748 311.516 343.796C310.48 343.862 309.405 343.953 308.505 344.47C307.605 344.987 306.935 346.059 307.217 347.058C307.676 348.683 309.319 349.89 311.006 349.842ZM311.223 347.407C310.897 347.495 310.432 347.411 310.402 347.075C310.39 346.935 310.465 346.803 310.551 346.691C311.031 346.071 311.944 345.83 312.667 346.133C312.416 346.749 311.865 347.234 311.223 347.407ZM312.094 322.443C311.82 321.809 312.352 321.07 312.999 320.827C313.517 320.633 314.079 320.653 314.638 320.673H314.638H314.638C314.777 320.678 314.915 320.683 315.053 320.685C315.744 320.693 316.508 320.578 316.956 320.052C317.114 319.867 317.221 319.594 317.101 319.382C316.975 319.161 316.677 319.123 316.423 319.109C314.662 319.018 312.582 319.072 311.567 320.514C311.348 320.824 310.814 320.72 310.61 320.4C310.406 320.08 310.453 319.661 310.569 319.3C310.985 318.008 312.179 317.068 313.483 316.691C314.787 316.314 316.188 316.433 317.511 316.733C317.958 316.834 318.421 316.967 318.747 317.288C319.006 317.543 319.151 317.892 319.245 318.243C319.696 319.92 319.03 321.84 317.638 322.878C316.246 323.915 314.215 324.005 312.738 323.093C312.474 322.931 312.217 322.727 312.094 322.443ZM306.057 352.069C306.875 353.049 307.844 353.94 309.019 354.439C311.394 355.448 314.43 354.516 315.832 352.349C316.342 351.56 316.57 350.356 315.815 349.796C314.607 352.336 311.102 353.458 308.643 352.091C308.172 351.83 307.744 351.495 307.354 351.122C305.586 349.429 304.664 346.665 305.701 344.447C306.04 343.725 306.559 343.101 307.127 342.54C308.365 341.317 310.138 340.316 311.791 340.86C311.859 340.883 311.928 340.908 311.996 340.933L311.996 340.933C312.228 341.018 312.46 341.104 312.704 341.09C313.019 341.071 313.349 340.789 313.268 340.483C313.244 340.393 313.188 340.315 313.13 340.241C312.108 338.939 310.102 338.537 308.658 339.344C306.938 340.305 305.19 341.436 304.276 343.181C302.787 346.021 304.003 349.608 306.057 352.069ZM333.446 308.269C333.371 308.377 333.39 308.528 333.408 308.673C333.429 308.844 333.449 309.006 333.309 309.075C332.794 309.329 332.178 309.303 331.629 309.135C330.132 308.675 329.128 307.301 328.28 305.983C327.785 305.213 327.291 304.394 327.211 303.482C327.131 302.569 327.598 301.541 328.477 301.283C329.457 300.996 330.418 301.724 331.181 302.404C332.042 303.17 332.921 303.96 333.454 304.981C333.986 306.003 334.105 307.323 333.446 308.269ZM330.632 305.606L330.632 305.607C330.746 305.878 330.86 306.15 331.066 306.355C331.326 306.615 331.721 306.731 332.081 306.654C331.407 305.612 330.627 304.639 329.756 303.755C329.523 303.825 329.504 304.171 329.644 304.369C329.729 304.49 329.848 304.579 329.967 304.668C330.044 304.725 330.121 304.783 330.19 304.85C330.401 305.055 330.517 305.331 330.632 305.606ZM201.983 399.005C201.9 400.373 202.005 401.957 203.099 402.781C203.464 402.578 203.439 402.056 203.393 401.641C203.111 399.085 203.904 396.621 204.702 394.141C205.274 392.365 205.848 390.581 206.032 388.749C206.086 388.218 205.944 387.49 205.41 387.47C205.01 387.455 204.752 387.877 204.591 388.243C203.096 391.639 202.208 395.301 201.983 399.005ZM308.161 349.68C309.396 350.226 310.765 350.783 312.058 350.391C312.572 350.235 313.029 349.938 313.48 349.644C313.477 350.4 312.828 351.034 312.104 351.25C311.38 351.466 310.602 351.35 309.863 351.191C309.043 351.013 308.04 350.51 308.161 349.68ZM210.469 412.724C210.784 412.163 210.838 411.497 210.884 410.855L211.257 405.742C211.44 403.232 211.623 400.713 211.459 398.202C211.439 397.886 211.406 397.552 211.222 397.294C211.037 397.036 210.646 396.899 210.394 397.09C210.208 397.231 210.16 397.486 210.128 397.717C209.724 400.62 209.507 403.55 209.481 406.481C209.462 408.607 209.559 410.803 210.469 412.724ZM204.88 408.329C204.553 408.606 204.007 408.363 203.827 407.974C203.646 407.585 203.719 407.131 203.797 406.709C204.606 402.296 205.524 397.903 206.549 393.535C206.575 393.426 206.603 393.312 206.673 393.225C206.943 392.891 207.489 393.227 207.681 393.611C208.151 394.553 207.926 395.678 207.69 396.704L205.163 407.728C205.112 407.948 205.053 408.184 204.88 408.329ZM213.634 408.525C213.493 410.181 213.742 411.841 213.989 413.484C214.077 414.069 214.498 414.846 215.027 414.58L216.057 403.567C216.099 403.119 216.127 402.622 215.849 402.269C215.571 401.915 214.868 401.929 214.779 402.37L214.02 406.147C213.861 406.935 213.703 407.725 213.634 408.525ZM319.979 374.773C317.047 373.264 313.478 372.669 310.433 373.933C308.158 374.878 301.729 378.958 300.873 384.187C300.3 387.688 300.306 391.265 301.531 394.645L301.729 395.175C302.093 396.132 303.256 397.233 303.906 396.441C302.008 393.01 301.653 388.762 302.956 385.064C304.259 381.366 307.198 378.278 310.827 376.794C311.591 376.481 312.388 376.236 313.21 376.158C314.871 376.001 316.529 376.539 318.014 377.3C321.211 378.938 325.172 381.662 326.694 384.916C328.161 388.053 329.241 391.794 327.913 394.993C326.586 398.192 317.864 400.506 317.864 400.506L318.829 402.267C318.829 402.267 323.712 401.304 326.694 399.132C339.211 390.015 322.784 376.217 319.979 374.773Z" fill="#00160A"/>
<path fill-rule="evenodd" clip-rule="evenodd" d="M98.7006 329.758C94.2735 330.233 89.5845 329.209 86.1279 326.402C83.6798 324.415 81.9596 321.65 80.7526 318.736C79.4421 315.574 78.6887 312.181 78.5372 308.761C78.4802 307.473 78.5108 306.161 78.8892 304.929C79.512 302.902 81.0118 301.274 82.5428 299.806C85.7999 296.682 89.6283 293.832 94.0932 293.175C97.1357 292.727 100.231 293.337 103.209 294.104C105.548 294.706 107.884 295.415 109.988 296.602C114.636 299.223 117.858 304.222 118.324 309.538C118.79 314.855 118.217 318.378 111.042 324.983C107.314 327.417 103.128 329.283 98.7006 329.758ZM106.508 313.07C105.79 313.295 105.074 313.696 104.333 313.566C102.818 313.299 102.547 311.222 102.884 309.721C103.846 305.426 106.84 301.633 110.794 299.699C109.899 298.076 107.521 297.956 105.84 298.737C104.158 299.517 102.843 300.923 101.217 301.813C100.408 302.256 99.4487 302.569 98.5683 302.294C97.1196 301.84 96.5666 299.942 97.0409 298.5C97.5151 297.058 98.6988 295.982 99.8354 294.976C95.7169 295.12 91.6417 296.356 88.137 298.524C85.3934 300.221 82.7909 303.004 83.1549 306.209C85.4234 304.383 88.0868 303.05 90.9082 302.329C91.5067 302.177 92.2578 302.1 92.6323 302.591C92.9159 302.963 92.8345 303.498 92.6527 303.929C91.7509 306.068 89.0988 306.785 87.4539 308.423C87.2379 308.638 87.0307 308.886 86.9785 309.187C86.876 309.775 87.4368 310.312 88.026 310.41C88.6151 310.508 89.2066 310.294 89.7655 310.083C90.9261 309.645 92.0868 309.207 93.2474 308.769C94.0876 308.452 95.0852 308.15 95.8324 308.648C96.6054 309.163 96.6782 310.335 96.2413 311.155C95.8045 311.975 95.0026 312.525 94.2308 313.042C92.3707 314.289 90.5106 315.536 88.6505 316.782C87.0931 317.826 85.3483 319.233 85.4963 321.102C85.6357 322.862 87.571 324.057 89.3322 323.944C91.0933 323.831 92.6432 322.754 93.943 321.561C95.2428 320.367 96.416 319.004 97.9254 318.09C98.9104 317.493 100.316 317.162 101.116 317.99C101.734 318.63 101.674 319.658 101.442 320.517C100.774 322.993 98.9659 325.136 96.6382 326.212C98.532 326.649 100.507 326.731 102.431 326.454C103.528 326.295 104.663 325.991 105.457 325.217C106.25 324.443 106.557 323.08 105.869 322.211C104.842 320.915 104.883 319.019 105.539 317.501C106.195 315.983 107.366 314.758 108.514 313.568C108.185 312.89 107.226 312.844 106.508 313.07ZM115.275 316.012C116.306 313.628 116.344 310.932 116.083 308.348C115.794 305.49 114.798 302.222 112.105 301.221C108.16 302.859 105.115 306.512 104.216 310.688C104.14 311.039 104.081 311.416 104.219 311.747C104.357 312.079 104.767 312.32 105.085 312.154C106.176 311.582 107.518 311.258 108.626 311.793C109.735 312.329 110.275 314 109.377 314.843C108.385 315.774 107.366 316.743 106.831 317.994C106.296 319.244 106.373 320.864 107.381 321.778C108.138 322.465 108.14 323.814 107.385 324.503C109.532 323.876 111.062 322.029 112.455 320.278C113.519 318.94 114.596 317.581 115.275 316.012ZM90.5548 303.685C88.3211 304.611 86.1528 305.695 84.0716 306.927C83.5767 307.22 83.0764 307.53 82.7145 307.977C82.2259 308.58 82.0402 309.368 81.8892 310.129C81.4013 312.59 81.1498 315.24 82.1833 317.526C82.5131 318.256 82.9641 318.923 83.4127 319.587C83.5451 319.782 83.6954 319.992 83.9224 320.058C84.1494 320.123 84.4492 319.94 84.3959 319.71C84.2316 319.001 84.769 318.333 85.2994 317.834C88.4058 314.91 92.5908 313.231 95.3842 310.007C94.9605 309.505 94.1567 309.741 93.5524 309.999C92.1133 310.613 90.6294 311.123 89.1164 311.522C88.336 311.728 87.4661 311.895 86.7538 311.516C85.7113 310.96 85.5416 309.439 86.0923 308.394C86.643 307.349 87.6897 306.674 88.6993 306.061C89.7089 305.447 90.768 304.807 91.3737 303.792C91.2635 303.504 90.8402 303.566 90.5548 303.685ZM98.1998 323.272C99.187 322.479 100.254 321.544 100.361 320.282C100.417 319.622 99.9943 318.815 99.3352 318.878C99.1326 318.898 98.9476 318.998 98.7729 319.102C95.9022 320.817 94.013 324.17 90.7748 325.004C91.6899 325.414 92.644 325.736 93.62 325.965C93.9106 326.033 94.2133 326.093 94.5056 326.033C94.8457 325.963 95.1304 325.738 95.4012 325.521C96.334 324.771 97.2669 324.022 98.1998 323.272ZM100.869 295.858C100.231 296.565 99.5918 297.271 98.9531 297.978C98.4471 298.537 97.9043 299.276 98.1859 299.975C98.3934 300.491 99.0061 300.752 99.5603 300.709C100.114 300.666 100.619 300.382 101.084 300.077C102.74 298.991 104.231 297.511 106.163 297.077C104.823 296.588 103.484 296.1 102.144 295.612C101.865 295.51 101.553 295.408 101.279 295.522C101.114 295.59 100.989 295.726 100.869 295.858Z" fill="#00160A"/>
<path fill-rule="evenodd" clip-rule="evenodd" d="M125.805 211.465C125.637 214.813 123.055 218.438 119.726 218.042C118.224 216.305 117.048 214.148 115.886 212.017C113.654 207.924 111.473 203.924 107.128 203.164C102.86 202.418 98.8855 205.557 96.2274 208.979C92.3778 213.934 89.89 219.936 89.1058 226.162C88.6448 229.822 90.1457 234.898 93.8127 234.495C98.0012 234.035 100.98 237.329 104.01 240.681C106.814 243.782 109.662 246.932 113.552 247.198C118.185 247.514 121.97 250.29 125.8 253.099C128.359 254.975 130.938 256.867 133.804 258.051C139.197 260.279 145.415 259.849 150.919 257.914C156.424 255.979 161.322 252.646 165.959 249.104L166.202 248.918C168.733 246.983 171.382 244.957 174.529 244.53C190.621 242.35 205.588 232.912 214.49 219.33C227.11 229.419 244.756 232.867 260.246 228.271C262.874 227.491 265.519 226.446 267.468 224.518C269.417 222.59 270.523 219.597 269.565 217.028C268.517 214.219 265.386 212.715 262.41 212.353C260.779 212.155 259.134 212.214 257.489 212.272C256.133 212.321 254.775 212.369 253.424 212.273C245.242 211.695 238.429 206.052 232.233 200.676C241.21 197.922 248.488 191.006 253.294 182.94C258.099 174.874 260.675 165.685 262.632 156.502C263.661 151.669 264.426 146.225 261.665 142.127C260.429 140.293 258.618 138.952 256.812 137.616C254.779 136.111 252.754 134.613 251.568 132.423C249.289 128.21 244.845 125.712 240.63 123.436C229.599 117.48 216.929 111.351 205.041 115.328C200.41 116.877 196.41 119.846 192.51 122.784C186.033 127.663 179.095 133.386 177.862 141.401C167.265 136.66 153.555 140.446 146.893 149.954C145.37 152.128 144.2 154.526 143.031 156.922C141.655 159.743 140.281 162.56 138.333 165.005C130.508 161.44 122.536 158.199 114.443 155.294C110.854 154.006 106.568 152.868 103.476 155.097C100.996 156.885 100.236 160.394 100.964 163.363C101.691 166.332 103.634 168.849 105.718 171.085C110.238 175.937 115.668 179.939 121.641 182.821C121.833 182.914 122.028 183.007 122.222 183.099L122.222 183.099C124.092 183.99 126.015 184.906 127.26 186.541C128.635 188.347 128.72 191.368 126.793 192.566C123.946 194.336 123.422 198.306 124.005 201.607C124.204 202.735 124.497 203.852 124.79 204.968C125.353 207.117 125.915 209.261 125.805 211.465ZM203.096 229.116C195.923 236.649 185.828 241.056 175.506 242.344C165.184 243.632 154.644 241.957 144.784 238.644C147.436 238.642 149.354 235.17 147.943 232.924C142.509 239.258 134.225 242.225 126.331 244.934C119.199 247.382 110.674 245.604 105.435 240.181C100.197 234.758 98.7791 225.86 102.463 219.281C104.065 216.421 106.781 213.932 110.046 213.652C113.312 213.371 116.828 216.079 116.525 219.342C114.708 219.026 112.796 220.57 112.721 222.412C119.75 221.655 126.359 217.627 130.254 211.726C131.598 209.689 132.619 207.471 133.642 205.25C134.328 203.759 135.015 202.268 135.8 200.829C137.755 197.249 140.561 193.837 144.45 192.606C147.571 191.619 150.945 192.167 154.171 192.723L168.503 195.194C169.575 194.268 167.838 192.784 166.451 192.495C161.972 191.559 157.431 190.982 152.889 190.405L152.889 190.405L152.889 190.405L152.888 190.405L152.888 190.405L152.888 190.405L152.888 190.405L152.888 190.405L152.888 190.405C148.676 189.87 144.464 189.335 140.301 188.514C131.649 186.807 122.952 183.684 116.654 177.511C120.926 175.053 124.177 170.877 125.51 166.133C125.78 165.173 125.137 163.596 124.358 164.218C123.467 167.298 122.502 170.51 120.27 172.812C118.039 175.115 114.123 176.126 111.597 174.151C108.319 171.587 104.872 168.79 103.575 164.835C102.279 160.88 104.33 155.568 108.464 155.083C110.319 154.865 112.133 155.632 113.844 156.382L131.106 163.949C136.244 166.201 141.458 168.476 147.007 169.293C150.904 169.866 154.867 169.705 158.802 169.543L169.959 169.083C170.415 169.064 170.883 169.043 171.303 168.864C172.423 168.385 172.804 167.016 173.051 165.823C176.045 151.377 180.067 136.131 190.949 126.169C195.818 121.711 201.884 118.572 208.335 117.172C214.695 115.792 221.711 116.198 227.186 119.715C218.002 120.391 209.083 124.264 202.32 130.514C199.478 127.48 194.189 129.96 191.922 133.444C188.409 138.846 188.472 146.349 192.077 151.69C195.112 156.186 196.237 161.55 197.365 166.926C198.402 171.868 199.441 176.819 201.966 181.117C205.96 187.917 213.399 192.281 221.168 193.634C228.936 194.987 236.991 193.574 244.374 190.805C236.11 199.048 222.909 201.899 211.98 197.801C211.183 197.502 210.39 197.168 209.597 196.834C207.086 195.777 204.566 194.716 201.873 194.747C203.451 196.418 205.466 197.673 207.662 198.351C205.13 202.604 202.473 206.783 199.697 210.881C199.341 211.405 198.937 211.964 198.329 212.141C197.652 212.338 196.944 212.001 196.327 211.66C191.222 208.838 186.646 205.062 182.907 200.586L175.425 209.686C179.264 214.379 183.753 218.54 188.723 222.013C182.108 230.185 172.087 235.508 161.612 236.412C172.455 236.964 183.431 231.879 190.02 223.25C194.191 225.592 198.574 227.558 203.096 229.116ZM237.385 149.097C239.781 146.484 240.669 142.753 240.464 139.214C240.259 135.675 239.069 132.272 237.752 128.981C241.184 128.574 244.67 129.869 247.404 131.983C250.138 134.098 252.191 136.974 253.875 139.992C255.917 143.65 257.482 147.606 258.162 151.74C259.761 161.473 256.346 171.398 251.486 179.981C250.542 181.648 249.526 183.303 248.149 184.634C246.762 185.974 245.055 186.937 243.306 187.749C236.088 191.103 227.786 192.071 219.991 190.467C224.967 186.324 228.481 180.616 230.72 174.54C232.958 168.464 233.982 162.006 234.572 155.558L234.575 155.522C234.724 153.896 234.88 152.187 235.807 150.844C236.114 150.4 236.493 150.014 236.873 149.629L236.873 149.629L236.874 149.628C237.046 149.453 237.219 149.278 237.385 149.097ZM228.38 175.954C226.233 180.977 222.906 185.589 218.396 188.671C217.868 189.032 217.301 189.38 216.665 189.455C216.104 189.52 215.543 189.365 215.004 189.195C211.17 187.985 207.547 185.84 205.087 182.659C204.195 181.505 203.466 180.232 202.816 178.926C198.081 169.413 197.617 157.87 201.573 148.008C201.762 147.537 202.033 147.008 202.531 146.909C203.174 146.781 203.669 147.44 204.03 147.988C206.985 152.466 212.511 154.733 217.871 154.968C223.231 155.202 228.504 153.679 233.587 151.961C232.661 154.226 232.425 156.694 232.191 159.138V159.138C232.161 159.446 232.132 159.753 232.101 160.06C231.556 165.495 230.527 170.931 228.38 175.954ZM227.289 129.293C230.031 128.669 233.232 128.497 235.327 130.374C236.004 130.979 236.507 131.757 236.921 132.565C239.516 137.638 238.5 144.319 234.513 148.39C229.903 153.096 222.608 153.872 216.044 153.313C213.689 153.113 211.267 152.75 209.257 151.508C206.655 149.899 205.115 147.066 203.69 144.36C210.015 137.293 218.041 131.395 227.289 129.293ZM249.471 214.604C248.61 216.777 247.742 218.979 247.46 221.299C247.178 223.619 247.545 226.109 248.956 227.971C237.248 228.619 225.349 225.009 215.975 217.964C218.998 213.686 221.385 208.96 223.034 203.988C223.686 202.024 226.172 201.205 228.191 201.659C230.049 202.078 231.61 203.27 233.132 204.433C233.263 204.533 233.393 204.633 233.524 204.732C238.508 208.516 244 211.567 249.471 214.604ZM167.654 244.275C165.808 246.354 163.601 248.08 161.347 249.707C156.641 253.105 151.51 256.193 145.791 257.18C137.409 258.626 128.354 255.011 123.273 248.19L141.554 241.371C141.992 241.207 142.445 241.042 142.912 241.068C143.175 241.083 143.429 241.158 143.683 241.234L143.683 241.234C143.852 241.285 144.021 241.335 144.194 241.368C144.781 241.479 145.373 241.381 145.968 241.284C146.338 241.223 146.709 241.161 147.08 241.15C148.448 241.109 149.706 241.735 150.95 242.353C151.266 242.51 151.581 242.667 151.897 242.812C156.745 245.042 162.334 244.681 167.654 244.275ZM141.258 166.056C141.129 165.768 141.265 165.436 141.401 165.151C145.145 157.31 150.098 150.048 156.031 143.7C160.204 149.494 162.981 156.286 164.063 163.345C164.28 164.755 164.046 166.707 162.629 166.883C155.84 167.729 148.932 167.614 142.175 166.543C141.818 166.486 141.406 166.386 141.258 166.056ZM166.828 165.572C165.43 157.887 162.528 150.479 158.335 143.889C161.884 142.02 166.08 141.989 170.092 142.002C172.625 142.01 175.391 142.099 177.321 143.74L172.313 158.516C171.463 161.025 170.602 163.604 170.709 166.251L167.544 166.301C167.431 166.303 167.314 166.304 167.21 166.261C166.957 166.155 166.877 165.842 166.828 165.572ZM207.561 203.388C208.402 201.957 209.203 200.429 209.288 198.772C213.075 200.476 217.246 201.32 221.398 201.223C222.05 201.208 222.027 202.212 221.76 202.807C220.951 204.606 220.142 206.408 219.206 208.144C218.246 209.927 217.156 211.636 216.067 213.342L213.457 217.434C213.1 217.994 212.731 218.566 212.2 218.965C210.775 220.037 208.741 219.521 207.115 218.791C204.418 217.579 201.936 215.892 199.817 213.83C202.76 210.638 205.361 207.131 207.561 203.388ZM109.617 206.923C110.872 208.188 111.692 209.81 112.491 211.403L108.726 211.939C107.472 212.118 106.186 212.308 105.077 212.921C103.998 213.518 103.167 214.475 102.434 215.466C99.3726 219.614 97.6756 224.753 97.6648 229.909C97.661 231.771 95.46 233.1 93.6587 232.627C91.8573 232.155 90.6335 230.366 90.3222 228.53C90.0108 226.694 90.4493 224.817 90.9993 223.038C92.9348 216.777 96.3971 210.864 101.52 206.776C102.498 205.995 103.58 205.264 104.816 205.067C106.576 204.786 108.362 205.658 109.617 206.923ZM267.712 217.404C268.148 217.963 268.47 218.644 268.451 219.353C268.425 220.269 267.845 221.072 267.22 221.742C263.585 225.637 258 226.963 252.71 227.588C252.361 227.629 251.996 227.666 251.669 227.538C251.4 227.433 251.184 227.226 250.992 227.01C249.716 225.575 249.211 223.569 249.314 221.651C249.418 219.733 250.08 217.886 250.904 216.151C251.077 215.785 251.278 215.402 251.632 215.206C251.915 215.049 252.252 215.037 252.574 215.029L258.976 214.861C260.553 214.819 262.146 214.779 263.689 215.105C265.232 215.43 266.743 216.159 267.712 217.404ZM196.36 156.911C193.752 152.077 191.8 146.89 190.576 141.535L191.63 138.72C192.934 136.196 194.577 133.848 196.502 131.758C197.286 130.907 198.645 130.813 199.727 131.223C200.809 131.633 201.68 132.448 202.52 133.244L206.3 136.825C206.412 136.932 206.529 137.047 206.567 137.197C206.637 137.48 206.404 137.739 206.192 137.939C204.422 139.622 202.85 141.52 201.589 143.612C199.683 146.773 198.519 150.316 197.371 153.824L196.36 156.911ZM206.021 129.763C213.717 125.642 222.135 121.763 230.816 122.691C235.354 123.175 239.696 124.981 243.476 127.539C232.646 124.755 220.575 127.323 211.816 134.273C210.463 135.347 208.432 136.514 207.226 135.275C206.917 134.958 206.714 134.512 206.517 134.078C206.201 133.383 205.899 132.717 205.191 132.651C204.516 132.589 204.216 131.674 204.503 131.059C204.789 130.445 205.424 130.083 206.021 129.763ZM184.879 205.154C186.398 206.614 188.07 207.902 189.739 209.188L196.482 214.381C194.406 216.211 192.374 218.091 190.39 220.021C185.666 217.221 181.45 213.568 178.005 209.291C179.891 207.327 181.701 205.291 183.429 203.188C183.701 203.964 184.286 204.585 184.879 205.154ZM141.526 191.108C137.976 193.882 134.306 196.801 132.353 200.861C131.971 201.654 131.656 202.489 131.341 203.323C130.672 205.095 130.005 206.861 128.708 208.209C128.133 208.041 127.907 207.363 127.767 206.78L126.416 201.161C126.234 200.403 126.05 199.624 126.154 198.851C126.257 198.081 126.636 197.381 127.009 196.7L130.973 189.456C131.061 189.295 131.153 189.129 131.294 189.011C131.645 188.72 132.164 188.813 132.607 188.921L141.526 191.108ZM199.202 215.992C201.623 218.481 204.632 220.395 207.913 221.531C208.526 220.954 209.712 221.272 209.954 222.079C208.825 223.544 207.586 224.924 206.25 226.203C205.653 226.774 204.697 226.654 203.892 226.469C199.96 225.566 196.173 224.037 192.716 221.956C192.485 221.817 192.225 221.619 192.248 221.35C192.263 221.169 192.406 221.028 192.539 220.905L197.392 216.436C197.901 215.967 198.719 215.496 199.202 215.992ZM261.158 153.558C261.113 154.106 261.036 154.717 260.607 155.061C260.604 150.76 259.537 146.463 257.528 142.658C257.164 141.969 256.769 141.294 256.33 140.649C256.273 140.566 256.216 140.483 256.158 140.4C255.715 139.76 255.261 139.106 255.153 138.342L260.353 143.774C260.832 144.273 261.324 144.795 261.55 145.449C261.768 146.079 261.716 146.767 261.661 147.432L261.158 153.558ZM255.183 146.655L254.005 145.171C252.71 143.538 251.12 141.755 249.036 141.752C247.826 141.751 246.714 142.371 245.664 142.972L244.034 143.907C243.588 144.163 243.131 144.428 242.817 144.835C241.912 146.006 242.572 147.718 243.428 148.926C244.02 149.762 244.73 150.565 245.673 150.967C246.892 151.488 248.293 151.258 249.571 150.905C251.321 150.423 253.011 149.727 254.593 148.837C255.099 148.553 255.658 148.136 255.633 147.557C255.617 147.215 255.395 146.923 255.183 146.655ZM244.896 147.801C244.693 147.478 244.484 147.133 244.48 146.752C244.474 146.008 245.217 145.508 245.871 145.151L248.195 143.883C248.547 143.692 248.912 143.496 249.312 143.469C249.711 143.442 250.155 143.634 250.29 144.011C250.686 145.124 251.662 146.012 252.808 146.3C253.179 146.394 253.298 146.907 253.123 147.247C252.947 147.587 252.589 147.786 252.246 147.956C251.021 148.564 249.74 149.059 248.425 149.435C247.898 149.585 247.34 149.717 246.807 149.59C245.935 149.382 245.373 148.56 244.896 147.801ZM228.362 159.275C226.057 159.543 225.619 163.699 226.689 165.916C226.91 166.372 227.254 166.841 227.757 166.905C228.616 167.014 229.09 165.954 229.28 165.109L229.285 165.09C229.535 163.977 230.654 159.008 228.362 159.275ZM216.475 164.726C216.936 163.651 217.089 162.446 216.913 161.29C216.831 160.753 216.67 160.207 216.311 159.799C215.952 159.391 215.358 159.154 214.847 159.338C214.384 159.504 214.093 159.957 213.874 160.397C213.1 161.952 212.792 163.735 212.998 165.459C213.094 166.261 214.105 166.699 214.872 166.446C215.639 166.192 216.156 165.469 216.475 164.726ZM223.27 162.266C223.627 161.969 224.079 162.508 224.224 162.949C224.701 164.4 225.096 165.878 225.407 167.373C225.603 168.318 225.765 169.3 225.556 170.242C225.261 171.571 224.252 172.652 223.08 173.344C221.908 174.036 220.575 174.394 219.26 174.745C218.912 174.837 218.476 174.903 218.252 174.622C218.061 174.384 218.155 174.011 218.372 173.796C218.585 173.585 218.881 173.488 219.165 173.395L219.182 173.389C221.232 172.716 223.422 171.5 223.899 169.396C224.162 168.239 223.843 167.077 223.522 165.91C223.23 164.847 222.937 163.78 223.081 162.709C223.103 162.546 223.143 162.371 223.27 162.266ZM208.955 157.533C208.416 156.786 208.848 155.65 209.631 155.162C210.413 154.674 211.403 154.681 212.317 154.799C213.409 154.94 214.483 155.218 215.506 155.624C215.724 155.71 215.959 155.82 216.055 156.034C216.232 156.43 215.773 156.863 215.339 156.863C214.989 156.863 214.673 156.695 214.36 156.528C214.284 156.488 214.208 156.448 214.132 156.41C212.424 155.563 210.159 156.054 208.955 157.533ZM228.643 157.276C229.455 157.141 230.316 157.328 230.998 157.788C231.283 157.981 231.691 157.657 231.693 157.313C231.695 156.969 231.438 156.68 231.168 156.467C230.586 156.009 229.861 155.735 229.121 155.693C228.643 155.666 228.115 155.759 227.808 156.125C227.5 156.491 227.593 157.178 228.054 157.306C228.218 157.351 228.391 157.32 228.56 157.29L228.6 157.283L228.643 157.276ZM218.568 178.367C218.797 178.238 219.098 178.463 219.132 178.724C219.166 178.984 219.018 179.233 218.848 179.433C217.997 180.437 216.531 180.747 215.235 180.511C213.94 180.276 212.779 179.579 211.686 178.845C211.172 178.499 210.666 178.142 210.168 177.775C209.652 177.393 209.102 176.927 209.04 176.288C208.978 175.649 209.797 175.006 210.264 175.445C211.412 176.527 212.587 177.626 214.015 178.295C215.443 178.964 217.195 179.142 218.568 178.367ZM193.98 183.489C189.195 173.089 187.199 161.422 188.254 150.023C188.272 149.828 188.297 149.62 188.426 149.472C188.607 149.264 188.98 149.273 189.151 149.489C189.09 155.76 189.031 162.068 190.055 168.254C191.079 174.441 193.252 180.562 197.221 185.417C197.339 185.562 197.459 185.706 197.58 185.851L197.58 185.851C198.263 186.67 198.951 187.495 199.338 188.482C196.758 188.432 195.058 185.833 193.98 183.489ZM198.672 136.527C198.584 136.431 198.481 136.347 198.361 136.295C198.016 136.146 197.612 136.299 197.31 136.522C196.105 137.414 196.101 139.498 197.301 140.395C197.886 139.896 198.487 139.378 198.83 138.69C199.174 138.001 199.194 137.092 198.672 136.527ZM209.056 147.509C210.354 148.563 211.833 149.393 213.409 149.951C218.493 151.754 224.207 150.622 229.113 148.38C229.863 148.037 230.82 148.218 231.393 148.81C228.242 151.055 224.383 152.289 220.514 152.288C219.661 152.288 218.809 152.229 217.959 152.155C216.22 152.003 214.468 151.78 212.832 151.171C211.197 150.562 209.669 149.532 208.743 148.053L209.056 147.509ZM264.423 216.034C264.373 216.207 264.512 216.373 264.64 216.5L266.572 218.417C266.782 217.866 266.546 217.224 266.141 216.795C265.736 216.366 265.188 216.105 264.654 215.853C264.55 215.857 264.453 215.934 264.423 216.034Z" fill="#00160A"/>
<path fill-rule="evenodd" clip-rule="evenodd" d="M391.298 141.461C393.665 142.281 395.895 140.147 397.934 138.693C401.09 136.443 405.207 135.592 408.996 136.407C409.625 136.542 410.283 136.745 410.697 137.237C411.075 137.687 411.183 138.3 411.244 138.885C411.617 142.465 410.722 146.163 408.754 149.176C407.796 150.642 406.596 151.947 405.74 153.474C404.884 155.001 404.395 156.867 405.005 158.508C408.632 168.265 407.122 179.773 401.101 188.264C395.081 196.755 384.72 201.987 374.313 201.793C368.991 201.693 363.776 200.272 358.761 198.486C356.573 197.706 354.168 196.851 351.996 197.674C348.033 199.176 343.861 200.125 339.638 200.483C338.59 200.572 337.495 200.618 336.528 200.204C335.081 199.585 334.207 198.016 334.041 196.45C333.875 194.885 334.308 193.318 334.854 191.841C336.503 187.388 341.623 180.431 344.722 178.829C344.471 173.421 344.498 167.95 345.668 162.664C346.837 157.378 349.223 152.249 353.137 148.509C354.754 146.964 356.604 145.678 358.542 144.562C368.343 138.919 380.612 137.758 391.298 141.461ZM376.372 141.022C368.877 141.198 361.581 144.208 355.722 148.886C354.002 150.259 352.385 151.785 351.094 153.568C350.076 154.973 349.271 156.524 348.599 158.123C344.608 167.615 345.519 179.019 350.966 187.756C351.085 187.947 351.221 188.149 351.433 188.223C351.694 188.314 351.976 188.181 352.22 188.051C369.328 178.934 384.555 166.307 396.682 151.183C396.97 150.823 397.274 150.404 397.212 149.947C397.165 149.604 396.92 149.325 396.681 149.074C391.507 143.649 383.867 140.847 376.372 141.022ZM386.851 197.683C394.976 193.868 401.148 186.33 403.787 177.75C404.385 175.807 404.815 173.799 404.857 171.767C404.892 170.058 404.654 168.356 404.416 166.663C404.071 164.209 403.726 161.755 403.382 159.301C403.29 158.65 402.663 157.791 402.205 158.263C389.492 171.347 375.609 183.294 360.776 193.916C360.283 194.27 359.739 194.707 359.713 195.313C359.682 196.015 360.352 196.524 360.961 196.875C368.737 201.36 378.725 201.498 386.851 197.683ZM336.729 196.684C337.32 197.632 338.602 197.827 339.719 197.857C345.578 198.02 351.375 196.302 356.618 193.68C361.861 191.058 366.606 187.55 371.217 183.931C377.367 179.104 383.334 174.045 389.149 168.819C396.35 162.346 403.426 155.481 408.154 147.031C409.069 145.396 409.913 143.604 409.77 141.736C409.627 139.869 408.137 137.983 406.266 138.056C402.294 138.211 398.389 139.738 395.366 142.319C394.765 142.832 395.19 143.924 395.93 144.202C396.67 144.48 397.494 144.204 398.218 143.885C398.941 143.565 399.694 143.192 400.479 143.28C401.679 143.413 402.532 144.642 402.603 145.847C402.675 147.052 402.142 148.211 401.514 149.242C400.351 151.151 398.833 152.815 397.299 154.44C383.664 168.886 367.934 181.352 350.756 191.328C349.209 192.226 347.643 193.108 345.978 193.762C345.105 194.106 344.104 194.381 343.252 193.989C341.854 193.345 341.742 191.383 342.161 189.902C342.791 187.68 344.151 185.67 345.981 184.26C345.634 183.283 345.288 182.307 344.941 181.331C340.424 184.216 337.254 189.123 336.482 194.427C336.37 195.192 336.32 196.028 336.729 196.684ZM349.573 189.983C349.605 189.883 349.546 189.778 349.49 189.688C348.906 188.761 348.323 187.834 347.739 186.907C347.475 186.487 346.964 186.012 346.569 186.31C345.142 187.385 344.121 188.984 343.748 190.731C343.674 191.075 343.631 191.46 343.819 191.758C344.168 192.313 345.002 192.189 345.619 191.968C346.934 191.497 348.202 190.891 349.394 190.162C349.468 190.117 349.546 190.065 349.573 189.983ZM400.333 145.85C400.275 145.609 399.988 145.504 399.74 145.494C398.988 145.461 398.203 146.079 398.25 146.83C398.298 147.581 399.414 148.054 399.881 147.463C400.022 147.285 400.081 147.058 400.137 146.838C400.193 146.62 400.248 146.401 400.304 146.183C400.332 146.074 400.36 145.959 400.333 145.85Z" fill="#00160A"/>
<defs>
<linearGradient id="paint0_linear" x1="431.202" y1="262.275" x2="41.2024" y2="262.275" gradientUnits="userSpaceOnUse">
<stop stop-color="#FFF2F8"/>
<stop offset="1" stop-color="#F9EEFF"/>
</linearGradient>
</defs>
</svg>
