<svg width="350" height="350" viewBox="0 0 350 350" fill="none" xmlns="http://www.w3.org/2000/svg">
<rect width="350" height="350" fill="#F8F8F8"/>
<path d="M300.757 163.565C311.506 142.828 322.639 112.107 291.464 87.599C260.287 63.0884 229.499 81.5357 215.015 94.8737C206.659 102.569 199.051 111.497 192.389 119.315C188.505 123.872 184.943 128.053 181.741 131.392C160.162 153.895 138.471 159.883 108.22 168.234C96.4286 171.489 83.3362 175.103 68.4427 180.195C27.9136 194.051 22.0822 207.091 26.7754 219.21C28.2786 218.58 29.854 217.957 31.499 217.343C58.8692 207.135 105.516 199.435 159.646 199.435C228.762 199.435 300.644 224.41 327.539 244.416C323.439 236.172 312.8 227.334 303.062 219.243C295.133 212.657 287.802 206.566 285.081 201.695C279.635 191.946 283.265 187.537 289.413 180.069C292.796 175.96 296.941 170.925 300.757 163.565Z" fill="#7EE8FF"/>
<path d="M300.757 163.565C311.506 142.828 322.639 112.107 291.464 87.599C260.287 63.0884 229.499 81.5357 215.015 94.8737C206.659 102.569 199.051 111.497 192.389 119.315C188.505 123.872 184.943 128.053 181.741 131.392C160.162 153.895 138.471 159.883 108.22 168.234C96.4286 171.489 83.3362 175.103 68.4427 180.195C27.9136 194.051 22.0822 207.091 26.7754 219.21C28.2786 218.58 29.854 217.957 31.499 217.343C58.8692 207.135 105.516 199.435 159.646 199.435C228.762 199.435 300.644 224.41 327.539 244.416C323.439 236.172 312.8 227.334 303.062 219.243C295.133 212.657 287.802 206.566 285.081 201.695C279.635 191.946 283.265 187.537 289.413 180.069C292.796 175.96 296.941 170.925 300.757 163.565Z" fill="url(#paint0_linear)"/>
<path d="M301.157 276.371L300.79 276.38L299.178 276.414C245.418 277.453 136.668 270.588 67.6788 261.68C67.6777 261.68 67.6766 261.679 67.6755 261.679L67.6668 261.679C67.6708 261.679 67.6748 261.68 67.6788 261.68C95.3692 272.852 134.668 280.391 175 280.507C208.367 280.602 231.287 281.139 247.685 281.524C282.115 282.331 287.793 282.464 301.056 276.417L301.157 276.371Z" fill="#7EE8FF"/>
<path d="M301.157 276.371L300.79 276.38L299.178 276.414C245.418 277.453 136.668 270.588 67.6788 261.68C67.6777 261.68 67.6766 261.679 67.6755 261.679L67.6668 261.679C67.6708 261.679 67.6748 261.68 67.6788 261.68C95.3692 272.852 134.668 280.391 175 280.507C208.367 280.602 231.287 281.139 247.685 281.524C282.115 282.331 287.793 282.464 301.056 276.417L301.157 276.371Z" fill="url(#paint1_linear)"/>
<path fill-rule="evenodd" clip-rule="evenodd" d="M162.85 208.796L164.169 208.881L162.217 240.191L161.276 241.375L159.83 240.382L162.85 208.796Z" fill="#F8F8F8"/>
<circle cx="262.293" cy="132.325" r="36.5189" fill="#F8F8F8"/>
<path fill-rule="evenodd" clip-rule="evenodd" d="M166.695 167.912C166.695 167.912 166.614 165.816 169.111 165.693C171.606 165.569 191.987 167.912 191.987 167.912C191.987 167.912 196.373 168.543 195.649 173.471C194.923 178.4 192.275 189.757 192.275 189.757C192.275 189.757 192.586 191.7 189.402 191.184C186.217 190.668 176.762 188.21 166.695 189.77C166.695 189.77 165.032 189.965 165.08 197.035L164.169 196.867C164.169 196.867 165.5 169.895 166.695 167.912Z" fill="#F8F8F8"/>
<path fill-rule="evenodd" clip-rule="evenodd" d="M181.654 151.236C181.851 151.025 181.654 151.236 181.654 151.236C180.854 152.093 180.174 152.856 179.736 153.407C177.645 156.037 174.842 158.53 173.711 160.436C173.711 160.436 168.701 162.719 166.695 160.345C166.695 160.345 171.297 154.31 174.947 151.614C174.947 151.614 178.492 149.869 181.654 151.236ZM185.543 147.211L181.839 146.136C181.839 146.136 185.595 143.795 187.677 142.909L189.401 143.376C189.401 143.376 187.619 145.118 185.543 147.211C185.491 147.267 185.543 147.211 185.543 147.211Z" fill="#F8F8F8"/>
<path fill-rule="evenodd" clip-rule="evenodd" d="M124.045 247.603C124.045 247.603 117.529 246.158 115.979 238.708C115.979 238.708 117.166 236.559 121.822 231.582C121.822 231.582 127.708 227.803 126.739 221.812C126.739 221.812 120.318 220.148 122.465 210.391L123.834 207.891C123.834 207.891 122.319 197.059 123.603 190.645C123.603 190.645 122.415 182.465 127.363 181.878C127.363 181.878 129.445 181.573 129.674 180.758C129.674 180.758 126.627 172.317 135.549 168.224C144.469 164.134 151.41 171.181 151.13 178.691C151.13 178.691 150.357 183.832 147.209 186.132C147.209 186.132 153.97 190.361 157.734 195.921C157.734 195.921 161.942 200.286 163.792 199.55C163.792 199.55 169.433 199.426 168.665 201.398C167.898 203.368 167.357 206.191 159.098 206.62C159.098 206.62 151.112 205.596 149.03 205.538L147.567 205.027C147.567 205.027 149.368 208.848 147.408 212.492C145.448 216.135 144.023 217.396 144.233 218.103L148.575 238.403C148.575 238.403 148.262 241.831 152.099 241.23C155.936 240.628 154.919 242.97 154.154 243.532C153.389 244.096 147.066 249.503 141.76 242.607C136.453 235.709 135.673 234.291 135.673 234.291L125.061 241.721C125.061 241.721 124.236 242.522 124.837 244.388C124.837 244.388 125.984 247.149 124.045 247.603Z" fill="#F8F8F8"/>
<path fill-rule="evenodd" clip-rule="evenodd" d="M221.121 135.283C219.229 92.792 262.966 94.8598 263.059 94.8736C315.279 102.598 302.85 168.844 262.381 170.94C262.353 170.942 222.753 171.949 221.121 135.283ZM222.621 135.233C221.481 109.639 238.348 101.234 250.598 98.4994C250.639 98.543 250.693 98.5896 250.756 98.6395C251.598 99.3097 252.432 99.9265 253.564 100.144C254.228 100.272 254.87 100.504 255.513 100.737C256.009 100.916 256.506 101.096 257.013 101.228C257.684 101.402 258.382 101.48 259.078 101.558L259.078 101.558C259.279 101.58 259.48 101.602 259.68 101.627C259.864 101.65 260.052 101.651 260.24 101.652C260.476 101.654 260.712 101.655 260.941 101.7C261.243 101.759 261.54 101.844 261.837 101.929C262.205 102.034 262.572 102.139 262.947 102.195C263.214 102.234 263.49 102.221 263.765 102.207C264.095 102.191 264.422 102.175 264.73 102.25C265.537 102.448 266.32 102.752 267.1 103.055L267.101 103.055C267.211 103.098 267.321 103.141 267.431 103.183L267.607 103.251C268.434 103.57 269.266 103.89 270.052 104.294C270.807 104.681 271.512 104.606 271.914 103.928C272.526 102.897 273.169 101.936 274.532 101.81C274.796 101.786 275.053 101.673 275.309 101.561C275.426 101.51 275.543 101.459 275.66 101.416L275.52 101.361C275.182 101.228 274.845 101.096 274.509 100.959C274.503 100.957 274.504 100.94 274.505 100.922V100.922C274.507 100.9 274.509 100.877 274.499 100.871C273.686 100.277 272.338 100.763 271.883 101.637C271.603 102.176 271.062 102.71 270.51 102.944C269.945 103.184 269.469 102.887 268.967 102.573C268.759 102.443 268.547 102.311 268.322 102.212C267.358 101.924 266.489 101.639 265.624 101.347C265.352 101.255 265.082 101.157 264.811 101.059C264.236 100.85 263.66 100.641 263.069 100.495C262.773 100.421 262.459 100.426 262.143 100.432C261.897 100.436 261.65 100.44 261.41 100.407C260.937 100.341 260.466 100.254 259.995 100.166C259.473 100.069 258.95 99.9724 258.424 99.905C258.076 99.8605 257.719 99.8506 257.363 99.8408C256.784 99.8249 256.208 99.809 255.676 99.6441C255.482 99.5837 255.293 99.5142 255.105 99.4449L255.105 99.4448C254.613 99.2633 254.126 99.0839 253.55 99.0756C253.04 99.0683 252.446 98.7176 252.052 98.3474C252.001 98.2997 251.952 98.2592 251.904 98.2251C258.107 97.004 262.83 97.2138 262.859 97.2184C310.074 104.528 300.355 167.08 262.381 169.046C262.355 169.048 224.153 169.637 222.621 135.233ZM116.104 241.124L116.144 241.241C116.389 241.959 116.808 242.618 117.239 243.297C117.407 243.561 117.577 243.829 117.739 244.104C117.844 244.232 117.939 244.358 118.03 244.479C118.195 244.698 118.349 244.901 118.53 245.078C119.681 246.2 120.938 247.183 122.433 247.808C122.533 247.851 122.662 247.826 122.791 247.801C122.92 247.776 123.048 247.751 123.147 247.795C124.489 248.388 125.821 247.627 125.767 246.148C125.749 245.639 125.597 245.137 125.444 244.632C125.337 244.28 125.23 243.927 125.168 243.569C125.103 243.199 125.169 242.724 125.36 242.407C125.861 241.577 126.657 241.071 127.495 240.578C127.891 240.346 128.227 240.016 128.565 239.685C128.829 239.427 129.093 239.168 129.387 238.954C129.853 238.615 130.348 238.317 130.844 238.019C131.206 237.801 131.569 237.583 131.92 237.349C132.162 237.187 132.389 237.007 132.616 236.827C133.15 236.403 133.683 235.98 134.407 235.798C135.323 235.571 136.281 235.86 136.826 236.714C137.06 237.08 137.338 237.417 137.616 237.754C137.826 238.01 138.037 238.266 138.229 238.535C138.695 239.186 139.134 239.86 139.544 240.547C139.708 240.823 139.852 241.115 139.995 241.406C140.243 241.912 140.491 242.416 140.846 242.83C141.331 243.393 141.888 243.894 142.446 244.395C142.825 244.735 143.204 245.076 143.561 245.437C144.568 246.453 145.864 246.719 147.177 246.831C147.85 246.887 148.532 246.755 149.197 246.626L149.198 246.626C149.615 246.544 150.027 246.465 150.426 246.433C150.953 246.392 151.373 246.184 151.786 245.98C152.17 245.789 152.548 245.602 152.999 245.557C153.422 245.514 153.812 245.156 154.203 244.798L154.203 244.798C154.377 244.638 154.552 244.478 154.729 244.346C155.849 243.513 155.886 241.969 154.766 241.183C154.651 241.103 154.482 241.097 154.315 241.091C154.14 241.084 153.968 241.078 153.859 240.989C152.998 240.285 152.075 240.472 151.132 240.677C150.299 240.856 149.284 239.933 149.296 239.085C149.301 238.74 149.209 238.391 149.118 238.047L149.118 238.047L149.118 238.047C149.094 237.958 149.071 237.87 149.049 237.782C148.996 237.564 148.93 237.349 148.863 237.134C148.743 236.747 148.624 236.362 148.585 235.968C148.551 235.623 148.467 235.291 148.383 234.958C148.273 234.521 148.163 234.084 148.165 233.618C148.166 233.339 148.058 233.062 147.949 232.783C147.869 232.577 147.788 232.37 147.75 232.16C147.695 231.856 147.673 231.547 147.65 231.238C147.627 230.916 147.605 230.594 147.544 230.279C147.463 229.854 147.357 229.433 147.25 229.013C147.129 228.537 147.008 228.062 146.925 227.579C146.864 227.222 146.863 226.855 146.863 226.487C146.863 226.248 146.863 226.009 146.846 225.772C146.836 225.632 146.835 225.482 146.835 225.33V225.329C146.833 224.9 146.832 224.457 146.616 224.213C146.351 223.915 146.363 223.604 146.374 223.287C146.384 223.024 146.393 222.755 146.244 222.487C145.958 221.973 145.941 221.305 145.925 220.642C145.919 220.394 145.912 220.147 145.892 219.909C145.878 219.744 145.898 219.558 145.917 219.376C145.951 219.066 145.983 218.764 145.845 218.588C145.339 217.944 145.63 217.304 145.846 216.83L145.883 216.75C146.235 215.967 146.654 215.214 147.073 214.461L147.073 214.46L147.073 214.46L147.073 214.46L147.073 214.46L147.073 214.46L147.073 214.46L147.073 214.459L147.073 214.459L147.073 214.459L147.074 214.459L147.074 214.459L147.074 214.458L147.074 214.458L147.074 214.458L147.074 214.458L147.074 214.458L147.074 214.458L147.074 214.457L147.074 214.457L147.074 214.457C147.523 213.651 147.971 212.845 148.337 212.004C148.678 211.219 148.787 210.323 148.893 209.444C148.904 209.353 148.915 209.263 148.927 209.173C148.937 209.087 148.948 209.003 148.959 208.918C149.001 208.604 148.989 208.282 148.978 207.961V207.961V207.961V207.961V207.961V207.96V207.96V207.96V207.96V207.96V207.96V207.96V207.96V207.96V207.959V207.959V207.959V207.959V207.959V207.959V207.959C148.965 207.601 148.952 207.244 149.013 206.899C149.056 206.655 149.392 206.445 149.677 206.267L149.677 206.267C149.72 206.24 149.761 206.214 149.8 206.188C149.829 206.17 149.894 206.227 149.973 206.296C150.064 206.375 150.172 206.47 150.263 206.482C150.522 206.515 150.805 206.513 151.085 206.51H151.086C151.632 206.505 152.172 206.499 152.515 206.76C153.129 207.226 153.774 207.201 154.39 207.178C154.644 207.168 154.894 207.159 155.134 207.184C156.48 207.327 157.852 207.243 159.222 207.158C159.761 207.125 160.3 207.092 160.837 207.072C161.192 207.059 161.549 207.045 161.898 206.989C163.636 206.709 165.344 206.303 166.719 205.128C167.144 204.765 167.5 204.322 167.856 203.88C168.005 203.695 168.154 203.509 168.308 203.33C168.718 202.853 168.872 202.309 169.047 201.687C169.37 200.537 168.652 199.094 167.407 199.187C166.896 199.225 166.549 199.065 166.139 198.867C165.893 198.749 165.562 198.748 165.279 198.779C165.083 198.801 164.885 198.839 164.688 198.876C163.89 199.029 163.099 199.179 162.458 198.282C162.324 198.095 162.06 197.994 161.806 197.896C161.766 197.881 161.727 197.866 161.688 197.851L161.654 197.837C161.631 197.828 161.61 197.818 161.588 197.809C161.445 197.747 161.289 197.702 161.134 197.656C160.857 197.575 160.582 197.495 160.386 197.323C159.58 196.614 158.83 195.836 158.104 195.043C157.734 194.639 157.384 194.217 157.033 193.795L157.033 193.795L157.033 193.794L157.032 193.794L157.032 193.794L157.032 193.793L157.032 193.793L157.032 193.793L157.032 193.793L157.031 193.793L157.031 193.793L157.031 193.793L157.031 193.793L157.031 193.792L157.031 193.792L157.031 193.792L157.03 193.792L157.03 193.792L157.03 193.792L157.03 193.792L157.03 193.791C156.666 193.353 156.302 192.916 155.917 192.497C155.158 191.674 154.363 190.88 153.539 190.121C152.863 189.498 152.142 188.918 151.403 188.37C150.865 187.972 150.286 187.628 149.71 187.285L149.545 187.187C148.781 186.731 148.718 185.929 148.701 185.21C148.697 185.042 148.997 184.866 149.297 184.691C149.435 184.61 149.573 184.529 149.682 184.449C149.707 184.43 149.735 184.407 149.749 184.38C149.877 184.149 150.005 183.919 150.132 183.688L150.133 183.687L150.133 183.687L150.133 183.687L150.133 183.686L150.134 183.686L150.134 183.686L150.134 183.685L150.134 183.685L150.134 183.684L150.134 183.684L150.135 183.684L150.135 183.683L150.135 183.683L150.135 183.683L150.135 183.682L150.136 183.682L150.136 183.682L150.136 183.681L150.136 183.681L150.136 183.681C150.512 183.003 150.889 182.324 151.245 181.636C151.338 181.456 151.374 181.247 151.41 181.039L151.411 181.039C151.424 180.962 151.437 180.885 151.454 180.81C151.511 180.546 151.577 180.282 151.643 180.017C151.817 179.324 151.991 178.63 151.998 177.936C152.002 177.594 151.932 177.131 151.864 176.729C151.737 175.968 151.603 175.203 151.394 174.461C151.319 174.195 151.19 173.945 151.061 173.694L151.06 173.694C150.962 173.503 150.863 173.311 150.788 173.112C150.696 172.869 150.63 172.606 150.564 172.345L150.564 172.345L150.563 172.345L150.563 172.345L150.563 172.345L150.563 172.344L150.563 172.344C150.44 171.856 150.318 171.371 150.029 171.018C149.768 170.697 149.549 170.338 149.329 169.979L149.329 169.978C148.819 169.141 148.306 168.3 147.246 167.923C146.818 167.771 146.413 167.536 146.01 167.303C145.471 166.991 144.937 166.682 144.359 166.575C142.87 166.298 141.31 166.323 139.783 166.349C138.579 166.369 137.329 166.421 136.194 166.768C135.376 167.018 134.55 167.422 133.766 167.947C133.624 168.043 133.478 168.138 133.332 168.233C132.584 168.721 131.82 169.22 131.331 169.876C131.143 170.129 130.925 170.371 130.706 170.615L130.706 170.616C130.043 171.353 129.363 172.111 129.408 173.245C128.663 173.669 128.642 174.399 128.622 175.075C128.616 175.286 128.61 175.492 128.582 175.682L128.579 175.704C128.463 176.494 128.339 177.34 128.52 178.273C128.741 179.415 128.992 180.441 129.589 181.422C129.941 182.002 130.233 182.619 129.255 182.942C129.118 182.987 128.949 183.105 128.904 183.23C128.671 183.863 128.356 184.438 127.685 184.664C127.069 184.871 127.116 185.302 127.161 185.726C127.172 185.834 127.184 185.942 127.184 186.045C127.184 186.1 127.7 186.278 127.825 186.188C128.207 185.914 128.577 185.622 128.946 185.329C129.452 184.928 129.958 184.528 130.496 184.176C130.821 183.963 131.393 183.934 131.779 184.054C132.197 184.186 132.59 184.394 132.984 184.604L132.984 184.604L132.984 184.604L132.985 184.604L132.985 184.604L132.985 184.604L132.985 184.604L132.985 184.604L132.986 184.605L132.986 184.605L132.986 184.605L132.986 184.605L132.986 184.605L132.986 184.605L132.987 184.605L132.987 184.605L132.987 184.605L132.987 184.605L132.987 184.606C133.226 184.732 133.465 184.859 133.71 184.969C134.343 185.253 134.983 185.523 135.623 185.792L135.623 185.793L135.625 185.793C135.96 185.934 136.294 186.075 136.628 186.218C137.064 186.405 137.144 186.65 136.738 186.966C136.528 187.129 136.317 187.292 136.106 187.454L136.105 187.455C135.559 187.876 135.013 188.298 134.476 188.73C132.988 189.93 132.238 191.596 132.033 193.401C131.892 194.647 132.03 196.019 132.428 197.206C132.743 198.143 133.387 198.986 134.014 199.807C134.127 199.954 134.239 200.1 134.348 200.247C135.162 201.335 136.322 201.98 137.475 202.622C137.805 202.805 138.134 202.988 138.455 203.181C139.196 203.628 140.057 203.903 140.892 204.163C141.303 204.29 141.728 204.368 142.154 204.447C142.495 204.509 142.836 204.572 143.169 204.66C143.474 204.74 143.77 204.852 144.067 204.964L144.067 204.964C144.343 205.069 144.619 205.174 144.902 205.252C145.412 205.394 145.929 205.51 146.446 205.627C146.704 205.684 146.961 205.742 147.218 205.803C147.224 205.805 147.225 205.819 147.226 205.836C147.227 205.856 147.229 205.879 147.239 205.887C147.583 206.16 148.067 208.213 147.934 208.61C147.692 209.331 147.487 210.064 147.282 210.797L147.24 210.946C147.196 211.104 147.168 211.27 147.14 211.437L147.14 211.437C147.09 211.736 147.04 212.034 146.895 212.278L146.758 212.51C146.125 213.58 145.487 214.661 144.701 215.613C143.92 216.56 143.008 217.452 141.844 217.949C141.617 218.047 141.421 218.196 141.224 218.347C140.82 218.658 140.408 218.973 139.696 218.849C139.313 218.782 138.845 219.198 138.379 219.613C138.173 219.796 137.968 219.979 137.77 220.119C137.722 220.153 137.686 220.204 137.649 220.255L137.649 220.255L137.649 220.256C137.641 220.267 137.634 220.277 137.626 220.288C137.618 220.3 137.609 220.311 137.6 220.322C137.628 220.33 137.656 220.341 137.683 220.351C137.741 220.373 137.799 220.396 137.857 220.396C138.058 220.398 138.259 220.392 138.461 220.387H138.461H138.461H138.461H138.461H138.461H138.461H138.461H138.461H138.461H138.461H138.461H138.461H138.461H138.462H138.462H138.462H138.462H138.462H138.462H138.462C138.874 220.376 139.286 220.364 139.688 220.423C140.079 220.479 140.778 220.805 140.76 220.929C140.667 221.574 140.629 222.223 140.592 222.873L140.592 222.873L140.592 222.873C140.531 223.915 140.47 224.962 140.18 226.006C139.997 226.662 139.701 227.252 139.405 227.839L139.405 227.839C139.182 228.284 138.959 228.727 138.787 229.196C138.336 230.43 137.234 231.513 136.208 232.431C135.33 233.216 134.358 233.896 133.385 234.575C132.9 234.914 132.414 235.253 131.94 235.605C131.378 236.025 130.826 236.46 130.275 236.895L130.273 236.896L130.271 236.898C129.951 237.15 129.632 237.401 129.31 237.65L129.214 237.725C128.719 238.106 128.224 238.487 127.717 238.854C127.511 239.002 127.309 239.158 127.106 239.314C126.576 239.723 126.045 240.133 125.452 240.408C124.5 240.848 123.913 241.571 123.92 242.49C123.926 243.162 124.108 243.832 124.291 244.503L124.291 244.503C124.383 244.838 124.474 245.174 124.544 245.51C124.585 245.712 124.588 245.921 124.591 246.131C124.592 246.227 124.594 246.323 124.599 246.418C124.406 246.412 124.207 246.421 124.007 246.43C123.558 246.45 123.109 246.471 122.727 246.319C122.269 246.139 121.854 245.853 121.438 245.566L121.438 245.566C121.147 245.365 120.855 245.163 120.546 244.997C119.435 244.398 118.825 243.382 118.24 242.353C117.821 241.616 117.472 240.837 117.126 240.062L117.078 239.956L117.06 239.915L117.04 239.872C116.903 239.57 116.727 239.183 116.834 238.975C117.183 238.295 117.643 237.66 118.13 237.065C119.096 235.884 120.093 234.728 121.089 233.572L121.434 233.172C121.577 233.006 121.716 232.836 121.855 232.666C122.259 232.172 122.665 231.677 123.154 231.289C124.493 230.229 125.567 228.98 126.507 227.56C127.24 226.454 127.527 225.341 127.254 224.059C127.236 223.977 127.29 223.881 127.344 223.785C127.369 223.74 127.395 223.695 127.413 223.651C127.183 223.593 126.953 223.535 126.723 223.476L126.32 223.373L126.015 223.296C125.993 223.391 125.962 223.487 125.93 223.583C125.863 223.792 125.795 224 125.816 224.2C125.98 225.76 125.482 226.927 124.3 228.06C122.785 229.514 121.394 231.099 120.004 232.683C119.542 233.21 119.079 233.737 118.612 234.259C118.365 234.536 118.104 234.797 117.844 235.057L117.842 235.059L117.842 235.059L117.842 235.059C116.948 235.952 116.065 236.836 115.759 238.313C115.526 239.44 115.81 240.267 116.104 241.124ZM159.671 205.459C159.278 205.488 158.885 205.518 158.488 205.541C152.515 205.887 145.747 204.118 145.27 203.897C144.749 203.656 144.179 203.519 143.609 203.382L143.609 203.382L143.609 203.382L143.609 203.382L143.609 203.382C143.382 203.328 143.156 203.274 142.933 203.213C142.74 203.161 142.546 203.112 142.352 203.064C142.048 202.989 141.744 202.914 141.445 202.821C140.642 202.574 139.842 202.31 139.048 202.032C138.764 201.932 138.488 201.791 138.23 201.633C138.041 201.517 137.847 201.405 137.653 201.294L137.653 201.293C137.114 200.983 136.573 200.671 136.126 200.26C135.682 199.851 135.361 199.298 135.046 198.757C134.988 198.657 134.93 198.558 134.872 198.461C134.526 197.879 134.211 197.265 133.958 196.642C132.894 194.02 134.226 191.188 134.785 190.278C135.493 189.127 136.81 188.494 137.885 188.3C138.807 188.133 140.024 188.095 141.141 188.481C141.909 188.746 142.578 189.147 143.243 189.546L143.243 189.547C143.639 189.784 144.033 190.02 144.446 190.227C145.834 190.922 147.076 191.823 148.308 192.716L148.453 192.822C149.164 193.337 149.774 193.988 150.386 194.64L150.387 194.64L150.387 194.64L150.387 194.64C150.763 195.041 151.139 195.442 151.54 195.812C152.161 196.387 152.832 196.909 153.501 197.431L153.501 197.431L153.502 197.431L153.503 197.432C153.661 197.555 153.819 197.678 153.976 197.802C154.141 197.932 154.305 198.066 154.468 198.201L154.469 198.202L154.469 198.202C154.965 198.611 155.463 199.022 156.022 199.308C156.731 199.67 157.494 199.929 158.255 200.188C158.5 200.271 158.744 200.354 158.987 200.44C159.574 200.649 160.167 200.847 160.771 200.996C160.839 201.012 160.907 201.029 160.975 201.047C161.448 201.166 161.936 201.29 162.403 201.252C163.763 201.141 163.825 201.093 164.958 200.232L165.149 200.087C165.286 199.983 165.514 199.907 165.674 199.941C166.611 200.137 167.573 200.373 168.18 201.154C168.312 201.323 167.997 202.01 167.72 202.296L167.565 202.456C166.738 203.311 165.93 204.148 164.729 204.641C163.688 205.069 162.702 205.313 161.608 205.344C160.96 205.362 160.317 205.41 159.671 205.459ZM130.075 179.699C130.069 179.602 130.063 179.504 130.052 179.41C130.002 178.989 129.957 178.567 129.913 178.145C129.894 177.971 129.876 177.798 129.857 177.624C129.963 176.745 130.057 176.058 130.18 175.375C130.202 175.253 130.22 175.128 130.239 175.003C130.299 174.601 130.359 174.194 130.537 173.852C130.741 173.461 130.995 173.098 131.249 172.734C131.494 172.385 131.738 172.036 131.937 171.663C132.615 170.394 133.792 169.766 134.952 169.147C135.263 168.981 135.573 168.815 135.872 168.638C136.513 168.258 137.313 168.133 138.102 168.01H138.102L138.102 168.01C138.355 167.97 138.608 167.931 138.853 167.883C139.501 167.758 140.171 167.68 140.83 167.693C141.883 167.713 142.899 167.956 143.93 168.214C145.334 168.566 146.462 169.289 147.494 170.207C147.705 170.396 147.828 170.683 147.951 170.97L147.951 170.971C148.011 171.111 148.071 171.252 148.141 171.381C148.287 171.648 148.435 171.914 148.582 172.18L148.584 172.183C148.833 172.63 149.081 173.078 149.319 173.531C149.652 174.163 149.098 174.873 148.368 174.912C147.857 174.939 144.078 175.259 142.713 176.455C141.549 177.475 141.266 177.867 140.811 178.499C140.732 178.608 140.648 178.724 140.553 178.852C140.218 179.306 139.934 181.386 140.116 181.94C140.276 182.426 140.494 182.892 140.713 183.358C140.888 183.73 141.062 184.102 141.207 184.485C141.311 184.759 141.336 185.063 141.36 185.367C141.372 185.505 141.383 185.642 141.402 185.777C141.268 185.774 141.133 185.775 140.999 185.777H140.999C140.693 185.78 140.388 185.784 140.095 185.724C139.77 185.658 139.456 185.535 139.142 185.412C139.002 185.357 138.862 185.302 138.721 185.252L138.158 185.054L136.903 184.611L135.984 184.287C135.788 184.217 135.589 184.153 135.39 184.089L135.39 184.089C134.952 183.947 134.514 183.806 134.101 183.61C132.546 182.871 131.092 181.978 130.218 180.416C130.106 180.214 130.09 179.955 130.075 179.699ZM146.119 230.367C146.215 230.765 146.312 231.162 146.4 231.561C146.414 231.627 146.371 231.705 146.327 231.783C146.317 231.801 146.307 231.819 146.297 231.837C146.288 231.855 146.279 231.872 146.272 231.89C146.401 232.62 146.523 233.159 146.66 233.693C146.757 234.073 146.857 234.452 146.958 234.831L146.958 234.831L146.958 234.831L146.958 234.832L146.958 234.832L146.958 234.832L146.958 234.832L146.958 234.833L146.958 234.834C147.15 235.558 147.342 236.281 147.512 237.009C147.606 237.415 147.652 237.853 147.612 238.265C147.505 239.373 148.784 241.777 149.805 241.943C150.499 242.057 151.213 242.046 151.928 242.036H151.928H151.928H151.929H151.929H151.929H151.93H151.93H151.93H151.93H151.931H151.931H151.931H151.932H151.932H151.932H151.933H151.933H151.933H151.934C152.375 242.029 152.816 242.023 153.254 242.046C153.599 242.063 153.975 242.225 154.251 242.434C154.338 242.5 154.227 243.007 154.066 243.183C153.688 243.595 153.255 243.971 152.791 244.282C151.151 245.387 149.278 245.369 147.411 245.306C145.761 245.25 144.257 244.871 143.255 243.369C142.785 242.664 142.289 241.977 141.792 241.289L141.792 241.289L141.792 241.289L141.792 241.289L141.792 241.289L141.791 241.289L141.791 241.289L141.791 241.289L141.791 241.289L141.791 241.289L141.791 241.288L141.791 241.288L141.791 241.288L141.791 241.288L141.791 241.288L141.791 241.288L141.791 241.288L141.791 241.288L141.791 241.288L141.791 241.288L141.79 241.288C141.483 240.863 141.176 240.438 140.875 240.008C140.623 239.648 140.378 239.284 140.133 238.919C139.832 238.473 139.532 238.027 139.22 237.589C138.984 237.259 138.734 236.937 138.484 236.616L138.483 236.616C137.944 235.923 137.406 235.231 137.017 234.464C136.814 234.064 137.222 233.172 137.596 232.699C137.994 232.196 138.445 231.734 138.895 231.272L138.895 231.272L138.895 231.272L138.895 231.272L138.895 231.272L138.895 231.271L138.896 231.271L138.896 231.271L138.896 231.271L138.896 231.271L138.896 231.271L138.896 231.271L138.896 231.271L138.896 231.27L138.896 231.27L138.897 231.27L138.897 231.27L138.897 231.27L138.897 231.27L138.897 231.27L138.897 231.269L138.898 231.269L138.898 231.269L138.898 231.269L138.898 231.269L138.898 231.268L138.898 231.268L138.898 231.268L138.898 231.268L138.898 231.268L138.899 231.268L138.899 231.268L138.899 231.267L138.899 231.267L138.899 231.267L138.899 231.267L138.899 231.267L138.899 231.267L138.899 231.267L138.9 231.266L138.9 231.266C139.414 230.739 139.928 230.212 140.362 229.625C140.572 229.341 140.645 228.952 140.717 228.566C140.793 228.16 140.869 227.756 141.102 227.481C141.696 226.782 141.704 226.004 141.712 225.239C141.715 224.909 141.718 224.581 141.769 224.264C141.842 223.802 141.911 223.339 141.979 222.874L141.979 222.874C142.122 221.902 142.265 220.928 142.457 219.969C142.528 219.617 142.904 219.319 143.267 219.033C143.387 218.937 143.507 218.843 143.612 218.748C143.66 218.706 144.03 218.876 144.078 219.009C144.24 219.457 144.365 219.928 144.431 220.401C144.51 220.966 144.577 221.533 144.643 222.1L144.643 222.101L144.643 222.101C144.73 222.842 144.817 223.583 144.932 224.32C144.992 224.702 145.098 225.078 145.204 225.453C145.297 225.783 145.391 226.113 145.453 226.448C145.515 226.782 145.544 227.123 145.574 227.463V227.463V227.464C145.605 227.819 145.636 228.174 145.703 228.522C145.823 229.139 145.971 229.752 146.118 230.364L146.119 230.364L146.119 230.364L146.119 230.364L146.119 230.364L146.119 230.365L146.119 230.365L146.119 230.365L146.119 230.365L146.119 230.365L146.119 230.365L146.119 230.365L146.119 230.366L146.119 230.366L146.119 230.366L146.119 230.366L146.119 230.366L146.119 230.366L146.119 230.366L146.119 230.366L146.119 230.367ZM145.033 185.757C144.671 185.864 144.077 185.57 143.741 185.282C143.442 185.026 143.218 184.682 142.994 184.338C142.898 184.19 142.802 184.041 142.699 183.9C142.608 183.763 142.518 183.634 142.43 183.508C142.147 183.102 141.896 182.742 141.756 182.343C141.67 182.101 141.67 181.831 141.67 181.559V181.558C141.67 181.341 141.67 181.122 141.626 180.916C141.423 179.957 141.941 179.357 142.476 178.739L142.541 178.663L142.583 178.615L142.627 178.563C142.655 178.53 142.682 178.498 142.71 178.465C143.329 177.718 144.09 177.164 144.931 176.744C145.413 176.502 145.997 176.402 146.543 176.366C146.895 176.343 147.252 176.359 147.608 176.374C148.122 176.397 148.635 176.42 149.126 176.326C149.676 176.22 149.849 176.481 150.03 176.774C150.2 177.047 150.304 177.401 150.314 177.723C150.338 178.574 150.31 179.428 150.265 180.279C150.261 180.346 150.188 180.407 150.113 180.469C150.039 180.53 149.965 180.592 149.953 180.663C149.689 182.291 148.691 183.517 147.563 184.563C146.907 185.173 145.925 185.494 145.033 185.757ZM156.655 197.944C156.637 197.964 156.619 197.983 156.604 197.998L156.423 197.841L156.201 197.648L156.193 197.642L156.19 197.639C155.637 197.158 155.138 196.724 154.614 196.32C154.482 196.218 154.321 196.151 154.161 196.085C153.986 196.013 153.812 195.94 153.676 195.823C153.216 195.426 152.771 195.011 152.326 194.597C151.949 194.245 151.572 193.894 151.186 193.554C150.397 192.857 149.586 192.183 148.767 191.519C148.596 191.38 148.425 191.238 148.255 191.096C147.675 190.613 147.093 190.129 146.453 189.745C145.846 189.38 145.2 189.083 144.553 188.785L144.553 188.785L144.553 188.785L144.553 188.785L144.552 188.784L144.551 188.784C144.16 188.604 143.77 188.424 143.388 188.229C142.964 188.013 142.566 187.747 142.169 187.481C142.11 187.441 142.05 187.401 141.99 187.361C141.981 187.355 142.111 187.016 142.197 187.006C142.509 186.968 142.825 186.912 143.142 186.856C143.957 186.712 144.777 186.567 145.53 186.728C146.595 186.955 147.671 187.338 148.68 188.032C150.344 189.178 151.814 190.488 153.21 191.909C154.742 193.468 156.253 195.047 157.763 196.626L157.764 196.626L157.764 196.627L157.765 196.627L157.765 196.628L157.766 196.628L157.766 196.629L157.767 196.629L157.767 196.63L157.768 196.63L157.768 196.63L157.768 196.631L157.769 196.631L157.769 196.632L157.77 196.632L157.77 196.633L157.771 196.633L157.771 196.634L157.772 196.634L157.772 196.635L157.773 196.636L158.327 197.215C158.998 197.916 159.649 198.635 160.3 199.354C160.359 199.419 160.4 199.587 160.36 199.64C160.228 199.813 160 200.114 159.909 200.082C159.607 199.976 159.333 199.777 159.068 199.583L159.02 199.549C158.621 199.259 158.225 198.966 157.829 198.673L157.828 198.672L157.826 198.671L157.825 198.67L157.824 198.669L157.823 198.668L157.822 198.668L157.821 198.667L157.82 198.666C157.459 198.399 157.098 198.132 156.735 197.868C156.73 197.864 156.693 197.904 156.655 197.944ZM330.691 245.029C330.518 245.036 330.335 245.062 330.153 245.088C329.751 245.145 329.349 245.202 329.049 245.054C329.029 245.045 328.972 245.016 328.878 244.969C325.866 243.449 285.269 222.968 243.856 210.367C207.956 199.443 170.251 196.35 168.639 196.218L168.592 196.214C168.42 196.199 206.909 195.245 244.422 206.495C287.549 219.428 330.511 244.812 330.691 245.029ZM196.145 173.405C196.191 172.982 196.237 172.554 196.289 172.12C196.261 172.005 196.234 171.893 196.208 171.783C196.086 171.274 195.976 170.814 195.803 170.379C195.78 170.319 195.756 170.259 195.733 170.198C195.469 169.516 195.205 168.832 194.319 168.619C194.123 168.573 193.957 168.422 193.788 168.27C193.648 168.145 193.507 168.017 193.347 167.945C192.879 167.734 192.369 167.587 191.862 167.498C191.605 167.453 191.342 167.447 191.08 167.44C190.821 167.434 190.562 167.427 190.309 167.384C189.856 167.307 189.405 167.209 188.955 167.112L188.954 167.112C188.262 166.962 187.57 166.813 186.869 166.736C186.599 166.706 186.33 166.681 186.06 166.655L186.06 166.655L186.059 166.655L186.059 166.655L186.059 166.655L186.059 166.655L186.059 166.655L186.059 166.655L186.059 166.655L186.059 166.655L186.058 166.655L186.058 166.655L186.058 166.655L186.058 166.655L186.058 166.655L186.058 166.655L186.058 166.655L186.057 166.655L186.057 166.655L186.057 166.655C185.306 166.584 184.556 166.513 183.807 166.354C183.113 166.207 182.39 166.186 181.67 166.166C181.439 166.159 181.209 166.153 180.98 166.142C180.875 166.137 180.766 166.172 180.659 166.207C180.54 166.245 180.421 166.283 180.31 166.266C179.515 166.146 178.723 166.001 177.931 165.857C177.73 165.82 177.528 165.783 177.326 165.747C176.974 165.683 176.623 165.689 176.269 165.694C175.874 165.7 175.473 165.706 175.059 165.617C174.347 165.462 173.606 165.457 172.859 165.451C172.356 165.447 171.851 165.444 171.351 165.395C170.317 165.293 169.271 165.317 168.226 165.341C167.798 165.351 167.37 165.361 166.944 165.362C166.313 165.365 165.529 166.091 165.484 166.709C165.471 166.885 165.481 167.077 165.491 167.27C165.511 167.674 165.532 168.076 165.343 168.315C164.865 168.919 164.93 169.568 164.996 170.221C165.049 170.756 165.103 171.293 164.858 171.808C164.614 172.319 164.645 172.932 164.676 173.545C164.691 173.844 164.706 174.143 164.689 174.43C164.661 174.912 164.617 175.394 164.574 175.876V175.876V175.877V175.877V175.877V175.877V175.877V175.877V175.878V175.878V175.878V175.878V175.878V175.878V175.879V175.879V175.879L164.574 175.879C164.489 176.825 164.404 177.772 164.431 178.723C164.435 178.852 164.469 178.982 164.502 179.111C164.545 179.274 164.587 179.435 164.568 179.591C164.486 180.255 164.386 180.916 164.285 181.577L164.285 181.578L164.285 181.578L164.285 181.578L164.285 181.579L164.285 181.579L164.285 181.58L164.285 181.58L164.285 181.58L164.285 181.581L164.285 181.581L164.285 181.581L164.285 181.582L164.285 181.582L164.285 181.582L164.285 181.583L164.285 181.583L164.285 181.584L164.285 181.584C164.201 182.138 164.117 182.692 164.044 183.247C163.991 183.647 163.993 184.047 163.996 184.449C163.999 184.963 164.002 185.482 163.889 186.008C163.758 186.619 163.755 187.251 163.752 187.889C163.75 188.37 163.748 188.854 163.691 189.336C163.617 189.954 163.629 190.579 163.642 191.206C163.658 192.051 163.675 192.901 163.481 193.746C163.361 194.269 163.329 194.811 163.298 195.354V195.354C163.277 195.703 163.257 196.051 163.213 196.396C163.197 196.523 163.116 196.665 163.04 196.797C162.951 196.955 162.869 197.098 162.917 197.182C163.067 197.45 163.421 197.656 163.733 197.771C164.582 198.085 165.725 197.672 165.773 197.069C165.795 196.799 165.826 196.528 165.857 196.256V196.256V196.255V196.255V196.255V196.255V196.255V196.255V196.255V196.254V196.254V196.254V196.254V196.254V196.254V196.253V196.253V196.253V196.253C165.938 195.544 166.02 194.833 165.933 194.145C165.852 193.503 165.998 192.907 166.143 192.315C166.266 191.813 166.388 191.314 166.371 190.791C166.366 190.631 166.561 190.325 166.673 190.32C168.122 190.258 169.573 190.223 171.023 190.214C171.54 190.211 172.057 190.226 172.574 190.241L172.575 190.241C173.143 190.257 173.711 190.274 174.279 190.266C174.874 190.259 175.469 190.233 176.065 190.208H176.065H176.065H176.065H176.065H176.065H176.066H176.066H176.066H176.066H176.066H176.066H176.066H176.067H176.067H176.067H176.067H176.067H176.067C177.029 190.167 177.991 190.127 178.951 190.16C179.553 190.181 180.151 190.303 180.751 190.425C181.168 190.51 181.586 190.595 182.006 190.646C182.267 190.678 182.528 190.684 182.79 190.69C183.216 190.7 183.644 190.709 184.071 190.83C184.323 190.9 184.596 190.891 184.87 190.883C185.124 190.875 185.379 190.867 185.618 190.922C186.009 191.012 186.389 191.15 186.769 191.288L186.769 191.288C187.095 191.406 187.422 191.525 187.756 191.613C188.137 191.714 188.531 191.767 188.925 191.82L188.926 191.82C189.124 191.847 189.323 191.873 189.52 191.906C189.695 191.935 189.879 191.987 190.062 192.038C190.458 192.15 190.853 192.261 191.16 192.143C191.765 191.909 192.358 191.385 192.711 190.83C193.069 190.265 193.216 189.546 193.354 188.866L193.374 188.765C193.417 188.557 193.394 188.325 193.372 188.098C193.342 187.801 193.314 187.51 193.433 187.292C193.792 186.63 193.887 185.926 193.982 185.222C194.028 184.877 194.074 184.532 194.152 184.192C194.189 184.03 194.17 183.84 194.151 183.656C194.126 183.412 194.102 183.178 194.212 183.033C194.701 182.384 194.771 181.644 194.841 180.903C194.885 180.436 194.929 179.969 195.078 179.525C195.284 178.912 195.401 178.251 195.519 177.591L195.519 177.591L195.519 177.59L195.519 177.589C195.57 177.303 195.621 177.016 195.68 176.734C195.903 175.651 196.022 174.547 196.145 173.407L196.145 173.406L196.145 173.406L196.145 173.406L196.145 173.405ZM192.601 184.926C192.47 185.599 192.34 186.269 192.041 186.894C192.025 187.035 192.015 187.166 192.006 187.286L192.006 187.286C191.982 187.61 191.963 187.861 191.856 188.068C191.69 188.389 191.668 188.761 191.647 189.133C191.611 189.74 191.576 190.344 190.913 190.718C190.885 190.734 190.855 190.751 190.825 190.768C190.614 190.891 190.37 191.032 190.182 190.99C189.991 190.948 189.813 190.848 189.634 190.748C189.447 190.643 189.26 190.538 189.06 190.501C188.708 190.435 188.348 190.407 187.988 190.379L187.987 190.379C187.575 190.347 187.162 190.315 186.762 190.226C186.421 190.149 186.093 190.012 185.766 189.875C185.432 189.736 185.099 189.597 184.752 189.521C184.31 189.426 183.854 189.392 183.398 189.359C183.043 189.333 182.688 189.307 182.339 189.252C179.345 188.777 176.339 188.848 173.333 188.919C171.531 188.962 169.73 189.005 167.931 188.93C167.308 188.904 166.784 188.87 166.739 188.074C166.723 187.788 166.672 187.489 166.62 187.191C166.515 186.576 166.41 185.964 166.613 185.479C167.04 184.456 166.989 183.445 166.939 182.438V182.438V182.438V182.437V182.437V182.436V182.436V182.435V182.435V182.435V182.434V182.434V182.433V182.433V182.432V182.432V182.431V182.431V182.431C166.918 182.011 166.897 181.591 166.911 181.173C167.046 177.202 167.081 173.228 167.113 169.255L167.113 169.148L167.113 169.082V169.082V169.081C167.115 168.431 167.116 167.829 167.595 167.287C167.871 166.976 168.114 166.86 168.54 166.89C169.041 166.926 169.543 166.933 170.046 166.94H170.047C170.616 166.948 171.186 166.956 171.752 167.006C172.32 167.057 172.884 167.145 173.448 167.234C174.042 167.327 174.636 167.42 175.234 167.469C175.618 167.5 176.016 167.472 176.413 167.444C177.027 167.401 177.636 167.358 178.176 167.538C179.269 167.902 180.373 167.928 181.474 167.955C182.045 167.968 182.615 167.982 183.183 168.043C183.624 168.09 184.088 168.055 184.547 168.02C185.239 167.967 185.921 167.916 186.501 168.146C187.455 168.524 188.408 168.532 189.348 168.539C189.72 168.541 190.09 168.544 190.458 168.57C192.007 168.679 193.353 169.121 194.211 170.255C194.71 170.914 195.191 172.005 194.563 173.029C194.508 173.119 194.522 173.249 194.537 173.382L194.537 173.382C194.545 173.456 194.553 173.532 194.55 173.601C194.531 173.93 194.535 174.268 194.538 174.605C194.547 175.38 194.555 176.156 194.295 176.827C194.045 177.471 193.925 178.132 193.806 178.792C193.706 179.345 193.606 179.897 193.43 180.436C193.306 180.812 193.309 181.236 193.312 181.656C193.315 182.132 193.318 182.603 193.138 182.997C192.856 183.619 192.729 184.274 192.601 184.926ZM164.882 189.091L164.882 189.091C164.856 189.065 164.831 189.039 164.811 189.018C165.169 189.054 165.573 189.127 165.658 189.332C165.751 189.556 165.738 189.825 165.724 190.093C165.718 190.207 165.712 190.321 165.715 190.432C165.688 190.432 165.657 190.436 165.627 190.44C165.56 190.448 165.493 190.457 165.463 190.428C165.422 190.386 165.392 190.324 165.364 190.263C165.327 190.186 165.293 190.112 165.235 190.091C164.569 189.853 164.551 189.81 164.986 189.214C164.994 189.203 164.938 189.147 164.882 189.091ZM236.844 261.34C237.354 261.574 237.821 261.813 238.276 262.045C238.508 262.164 238.736 262.281 238.966 262.394C239.139 262.48 239.32 262.553 239.5 262.625L239.5 262.625C239.798 262.745 240.095 262.863 240.351 263.041C240.668 263.26 240.934 263.555 241.198 263.849L241.199 263.849L241.205 263.856L241.206 263.857L241.256 263.913C241.285 263.944 241.313 263.975 241.342 264.007L241.392 264.061L241.424 264.096L241.449 264.123C241.488 264.165 241.461 264.358 241.43 264.368C241.355 264.391 241.275 264.421 241.195 264.452C240.975 264.536 240.747 264.623 240.579 264.561C240.301 264.457 240.015 264.373 239.729 264.289C238.88 264.04 238.031 263.791 237.398 263.012C236.884 262.379 236.174 261.854 235.453 261.46C235.129 261.284 234.536 261.543 234.403 262.082C234.065 263.439 230.374 268.825 224.847 268.825C219.321 268.825 210.626 268.256 208.315 265.481C205.067 261.582 206.318 254.136 206.439 253.419L206.445 253.38C206.484 253.136 206.304 252.829 206.152 252.602C206.105 252.532 205.775 252.573 205.636 252.659C205.21 252.928 204.796 253.215 204.381 253.502L204.381 253.502L204.381 253.502L204.38 253.503C204.211 253.619 204.043 253.736 203.874 253.851C203.683 253.981 203.493 254.114 203.303 254.247C202.787 254.608 202.271 254.97 201.722 255.27C201.554 255.363 201.277 255.272 201.018 255.188C200.978 255.175 200.939 255.163 200.901 255.151C200.865 255.14 200.829 255.129 200.795 255.12C200.648 255.079 200.509 255.007 200.37 254.936C200.308 254.904 200.245 254.871 200.181 254.842C200.294 254.741 200.404 254.636 200.514 254.53C200.759 254.297 201.003 254.063 201.28 253.878C201.656 253.629 202.049 253.406 202.443 253.183C202.729 253.021 203.016 252.859 203.295 252.686C204.02 252.238 204.733 251.771 205.438 251.294C205.524 251.236 205.611 251.179 205.699 251.121C206.06 250.885 206.425 250.645 206.706 250.334C207.901 249.013 209.245 247.893 210.64 246.779C211.288 246.263 211.998 245.908 212.705 245.556L212.705 245.555C213.201 245.308 213.694 245.062 214.164 244.761C214.494 244.55 214.911 244.481 215.33 244.41H215.33L215.331 244.41C215.561 244.372 215.792 244.333 216.01 244.27C216.431 244.15 216.848 244.016 217.265 243.883L217.266 243.883C217.576 243.784 217.885 243.685 218.196 243.591C218.285 243.565 218.383 243.568 218.48 243.571C218.512 243.572 218.544 243.573 218.575 243.573C218.959 243.573 219.345 243.563 219.731 243.553C220.637 243.528 221.543 243.504 222.431 243.614C222.988 243.683 223.521 243.944 224.053 244.205C224.293 244.322 224.532 244.439 224.774 244.539C224.761 244.56 224.75 244.586 224.738 244.613C224.716 244.665 224.693 244.716 224.66 244.726C223.378 245.082 222.126 245.292 220.813 244.688C220.408 244.501 219.865 244.569 219.358 244.633C219.257 244.645 219.157 244.658 219.06 244.668C218.587 244.719 218.12 244.835 217.656 244.95C217.551 244.976 217.447 245.002 217.343 245.027L217.294 245.039L217.235 245.053C217.174 245.067 217.113 245.08 217.052 245.094L217.051 245.094C216.691 245.174 216.329 245.255 216.004 245.408C214.83 245.96 213.668 246.545 212.524 247.163C212.146 247.368 211.784 247.601 211.422 247.835L211.421 247.835L211.421 247.836C211.093 248.047 210.764 248.259 210.423 248.449C210.236 248.554 210.033 248.636 209.831 248.718C209.306 248.929 208.784 249.139 208.529 249.751C208.509 249.798 208.449 249.829 208.389 249.86L208.389 249.86C208.378 249.866 208.367 249.871 208.356 249.877C208.342 249.885 208.327 249.893 208.315 249.902C208.448 249.905 208.585 249.918 208.721 249.931C209.026 249.961 209.332 249.99 209.608 249.911C210.075 249.78 210.519 249.568 210.963 249.355L210.963 249.355L210.964 249.355C211.115 249.282 211.266 249.21 211.418 249.141C211.638 249.041 211.855 248.933 212.073 248.825L212.073 248.825C212.494 248.616 212.916 248.407 213.357 248.256C213.618 248.167 213.902 248.15 214.188 248.133C214.391 248.12 214.596 248.108 214.794 248.069C215.162 247.998 215.526 247.901 215.89 247.803L215.891 247.803L215.893 247.802L215.895 247.801C216.009 247.771 216.123 247.74 216.237 247.71L216.315 247.69L216.38 247.674L216.443 247.658C216.532 247.636 216.628 247.631 216.721 247.631C217.115 247.63 217.514 247.65 217.913 247.67C218.868 247.718 219.822 247.765 220.703 247.532C221.059 247.439 221.378 247.469 221.691 247.499C221.947 247.523 222.199 247.548 222.464 247.503C222.973 247.419 223.55 247.655 224.1 247.88L224.102 247.881L224.103 247.882L224.199 247.921C224.242 247.938 224.285 247.956 224.328 247.973C224.379 247.993 224.43 248.013 224.48 248.032C225.083 248.26 225.716 248.506 226.213 248.898C226.795 249.361 227.328 249.885 227.861 250.409L227.862 250.41C228.087 250.631 228.311 250.852 228.54 251.068C228.519 251.09 228.497 251.115 228.474 251.142L228.461 251.157L228.431 251.193L228.399 251.231C228.295 251.359 228.19 251.486 228.144 251.468C227.922 251.379 214.172 249.663 208.801 252.602C206.853 253.668 208.646 261.41 208.796 262.057L208.801 262.082C209.608 265.585 222.195 267.604 226.984 266.803C232.749 265.839 233.095 259.813 233.207 257.859C233.227 257.516 233.24 257.298 233.273 257.256C233.582 256.86 234.074 256.647 234.513 257.014C234.721 257.188 234.86 257.526 234.895 257.804C234.927 258.067 235.01 258.318 235.09 258.562L235.09 258.562C235.154 258.756 235.216 258.945 235.25 259.133C235.357 259.724 235.738 260.096 236.123 260.47C236.393 260.733 236.664 260.997 236.844 261.34ZM96.9561 225.26C96.7755 225.22 96.5953 225.179 96.475 225.247C96.0552 225.481 78.1996 233.47 65.7326 226.635C65.5813 226.552 65.365 226.44 65.1059 226.306L65.1045 226.306L65.1033 226.305L65.0987 226.303L65.0973 226.302C63.5367 225.495 60.4444 223.897 60.6297 222.991C61.1343 220.525 68.1894 217.136 69.1073 216.695C69.1668 216.666 69.2005 216.65 69.205 216.647C69.1653 216.585 69.1292 216.51 69.093 216.435C69.0131 216.271 68.9333 216.106 68.8149 216.071C68.4739 215.97 68.076 215.957 67.724 216.024C67.3129 216.102 62.8385 217.099 62.0547 217.596C61.2306 218.119 58.9754 220.867 59.0168 221.753C59.0346 222.132 58.9084 222.517 58.7814 222.903C58.7149 223.106 58.6482 223.309 58.6019 223.512C58.5748 223.631 58.5695 223.761 58.5643 223.89C58.556 224.093 58.5478 224.294 58.4531 224.443C58.3497 224.606 58.2278 224.868 58.0801 225.185L58.0801 225.185C57.7899 225.807 57.4002 226.644 56.8556 227.366C56.4471 227.908 55.892 228.364 55.4699 228.71C55.2177 228.917 55.0131 229.085 54.9157 229.209C54.8572 229.284 54.78 229.358 54.7011 229.435C54.4831 229.646 54.252 229.869 54.3638 230.136C54.5151 230.497 55.0478 230.32 55.3342 230.225L55.3404 230.223C55.7575 230.086 56.1542 229.82 56.4949 229.532C56.972 229.128 57.4218 228.682 57.8243 228.205C58.2366 227.715 58.6392 227.197 58.9339 226.635C59.2593 226.011 59.9789 225.753 60.6297 226.201C78.9365 238.789 96.211 226.79 97.0177 226.073C97.1284 225.975 97.1479 225.775 97.1676 225.574C97.1766 225.482 97.1857 225.389 97.2036 225.306C97.1251 225.298 97.0405 225.279 96.9561 225.26ZM179.633 154.498C179.272 154.86 178.913 155.215 178.556 155.567C177.659 156.453 176.779 157.321 175.948 158.234C175.656 158.555 175.474 158.976 175.292 159.397C175.213 159.579 175.134 159.761 175.047 159.934C174.577 160.867 173.882 161.218 172.661 161.747C171.955 162.054 171.216 162.346 170.563 162.218C170.105 162.129 169.644 162.135 169.191 162.142C168.688 162.15 168.193 162.157 167.718 162.033C167.14 161.881 166.506 161.384 166.215 160.864C165.962 160.414 166.245 159.829 166.748 159.345C167.303 158.811 167.781 158.199 168.26 157.585L168.26 157.585C168.537 157.231 168.814 156.876 169.106 156.536C169.418 156.172 169.728 155.805 170.038 155.439C171.063 154.227 172.088 153.015 173.209 151.9C174.135 150.978 175.287 150.384 176.646 150.001C177.882 149.654 178.826 149.74 179.931 150.212C180.343 150.389 180.819 150.414 181.296 150.439C181.528 150.451 181.761 150.463 181.987 150.493C182.707 150.588 183.134 151.267 182.67 151.597C182.26 151.89 181.495 152.177 181.152 151.987C179.271 150.944 177.395 151.19 175.553 151.891C175.062 152.077 174.655 152.505 174.256 152.924L174.256 152.924L174.256 152.924C174.128 153.058 174.001 153.191 173.873 153.315C172.887 154.269 171.904 155.227 170.969 156.229C170.607 156.617 170.297 157.054 169.987 157.491L169.987 157.491C169.872 157.653 169.758 157.814 169.64 157.973C169.563 158.079 169.485 158.184 169.407 158.289C169.012 158.822 168.617 159.355 168.25 159.906C167.977 160.316 168.012 160.393 168.439 160.53C169.505 160.869 170.546 160.803 171.606 160.417C172.9 159.946 173.645 158.959 174.418 157.934C174.512 157.809 174.607 157.683 174.704 157.558C175.334 156.737 176.099 156.019 176.864 155.301C177.198 154.988 177.531 154.675 177.854 154.354C177.888 154.319 177.924 154.285 177.96 154.25L178.026 154.188C178.13 154.09 178.233 153.992 178.328 153.887C178.797 153.36 179.27 152.853 180.068 152.895C180.104 152.897 180.14 152.852 180.179 152.803C180.209 152.766 180.24 152.727 180.274 152.705C180.325 152.672 180.386 152.655 180.446 152.639C180.473 152.631 180.5 152.624 180.526 152.615C180.522 152.642 180.52 152.67 180.518 152.698C180.514 152.759 180.509 152.819 180.485 152.869C180.222 153.399 179.95 153.924 179.633 154.498ZM186.73 146.997C188.059 145.74 189.397 144.475 190.303 142.766C190.084 142.694 189.864 142.677 189.645 142.66C189.542 142.653 189.44 142.645 189.338 142.631C189.168 142.609 188.997 142.566 188.826 142.523C188.528 142.448 188.232 142.373 187.948 142.41C187.422 142.477 186.878 142.693 186.422 142.973C185.753 143.384 185.041 143.711 184.327 144.039C183.275 144.522 182.219 145.007 181.293 145.766C181.039 145.974 180.914 146.207 180.794 146.429C180.698 146.608 180.606 146.779 180.454 146.926C180.481 146.931 180.508 146.936 180.535 146.941L180.594 146.952L180.682 146.968L180.682 146.968L180.682 146.968C180.851 146.999 181.02 147.03 181.185 147.074C181.579 147.179 181.972 147.288 182.365 147.397C182.699 147.49 183.033 147.582 183.368 147.672C183.4 147.681 183.432 147.69 183.464 147.699C183.522 147.715 183.58 147.732 183.638 147.748C183.927 147.831 184.216 147.914 184.51 147.946L184.542 147.95L184.575 147.954C184.598 147.956 184.622 147.959 184.646 147.963C184.684 147.968 184.724 147.973 184.765 147.979C185.151 148.032 185.591 148.093 185.77 147.917C186.085 147.607 186.407 147.302 186.73 146.997ZM186.733 144.179C186.765 144.193 186.798 144.206 186.826 144.215C187.043 144.054 187.359 144.012 187.453 144.137C187.577 144.302 187.639 144.733 187.537 144.816C186.879 145.352 186.192 145.864 185.462 146.296C185.183 146.461 184.764 146.436 184.414 146.412C184.305 146.405 184.096 146.068 184.138 145.968L184.161 145.912L184.189 145.844L184.191 145.84C184.334 145.49 184.519 145.037 184.734 145.009C185.402 144.923 185.899 144.588 186.409 144.244C186.459 144.211 186.509 144.177 186.559 144.144C186.594 144.121 186.664 144.15 186.733 144.179ZM217.677 208.281C215.607 208.036 213.562 208.036 211.523 208.035C210.894 208.035 210.266 208.035 209.637 208.028C209.251 208.024 208.811 207.945 208.5 207.742C208.315 207.622 208.243 207.172 208.295 206.905C208.33 206.735 208.687 206.51 208.896 206.514C209.297 206.522 209.974 206.49 210.79 206.452L210.79 206.452L210.792 206.451L210.793 206.451C212.735 206.36 215.462 206.231 217.116 206.514C220.913 207.165 222.881 209.59 222.767 209.579C222.592 209.564 222.413 209.556 222.234 209.548H222.234C221.779 209.528 221.322 209.509 220.913 209.36C220.599 209.246 220.294 209.109 219.986 208.971L219.986 208.971L219.986 208.971L219.986 208.971L219.986 208.971L219.986 208.971L219.985 208.97L219.985 208.97C219.263 208.646 218.534 208.319 217.677 208.281ZM196.029 139.854C196.765 139.561 196.794 139.126 196.096 138.711C195.897 138.766 195.721 138.828 195.554 138.887C195.362 138.955 195.184 139.018 195 139.058C194.603 139.147 194.204 139.226 193.804 139.305L193.804 139.305C193.198 139.426 192.591 139.546 191.993 139.698C191.78 139.752 191.471 140.106 191.497 140.277C191.542 140.577 191.744 140.861 191.933 141.127L191.96 141.166L191.992 141.21C192.027 141.26 192.282 141.185 192.419 141.127C192.591 141.054 192.76 140.973 192.929 140.892C193.202 140.76 193.475 140.629 193.76 140.533C194.078 140.427 194.402 140.341 194.727 140.255C195.168 140.138 195.608 140.021 196.029 139.854ZM198.22 137.552C198.231 136.936 198.235 136.936 199.123 136.784L199.215 136.769C199.403 136.737 199.583 136.659 199.763 136.58C199.912 136.516 200.06 136.451 200.215 136.412C200.293 136.392 200.538 136.629 200.519 136.693C200.507 136.733 200.495 136.776 200.483 136.821L200.483 136.821C200.402 137.112 200.298 137.482 200.142 137.515C199.968 137.551 199.794 137.639 199.619 137.727C199.169 137.955 198.713 138.187 198.22 137.552ZM203.366 135.207C203.439 135.199 203.511 135.191 203.579 135.187C204.115 135.09 204.13 134.755 204.144 134.432C204.15 134.289 204.156 134.148 204.207 134.03C204.128 134.045 204.048 134.056 203.968 134.067C203.787 134.092 203.607 134.116 203.441 134.179C203.406 134.193 203.368 134.206 203.329 134.221C203.066 134.317 202.743 134.435 202.692 134.611C202.491 135.306 202.934 135.256 203.366 135.207ZM209.566 132.869C209.528 132.886 209.491 132.903 209.455 132.919C209.295 132.992 209.157 133.055 209.037 133.03C208.867 132.994 208.706 132.916 208.545 132.839C208.477 132.806 208.409 132.773 208.34 132.743C208.433 132.716 208.527 132.687 208.62 132.658L208.62 132.658C208.835 132.591 209.049 132.524 209.269 132.48C209.591 132.415 209.666 132.507 209.566 132.869ZM241.537 106.897C241.58 107.07 241.623 107.246 241.672 107.426C241.723 107.601 241.781 107.745 241.835 107.877L241.835 107.878L241.835 107.878C241.879 107.988 241.92 108.09 241.952 108.195C242.334 109.46 242.49 110.75 242.461 112.076C242.455 112.365 242.524 112.655 242.594 112.945L242.594 112.946C242.647 113.167 242.7 113.388 242.72 113.611C242.745 113.887 242.739 114.171 242.733 114.455V114.455V114.455V114.455V114.455V114.456V114.456V114.456V114.456V114.456C242.723 114.962 242.712 115.464 242.877 115.903C243.135 116.596 243.074 117.264 243.014 117.913C243.003 118.037 242.992 118.16 242.983 118.282C242.904 119.335 242.498 120.246 241.386 120.835C241.067 121.004 240.749 121.05 240.435 121.095C240.155 121.136 239.879 121.176 239.609 121.302C239.241 121.473 238.841 121.532 238.436 121.592C237.92 121.668 237.394 121.745 236.909 122.057C236.624 122.24 236.244 122.273 235.863 122.306C235.495 122.338 235.126 122.37 234.839 122.537C234.188 122.914 233.733 122.878 233.203 122.487C232.961 122.308 232.723 122.123 232.485 121.938C232.266 121.768 232.046 121.597 231.823 121.431C231.562 121.237 231.293 121.051 231.015 120.883C230.72 120.704 230.362 120.607 230.024 120.517C229.706 120.431 229.407 120.351 229.198 120.211C228.62 119.827 228.155 119.972 227.701 120.115C227.487 120.182 227.276 120.248 227.057 120.258C226.88 120.266 226.714 120.534 226.549 120.801C226.474 120.923 226.399 121.044 226.323 121.141C226.44 121.201 226.562 121.282 226.685 121.363C226.956 121.543 227.227 121.722 227.439 121.669C227.502 121.652 227.564 121.636 227.625 121.619L227.625 121.619C228.102 121.491 228.516 121.379 229.007 121.702C229.228 121.848 229.482 121.944 229.736 122.04C229.963 122.126 230.191 122.213 230.395 122.334L230.467 122.377L230.524 122.41L230.608 122.46C231.171 122.791 231.747 123.129 232.188 123.587C232.873 124.298 233.613 124.559 234.598 124.264C235.286 124.058 235.981 123.875 236.676 123.692L236.677 123.692C237.213 123.551 237.749 123.41 238.282 123.258C238.569 123.177 238.856 123.102 239.144 123.028C240.37 122.71 241.589 122.395 242.647 121.545C244.265 120.244 244.317 118.479 244.12 116.751C244.085 116.444 244.044 116.137 244.003 115.829L244.003 115.828L244.002 115.827L244.002 115.826L244.002 115.825L244.002 115.825C243.911 115.144 243.82 114.46 243.788 113.768C243.763 113.217 243.778 112.663 243.792 112.109C243.829 110.736 243.865 109.364 243.3 108.029C243.134 107.639 243.041 107.218 242.948 106.797L242.948 106.797C242.858 106.391 242.768 105.985 242.614 105.605C242.334 104.913 241.896 104.273 241.457 103.661L241.404 103.587C241.112 103.179 240.742 102.661 240.358 102.615C240.026 102.574 239.664 102.774 239.302 102.975L239.302 102.975C239.145 103.062 238.988 103.149 238.833 103.216C238.913 103.269 238.994 103.322 239.075 103.375C239.268 103.501 239.461 103.628 239.65 103.759C239.752 103.831 239.85 103.918 239.932 104.014C240.043 104.145 240.162 104.273 240.28 104.401C240.569 104.712 240.859 105.023 241.044 105.387C241.276 105.842 241.402 106.351 241.537 106.897L241.537 106.897L241.537 106.897ZM225.603 125.45L225.595 125.434C225.529 125.406 225.464 125.4 225.418 125.397C225.386 125.394 225.364 125.392 225.361 125.383C225.291 125.189 225.232 124.992 225.172 124.794L225.169 124.783L225.127 124.647C225.1 124.736 225.065 124.825 225.029 124.915C224.95 125.113 224.871 125.312 224.886 125.504C224.984 126.818 225.104 128.09 225.749 129.339C226.039 129.901 226.151 130.551 226.263 131.203C226.358 131.755 226.453 132.308 226.657 132.814L226.736 133.01L226.736 133.01C227.106 133.931 227.473 134.845 227.653 135.818C227.721 136.183 227.642 136.611 227.514 136.968C227.365 137.386 227.064 137.72 226.763 138.056C226.307 138.563 225.85 139.071 225.909 139.871C225.915 139.942 225.847 140.02 225.78 140.097L225.754 140.126L225.735 140.149C225.719 140.169 225.704 140.188 225.691 140.207C225.738 140.19 225.786 140.175 225.834 140.16L225.834 140.16L225.834 140.16L225.835 140.16L225.835 140.159L225.835 140.159C225.947 140.125 226.06 140.09 226.149 140.024C226.203 139.985 226.236 139.917 226.269 139.85C226.3 139.786 226.331 139.721 226.381 139.682C226.524 139.568 226.668 139.458 226.812 139.349C227.667 138.697 228.488 138.071 228.872 136.846C229.208 135.775 229.092 134.941 228.719 134.055C228.508 133.555 228.251 133.067 227.994 132.58C227.535 131.709 227.078 130.841 226.89 129.915C226.643 128.688 226.356 127.488 225.981 126.301C225.893 126.025 225.761 125.764 225.603 125.45ZM253.452 165.94C253.046 165.858 252.68 165.772 252.328 165.69C252.132 165.644 251.939 165.599 251.746 165.556L251.597 165.522L251.379 165.473C250.878 165.359 250.377 165.244 249.869 165.169C249.595 165.128 249.315 165.119 249.035 165.111C248.829 165.105 248.622 165.099 248.417 165.08C248.108 165.051 247.782 165.019 247.504 164.898C247.255 164.792 247.027 164.641 246.799 164.49C246.749 164.457 246.699 164.424 246.65 164.392C246.601 164.36 246.551 164.328 246.501 164.298C246.63 164.292 246.759 164.289 246.889 164.285L246.89 164.285C247.192 164.278 247.495 164.27 247.793 164.235C247.94 164.217 248.086 164.174 248.232 164.131C248.424 164.074 248.616 164.017 248.807 164.022L249.011 164.027C250.311 164.059 251.613 164.09 252.905 164.22C253.743 164.304 254.574 164.483 255.403 164.661L255.404 164.662C255.6 164.704 255.795 164.746 255.991 164.787C256.718 164.938 257.439 165.12 258.16 165.302L258.403 165.363C259.046 165.524 259.684 165.697 260.322 165.87L260.589 165.942C260.681 165.967 260.77 166.002 260.858 166.037L260.859 166.037L260.859 166.038L260.859 166.038L260.859 166.038C260.9 166.054 260.942 166.071 260.983 166.086C260.951 166.131 260.918 166.189 260.885 166.247L260.885 166.247C260.813 166.374 260.74 166.501 260.668 166.5C260.325 166.498 259.981 166.56 259.637 166.623C258.919 166.753 258.199 166.883 257.47 166.43C257.34 166.349 257.191 166.366 257.019 166.384C256.802 166.408 256.549 166.436 256.26 166.272C255.745 165.982 255.071 165.976 254.364 165.97C254.063 165.968 253.755 165.965 253.452 165.94ZM101.062 198.667L101.062 198.667L101.062 198.667C111.97 197.296 121.065 196.154 121.042 195.858C121.041 195.839 121.056 195.79 121.078 195.719C121.218 195.258 121.645 193.861 119.764 193.837C111.689 193.735 88.2471 196.485 66.2175 201.207C34.9612 207.616 16.9536 216.548 17.1674 217.156C17.2646 217.432 25.0367 215.153 34.5754 212.355C46.0217 208.998 60.0116 204.894 66.336 203.566L67.0405 203.42C73.072 202.184 88.3061 200.27 101.062 198.667ZM74.4479 218.003C76.4307 218.003 79.2927 218.218 82.9548 219.46L83.874 219.774C84.5741 220.016 85.875 220.373 87.7604 220.839C88.1983 220.947 88.4656 221.389 88.3574 221.827C88.2492 222.265 82.6645 221.086 82.6645 221.086C78.889 219.799 77.3823 219.447 75.6178 219.525C73.9 219.601 70.2706 220.934 67.5143 221.946C65.5679 222.661 64.0568 223.216 63.9617 223.055C63.7318 222.667 64.0038 222.175 64.2481 221.937C66.722 219.525 68.0928 218.844 74.4479 218.003ZM209.194 203.964C209.328 203.847 209.43 203.69 209.48 203.506C209.615 203.008 205.764 202.261 203.17 203.23C202.644 203.427 202.178 203.733 201.667 204.178C201.581 204.253 201.392 204.514 201.157 204.837C200.772 205.367 200.266 206.064 199.897 206.381C199.304 206.892 198.297 207.435 197.607 207.782C197.327 207.923 196.265 208.158 195.067 208.424L195.067 208.424C193.149 208.848 190.884 209.35 190.935 209.663C191.018 210.172 191.955 210.095 192.464 210.011C193.347 209.866 194.11 209.756 194.773 209.659L194.776 209.659L194.776 209.659C196.476 209.412 197.526 209.259 198.293 208.873C199.128 208.452 199.849 207.956 200.551 207.352C200.663 207.256 200.82 207.112 200.998 206.946L201.561 206.411C201.473 207.127 201.713 207.817 202.32 208.306L202.551 208.49C209.782 214.208 217.603 215.073 225.857 211.079L225.986 211.016L226.046 211.344C226.26 212.433 226.567 213.341 226.972 214.069C227.573 215.147 228.597 216.205 230.039 217.263L231.144 215.758L230.96 215.622C229.817 214.759 229.034 213.933 228.603 213.161C228.147 212.342 227.826 211.114 227.66 209.486L227.519 208.091L226.286 208.761L226.041 208.892C217.964 213.189 210.509 212.512 203.492 206.853C203.451 206.82 203.409 206.257 203.492 206.014C203.639 205.586 203.974 204.731 204.834 204.435C205.395 204.242 209.194 203.964 209.194 203.964ZM267.59 154.849L267.202 154.146C266.91 153.623 266.531 152.952 266.344 152.644L266.283 152.546C265.521 151.366 265.382 149.87 265.577 147.448L265.658 146.553L265.733 145.774C265.953 143.374 265.897 142.46 265.458 141.987L265.392 141.919C264.954 141.497 264.443 141.503 262.598 141.912L262.148 142.014C260.017 142.503 258.607 142.622 256.979 142.234L255.57 141.884C255.209 141.796 254.851 141.708 254.595 141.646C254.402 141.599 254.266 141.566 254.233 141.557L253.851 141.46C250.492 140.58 249.078 139.634 248.549 137.344C248.423 136.798 248.474 136.233 248.673 135.528L248.718 135.375C248.846 134.95 249.472 133.263 249.472 133.263C249.613 132.864 249.732 132.499 249.837 132.132L249.972 131.655C250.086 131.248 250.203 130.816 250.326 130.353L251.601 125.361C251.83 124.481 252.025 123.751 252.105 123.504L252.467 122.44L252.619 122.009C252.719 121.733 252.815 121.479 252.913 121.232C253.71 119.235 254.556 118.002 255.749 117.662C256.848 117.348 257.657 117.391 258.542 117.744C258.727 117.818 259.206 118.046 259.569 118.219L259.569 118.219L259.57 118.22C259.765 118.313 259.927 118.39 259.991 118.418C260.879 118.811 261.788 119.06 263.019 119.184L263.254 119.206C263.848 119.256 264.337 119.191 265.786 118.874L266.826 118.644C267.932 118.404 268.656 118.285 269.449 118.236C270.169 118.191 270.838 118.222 271.475 118.343C272.525 118.541 274.134 119.195 276.343 120.307C276.689 120.481 276.828 120.902 276.654 121.247C276.48 121.592 276.059 121.731 275.714 121.558L275.302 121.352C273.415 120.42 272.042 119.875 271.215 119.718C270.7 119.621 270.146 119.595 269.536 119.633C268.786 119.68 268.079 119.8 266.923 120.056L266.053 120.249C264.509 120.587 263.952 120.662 263.211 120.607L263.136 120.601C261.624 120.472 260.507 120.177 259.425 119.699L258.217 119.129C258.133 119.091 258.066 119.061 258.023 119.044C257.425 118.805 256.933 118.779 256.133 119.008C255.515 119.184 254.853 120.149 254.213 121.751C254.098 122.041 253.985 122.344 253.864 122.688L253.44 123.925C253.251 124.475 251.876 129.947 251.83 130.135L251.605 130.99C251.458 131.538 251.318 132.045 251.183 132.518C251.092 132.835 250.992 133.149 250.879 133.479L250.792 133.73C250.679 134.05 250.578 134.335 250.488 134.588C249.858 136.369 249.781 136.585 249.83 136.768C249.837 136.793 249.846 136.818 249.856 136.846C249.872 136.887 249.89 136.936 249.907 137.005L249.913 137.029C250.298 138.694 251.363 139.381 254.395 140.154L257.147 140.833C258.531 141.191 259.734 141.116 261.615 140.699L262.808 140.429C263.602 140.253 263.803 140.23 264.26 140.212C265.177 140.175 265.911 140.418 266.484 141.035C267.322 141.936 267.4 142.963 267.13 145.878L266.991 147.347L266.958 147.758C266.815 149.694 266.928 150.894 267.408 151.704L267.558 151.947C267.702 152.186 267.919 152.565 268.132 152.944L268.814 154.168L268.905 154.326C269.815 155.893 270.566 156.772 271.364 157.076L271.45 157.106C272.47 157.44 273.732 156.776 275.361 154.661L275.572 154.387C275.818 154.082 276.07 153.89 277.228 153.173L279.016 152.074L279.232 151.938C280.349 151.23 281.006 150.703 281.152 150.405C282.862 146.914 283.952 141.465 283.623 135.27C283.582 134.493 283.169 133.303 282.376 131.736L282.281 131.551L282.238 131.526C280.366 130.462 279.004 129.451 278.146 128.476L278.046 128.359C277.168 127.314 276.285 125.609 275.375 123.228C275.237 122.867 275.417 122.462 275.779 122.324C276.14 122.186 276.544 122.367 276.682 122.728C277.541 124.976 278.361 126.557 279.118 127.459C279.815 128.289 281.021 129.206 282.728 130.193L283.148 130.431L283.33 130.533L283.426 130.718C284.429 132.632 284.964 134.11 285.021 135.195C285.363 141.627 284.225 147.314 282.409 151.021C282.101 151.65 281.345 152.256 279.981 153.12L279.642 153.333L278.194 154.222C276.992 154.965 276.751 155.144 276.587 155.361C274.587 158.013 272.752 159.006 271.013 158.436C269.71 158.009 268.745 156.875 267.59 154.849ZM288.758 112.861C288.407 112.699 287.991 112.852 287.829 113.203C287.479 113.961 286.933 114.437 286.15 114.668C285.589 114.834 284.961 114.93 284.192 114.98C283.924 114.997 283.693 115.008 283.349 115.018L282.167 115.048C280.273 115.109 279.448 115.27 278.62 115.866C277.523 116.656 277.063 119.182 277.448 120.637L277.468 120.716C277.474 120.738 277.479 120.759 277.485 120.782C277.493 120.817 277.502 120.855 277.511 120.894L277.558 121.105C277.567 121.149 277.656 121.572 277.707 121.805L277.772 122.099C277.831 122.353 277.89 122.58 277.955 122.801C278.214 123.683 278.558 124.398 279.063 124.987C279.133 125.069 279.328 125.421 279.543 125.825L280.278 127.23C280.872 128.277 281.49 129.038 282.271 129.548C282.601 129.762 282.902 129.851 283.467 129.953L283.718 129.999C284.177 130.084 284.394 130.138 284.667 130.245L284.879 130.331C285.092 130.413 285.344 130.473 285.707 130.536L285.967 130.579C285.953 130.577 286.579 130.672 286.931 130.728L287.308 130.793C287.668 130.858 287.986 130.928 288.29 131.01C288.586 131.09 288.861 131.18 289.115 131.283L289.277 131.346C289.535 131.444 289.751 131.504 290.131 131.594L290.483 131.675C290.644 131.713 290.759 131.743 290.862 131.775L290.982 131.815C291.433 131.977 291.815 132.26 292.294 132.853C292.928 133.638 292.928 134.007 292.44 134.344C292.122 134.564 292.043 135 292.263 135.318C292.483 135.636 292.919 135.715 293.237 135.495C294.48 134.635 294.48 133.332 293.383 131.973C292.748 131.187 292.157 130.749 291.454 130.497C291.314 130.447 291.185 130.408 291.024 130.366L290.814 130.315L290.377 130.213C290.104 130.148 289.945 130.101 289.764 130.034L289.451 129.912C289.198 129.818 288.934 129.734 288.656 129.659C288.243 129.547 287.815 129.457 287.321 129.374L285.979 129.162C285.661 129.107 285.466 129.061 285.354 129.013C284.92 128.83 284.654 128.753 284.109 128.648L283.623 128.558C283.299 128.497 283.15 128.449 283.036 128.375C282.478 128.011 279.489 123.055 279.298 122.406C279.227 122.164 279.163 121.908 279.095 121.6L278.899 120.687C278.882 120.609 278.866 120.538 278.849 120.47L278.801 120.278C278.549 119.324 278.902 117.388 279.439 117.001C279.981 116.611 280.684 116.49 282.412 116.441L283.399 116.417C283.755 116.407 283.997 116.395 284.283 116.377L284.538 116.358C285.292 116.297 285.94 116.19 286.547 116.011C287.718 115.665 288.582 114.912 289.1 113.79C289.262 113.439 289.109 113.023 288.758 112.861Z" fill="#00160A"/>
<path fill-rule="evenodd" clip-rule="evenodd" d="M125.222 185.638C125.48 185.134 125.699 184.694 126.005 184.326C126.315 183.954 126.707 183.648 127.076 183.329C127.112 183.297 127.316 183.376 127.314 183.397C127.309 183.508 127.296 183.654 127.224 183.722C126.676 184.243 126.63 184.936 126.462 185.619C126.278 186.366 126.465 186.952 126.806 187.575C127.033 187.99 127.198 188.447 127.341 188.901C127.64 189.857 127.935 190.817 128.174 191.79C128.336 192.446 128.485 193.125 128.491 193.795C128.522 197.175 128.504 200.554 128.506 203.933C128.507 205.66 128.482 207.387 128.533 209.112C128.549 209.675 128.854 210.23 128.864 210.792C128.872 211.245 128.644 211.707 128.494 212.156C128.473 212.22 128.241 212.294 128.208 212.262C127.97 212.028 127.573 211.77 127.569 211.515C127.538 209.53 127.615 207.543 127.595 205.558C127.586 204.662 127.38 203.769 127.357 202.872C127.305 200.784 127.54 198.658 127.218 196.616C126.967 195.021 127.028 193.502 127.052 191.933C127.058 191.581 126.076 191.142 125.489 190.87C124.728 190.517 124.244 190.989 123.883 191.623C123.85 191.68 123.714 191.708 123.713 191.75C123.696 195.44 123.672 199.129 123.687 202.818C123.691 203.886 123.814 204.953 123.867 206.021C123.886 206.421 123.844 206.629 124.458 206.536C125.497 206.378 126.86 207.912 126.56 208.789C126.328 209.463 125.909 210.073 125.676 210.748C125.152 212.27 124.005 213.742 124.511 215.396C124.895 216.652 125.726 217.825 126.575 218.858C126.914 219.27 127.84 219.183 128.486 219.364C128.705 219.426 128.959 219.579 129.058 219.764C129.123 219.886 128.983 220.202 128.842 220.31C128.758 220.376 128.496 220.206 128.312 220.146C128.01 220.048 127.713 219.903 127.404 219.866C125.949 219.698 125.868 219.609 125.207 217.989C124.97 217.408 124.526 216.914 124.274 216.337C124.036 215.793 123.902 215.199 123.77 214.615C123.643 214.053 123.474 213.47 123.511 212.909C123.554 212.248 123.747 211.581 123.973 210.952C124.175 210.39 124.522 209.882 124.774 209.336C124.803 209.273 124.654 209.091 124.549 209.016C124.493 208.976 124.338 209.019 124.26 209.072C123.506 209.586 123.148 210.415 122.671 211.141C122.514 211.38 122.563 211.754 122.519 212.067C122.454 212.533 122.328 213.002 122.339 213.468C122.359 214.329 122.262 215.266 122.566 216.031C123.198 217.623 123.81 219.302 125.099 220.486C125.574 220.923 126.362 221.131 127.152 221.237C128.194 221.376 129.182 221.075 130.203 221.191C130.67 221.245 131.177 220.838 131.666 220.84C132.261 220.842 132.728 220.515 133.255 220.43C133.857 220.332 134.354 220.073 134.879 219.824C135.735 219.418 136.665 219.129 137.446 218.613C138.142 218.153 138.672 217.448 139.286 216.863C140.235 215.96 141.034 214.962 141.671 213.8C141.952 213.288 142.396 212.899 142.213 212.251C142.184 212.15 142.112 211.989 142.052 211.985C141.916 211.975 141.732 212.004 141.643 212.093C139.635 214.121 137.675 216.2 135.609 218.167C135.052 218.696 134.181 218.903 133.443 219.237C133.032 219.422 132.593 219.542 132.18 219.723C131.282 220.117 130.569 219.569 129.803 219.283C129.839 219.204 129.86 219.071 129.912 219.055C131.16 218.723 132.425 218.447 133.656 218.063C134.225 217.885 134.757 217.541 135.257 217.2C135.74 216.869 136.14 216.419 136.611 216.067C138.371 214.751 139.812 213.201 140.501 211.049C140.688 210.467 141.941 210.097 142.662 210.312C143.096 210.442 143.592 210.431 143.974 210.641C144.219 210.775 144.482 211.231 144.433 211.485C144.177 212.842 143.326 213.849 142.376 214.815C141.745 215.456 141.356 216.344 140.7 216.95C139.589 217.978 138.428 218.993 137.147 219.785C135.853 220.587 134.415 221.183 132.985 221.726C131.961 222.114 130.858 222.402 129.77 222.493C127.913 222.649 126.086 222.5 124.439 221.398C123.407 220.706 122.712 219.749 122.175 218.713C121.873 218.134 122.163 217.261 121.899 216.643C121.376 215.416 121.28 214.157 121.39 212.893C121.465 212.03 121.999 211.193 122.002 210.343C122.006 209.388 122.708 208.92 123.014 208.199C123.076 208.054 122.911 207.827 122.91 207.638C122.902 205.482 122.906 203.325 122.904 201.169C122.903 200.083 122.971 198.99 122.866 197.915C122.804 197.29 122.417 196.703 122.263 196.078C122.185 195.76 122.318 195.395 122.322 195.05C122.332 194.074 122.237 193.087 122.348 192.123C122.487 190.91 122.825 189.722 123.008 188.512C123.111 187.836 123.074 187.139 123.098 186.452C123.144 185.099 123.421 183.764 124.363 182.791C125.098 182.033 125.978 181.315 127.198 181.312C127.498 181.311 127.907 180.77 128.073 180.854C128.452 181.047 128.82 181.433 128.968 181.825C129.035 181.999 128.61 182.452 128.321 182.649C127.805 182.998 127.204 182.986 126.575 182.959C125.541 182.914 124.599 184.266 124.2 185.454C123.873 186.427 124.373 187.295 124.151 188.222C124.084 188.498 124.629 188.928 124.914 189.27C124.944 189.306 125.208 189.224 125.209 189.195C125.215 188.609 125.255 188.016 125.171 187.441C125.092 186.897 124.725 186.35 125.405 185.938C125.344 185.87 125.283 185.803 125.222 185.638Z" fill="#FFB61D"/>
<path fill-rule="evenodd" clip-rule="evenodd" d="M163.459 229.862C163.277 230.849 163.084 231.737 162.925 232.629C162.899 232.778 163.061 232.95 163.067 233.114C163.115 234.518 162.859 235.907 162.814 237.311C162.792 237.985 162.852 238.722 162.667 239.385C162.437 240.205 162.769 241.283 161.718 241.766C161.313 241.951 160.717 242.303 160.481 242.152C160.023 241.86 159.261 241.7 159.382 240.8C159.487 240.008 159.266 239.163 159.434 238.396C159.723 237.085 159.417 235.762 159.643 234.487C159.78 233.715 159.631 232.944 159.81 232.214C160.1 231.036 160.056 229.837 160.212 228.657C160.36 227.535 160.449 226.409 160.596 225.293C160.748 224.138 160.836 222.979 160.992 221.834C161.132 220.809 161.109 219.723 161.404 218.775C161.666 217.934 161.052 216.966 161.872 216.24C161.984 216.14 161.69 215.667 161.735 215.391C162.108 213.101 161.816 210.797 161.933 208.504C161.941 208.342 162.197 208.11 162.381 208.056C162.958 207.884 163.553 207.755 164.149 207.674C164.288 207.655 164.599 207.894 164.597 208.011C164.562 209.979 164.448 211.947 164.439 213.915C164.432 215.336 164.588 216.757 164.603 218.179C164.61 218.87 164.442 219.563 164.384 220.258C164.323 220.981 164.549 221.668 164.123 222.439C163.803 223.018 164.084 223.914 164.03 224.663C163.93 226.065 163.845 227.475 163.601 228.854C163.549 229.146 163.44 229.447 163.459 229.862ZM160.756 240.001C161.073 240.48 161.056 240.466 161.348 240.101C161.693 239.67 161.431 239.168 161.544 238.732C161.846 237.558 161.771 236.355 161.914 235.171C162.029 234.221 162.192 233.273 162.244 232.32C162.31 231.09 162.182 229.843 162.332 228.626C162.46 227.581 162.42 226.533 162.79 225.471C163.165 224.393 163.004 223.128 163.071 221.944C163.087 221.655 162.964 221.297 163.093 221.087C163.532 220.37 163.139 219.623 163.247 218.901C163.261 218.804 163.016 218.671 162.891 218.553C162.819 218.69 162.703 218.82 162.682 218.965C162.543 219.909 162.387 220.851 162.31 221.801C162.207 223.062 162.171 224.331 162.108 225.596C162.103 225.693 162.148 225.82 162.101 225.882C161.578 226.583 161.984 227.419 161.746 228.205C161.447 229.198 161.581 230.322 161.528 231.39C161.527 231.422 161.534 231.455 161.527 231.486C161.369 232.234 161.17 232.977 161.063 233.732C160.977 234.339 161.332 234.893 160.841 235.598C160.468 236.135 160.794 237.135 160.742 237.923C160.711 238.4 160.521 238.865 160.467 239.344C160.451 239.485 160.653 239.653 160.756 240.001ZM163.266 213.544C163.287 213.008 163.309 212.473 163.326 211.937C163.329 211.861 163.31 211.719 163.301 211.719C163.179 211.718 162.956 211.719 162.949 211.754C162.851 212.289 162.761 212.829 162.728 213.371C162.723 213.451 163.015 213.55 163.266 213.544Z" fill="#00160A"/>
<path fill-rule="evenodd" clip-rule="evenodd" d="M125.56 216.199C125.517 215.829 125.523 215.507 125.528 215.185C125.792 215.261 126.086 215.285 126.314 215.421C127.511 216.138 128.685 216.893 129.882 217.61C130.091 217.735 130.366 217.764 130.616 217.8C130.809 217.827 131.009 217.795 131.206 217.79C131.018 217.951 130.792 218.281 130.647 218.248C129.734 218.047 128.649 218.789 127.889 217.762C127.875 217.743 127.791 217.749 127.758 217.771C127.417 218.01 127.035 218.478 126.654 218.025C126.218 217.506 125.95 216.846 125.56 216.199Z" fill="#00160A"/>
<defs>
<linearGradient id="paint0_linear" x1="328" y1="179" x2="25" y2="179" gradientUnits="userSpaceOnUse">
<stop stop-color="#7EE8FF"/>
<stop offset="1" stop-color="#FFF066"/>
</linearGradient>
<linearGradient id="paint1_linear" x1="328" y1="179" x2="25" y2="179" gradientUnits="userSpaceOnUse">
<stop stop-color="#7EE8FF"/>
<stop offset="1" stop-color="#FFF066"/>
</linearGradient>
</defs>
</svg>
