<svg width="25" height="26" viewBox="0 0 25 26" fill="none" xmlns="http://www.w3.org/2000/svg">
<path d="M2.92969 0.132324C1.31445 0.132324 0 1.45957 0 3.09051C0 5.0232 0 20.4847 0 22.4174C0 24.0487 1.31445 25.3755 2.92969 25.3755C4.84375 25.3755 20.1562 25.3755 22.0703 25.3755C23.6859 25.3755 25 24.0487 25 22.4174C25 20.4847 25 5.0232 25 3.09051C25 1.45957 23.6859 0.132324 22.0703 0.132324C18.2422 0.132324 4.84375 0.132324 2.92969 0.132324ZM22.0703 24.1134C21.6992 24.1134 19.8438 24.1134 16.5039 24.1134V15.367H19.5211L20.0195 12.3102H16.5039C16.5039 11.0382 16.5039 10.3314 16.5039 10.1902C16.5039 9.3532 17.1398 8.71108 17.9688 8.71108C18.1023 8.71108 18.7695 8.71108 19.9707 8.71108V5.65428C18.7695 5.65428 18.1023 5.65428 17.9688 5.65428C15.4824 5.65428 13.4777 7.68794 13.4777 10.1988C13.4777 10.3397 13.4777 11.0433 13.4777 12.3102H10.5469V15.367H13.4777V24.1134C7.14883 24.1134 3.63281 24.1134 2.92969 24.1134C2.08333 24.1134 1.25 23.2719 1.25 22.4174C1.25 20.4847 1.25 5.0232 1.25 3.09051C1.25 2.23593 2.08333 1.39449 2.92969 1.39449C4.84375 1.39449 20.1562 1.39449 22.0703 1.39449C23.0469 1.39449 23.75 2.23593 23.75 3.09051C23.75 4.3791 23.75 10.8213 23.75 22.4174C23.75 23.2719 22.9167 24.1134 22.0703 24.1134Z" fill="white"/>
</svg>
