<svg width="350" height="350" viewBox="0 0 350 350" fill="none" xmlns="http://www.w3.org/2000/svg">
<rect width="350" height="350" fill="#F8F8F8"/>
<path fill-rule="evenodd" clip-rule="evenodd" d="M188.986 303.731C251.798 303.731 260.703 275.787 270.227 270.652C279.751 265.517 273.829 255.212 280.076 247.44C290.053 235.024 296.1 241.422 299.402 225.316C302.704 209.21 296.701 204.653 296.701 190.274C296.701 161.463 310.502 147.825 292.878 132.751C275.253 117.678 245.822 119.456 216.713 119.456C162.684 119.456 130.316 45.391 58.2547 67.6113C33.4208 75.2689 36.1655 85.7045 41.6222 122.583C43.9918 138.598 26.1006 158.959 29.2048 177.158C34.8743 210.396 49.8476 205.887 78.0988 228.329C82.8383 232.094 89.7509 232.055 94.9179 235.916C103.58 242.39 104.137 252.456 120.332 259.245C146.445 270.193 144.23 303.731 188.986 303.731Z" fill="#7EE8FF"/>
<path fill-rule="evenodd" clip-rule="evenodd" d="M188.986 303.731C251.798 303.731 260.703 275.787 270.227 270.652C279.751 265.517 273.829 255.212 280.076 247.44C290.053 235.024 296.1 241.422 299.402 225.316C302.704 209.21 296.701 204.653 296.701 190.274C296.701 161.463 310.502 147.825 292.878 132.751C275.253 117.678 245.822 119.456 216.713 119.456C162.684 119.456 130.316 45.391 58.2547 67.6113C33.4208 75.2689 36.1655 85.7045 41.6222 122.583C43.9918 138.598 26.1006 158.959 29.2048 177.158C34.8743 210.396 49.8476 205.887 78.0988 228.329C82.8383 232.094 89.7509 232.055 94.9179 235.916C103.58 242.39 104.137 252.456 120.332 259.245C146.445 270.193 144.23 303.731 188.986 303.731Z" fill="url(#paint0_linear)"/>
<ellipse cx="68.9064" cy="217.933" rx="15.8806" ry="14.9333" fill="#F8F8F8"/>
<path fill-rule="evenodd" clip-rule="evenodd" d="M62.6788 164.69C59.9715 157.928 62.3364 153.878 63.8522 148.59C65.1184 144.172 75.0203 136.997 79.5775 144.479C80.9182 146.68 80.3803 148.76 83.3105 150.695C90.4037 155.378 86.5341 145.662 86.7979 143.206C86.9265 142.008 85.9143 139.246 86.2912 138.089C86.6866 136.876 88.794 135.153 88.794 132.638C88.794 130.123 84.5072 129.155 83.3105 128.537C72.6762 123.046 65.913 113.876 69.2834 109.221C73.9792 102.737 92.3826 112.94 97.9123 113.876C97.9839 113.888 98.9715 108.732 99.7781 107.552C101.392 105.19 103.175 102.897 105.303 100.985C106.256 100.129 107.548 99.6002 108.818 99.4289C112.618 98.9161 116.506 98.4957 120.313 98.9601C121.658 99.1242 129.668 89.8535 132.791 86.863C156.755 63.9194 204.792 91.8786 178.607 129.871C173.795 136.854 167.641 139.074 166.846 141.542C165.08 147.024 176.194 146.303 180.902 146.889C188.945 147.889 192.909 152.021 187.916 159.102C184.806 163.514 166.559 163.289 158.567 160.098C155.6 158.914 151.934 153.737 149.13 157.984C147.198 160.91 139.666 167.118 131.586 170.63C127.938 172.215 123.784 171.26 120.672 172.675C116.291 174.668 103.359 183.033 97.9123 183.031C92.4268 183.029 85.3283 176.428 84.5072 175.995C83.2555 175.335 73.5724 173.443 68.7888 166.062C67.3423 163.829 63.6698 167.164 62.6788 164.69Z" fill="#F8F8F8"/>
<ellipse cx="155.817" cy="125.495" rx="1.68225" ry="1.6582" fill="#FFB61D"/>
<circle cx="143.5" cy="122.033" r="1.63333" fill="#FFB61D"/>
<ellipse cx="262.5" cy="120.633" rx="22.1667" ry="22.1667" fill="#F8F8F8"/>
<ellipse cx="193.189" cy="246.386" rx="64.4117" ry="55.053" fill="#F8F8F8"/>
<path fill-rule="evenodd" clip-rule="evenodd" d="M138.582 276.404L139.305 276.928C137.673 278.392 135.219 276.572 133.842 274.865C131.63 272.121 129.384 269.205 128.711 265.746C128.327 263.777 128.481 261.748 128.635 259.748L129.26 251.685C129.536 248.112 129.814 244.533 130.432 241.003C132.106 231.45 136.32 222.353 142.525 214.899L142.587 214.824L142.587 214.824C143.683 213.508 144.879 212.071 144.858 210.365C144.813 206.756 146.892 203.383 149.621 201.02C152.35 198.657 155.692 197.141 158.982 195.657C160.473 194.984 162.42 194.382 163.575 195.539C165.951 197.92 169.917 196.404 173.056 195.195C176.909 193.71 181.026 192.91 185.155 192.844C185.275 192.842 185.396 192.84 185.518 192.838C187.997 192.803 190.788 192.763 192.3 190.842C193.263 189.619 195.105 189.69 196.65 189.875L207.28 191.147C208.093 191.244 209.066 191.465 209.323 192.243C210.009 194.326 212.432 195.176 214.532 195.809C221.998 198.06 229.296 201.117 235.635 205.66C241.974 210.202 247.331 216.313 250.174 223.575C245.552 217.257 240.81 210.821 234.396 206.334C232.56 205.05 230.608 203.942 228.626 202.897C223.949 200.431 219.081 198.306 214.023 196.763C190.547 189.597 163.391 196.243 145.877 213.44C143.338 215.933 140.957 218.68 139.517 221.934L141.419 222.524C138.404 223.872 136.164 226.825 135.679 230.092C136.893 228.014 138.622 226.239 140.669 224.973C140.083 226.929 138.56 228.502 137.066 230.043C135.163 232.007 133.308 233.922 133.505 236.517C134.409 234.146 136.685 232.355 139.203 232.036C135.209 235.938 130.924 240.518 131.051 246.1C132.508 242.877 134.981 240.122 138.03 238.328L133.641 244.226C131.981 246.456 130.233 249.005 130.613 251.759C132.057 249.168 134.121 246.925 136.584 245.272C135.398 247.969 133.705 250.443 131.619 252.524C133.603 252.285 135.512 251.463 137.05 250.187C136.406 251.088 135.825 252.103 135.803 253.21C135.781 254.317 136.498 255.505 137.594 255.664C137.926 254.923 138.966 254.61 139.652 255.045C137.573 257.068 137.551 260.817 139.607 262.863C139.79 261.901 140.602 261.091 141.564 260.909C140.03 263.59 139.754 266.958 140.831 269.853C141.157 268.212 142.067 266.694 143.361 265.634C142.615 269.525 140.967 273.24 138.582 276.404ZM137.674 275.165C138.972 275.152 139.78 273.699 139.915 272.408C140.077 270.863 139.693 269.319 139.312 267.813L137.054 258.88C136.629 259.014 136.579 259.477 136.528 259.961C136.484 260.374 136.438 260.804 136.155 261.059C135.583 260.348 135.518 259.271 136 258.497C136.487 257.715 136.169 256.62 135.478 256.01C134.788 255.401 133.827 255.194 132.907 255.164C132.409 255.147 131.88 255.186 131.473 255.472C131.066 255.758 130.852 256.367 131.141 256.773C132.001 257.979 132.649 259.336 133.045 260.764C133.074 260.871 133.103 260.979 133.131 261.088L133.132 261.088C133.328 261.829 133.53 262.592 134.073 263.12C134.492 263.529 134.599 264.152 134.684 264.731L135.374 269.425C135.5 270.28 135.625 271.151 135.481 272.003C135.338 272.854 134.878 273.698 134.105 274.085L136.572 274.924C136.929 275.046 137.296 275.169 137.674 275.165ZM164.556 198.226C164.07 198.329 163.662 197.902 163.314 197.537L163.274 197.496C162.918 197.123 162.304 196.798 161.929 197.151C157.552 201.269 152.57 204.744 147.194 207.43C146.219 207.918 146.088 209.232 146.087 210.323C146.087 210.688 146.436 211.199 146.663 210.914C147.771 209.525 149.213 208.447 150.638 207.385C154.647 204.396 158.703 201.379 163.299 199.408C163.857 199.169 164.51 198.831 164.556 198.226ZM208.55 193.595C208.302 193.013 207.596 192.803 206.975 192.686C205.28 192.367 203.556 192.222 201.833 192.077C199.467 191.879 197.104 191.681 194.828 191.031C194.098 190.823 193.475 191.562 193.075 192.207C194.275 192.082 195.482 192.03 196.688 192.052C198.787 192.091 200.876 192.353 202.959 192.614C204.018 192.746 205.084 192.881 206.099 193.209C206.217 193.247 206.336 193.288 206.456 193.329L206.456 193.329C207.149 193.567 207.866 193.813 208.55 193.595ZM186.14 202.543C186.619 202.652 187.076 203.011 187.148 203.498C187.22 203.983 186.888 204.457 186.464 204.704C186.04 204.951 185.538 205.02 185.052 205.085L183.587 205.279C183.44 205.298 183.289 205.319 183.161 205.395C182.793 205.613 182.818 206.204 183.12 206.508C183.421 206.812 183.882 206.887 184.31 206.887C186.303 206.883 188.189 205.449 188.798 203.551C188.943 203.101 189.019 202.6 188.84 202.161C188.749 201.939 188.598 201.747 188.429 201.576C187.645 200.781 186.478 200.431 185.365 200.51C184.251 200.589 183.193 201.063 182.287 201.714C181.853 202.027 181.439 202.393 181.193 202.867C180.946 203.342 180.893 203.944 181.169 204.402C181.274 204.577 181.437 204.732 181.638 204.765C181.839 204.798 182.072 204.668 182.097 204.465C182.166 203.903 182.577 203.427 183.067 203.141C183.556 202.855 184.121 202.729 184.677 202.618C185.159 202.521 185.66 202.433 186.14 202.543ZM146.868 230.379C147.415 227.14 150.031 224.507 153.081 223.286C154.762 222.614 156.685 222.319 158.375 222.967C158.792 223.127 159.196 223.348 159.496 223.678C159.779 223.989 159.956 224.38 160.09 224.778C160.949 227.325 160.077 230.27 158.233 232.225C156.388 234.179 153.702 235.205 151.021 235.397C150.163 235.459 149.24 235.424 148.531 234.936C147.822 234.448 147.47 233.363 148.016 232.698C148.274 232.71 148.413 232.94 148.556 233.176C148.626 233.293 148.698 233.411 148.785 233.505C149.082 233.825 149.575 233.849 150.012 233.83C151.913 233.75 153.842 233.279 155.389 232.172C156.937 231.065 158.048 229.256 158.016 227.354C158.005 226.741 157.872 226.114 157.525 225.609C156.955 224.78 155.877 224.405 154.873 224.472C153.869 224.538 152.928 224.983 152.073 225.514C150.948 226.212 149.908 227.09 149.203 228.21C148.498 229.331 148.153 230.716 148.451 232.006C148.188 232.482 147.404 232.387 147.08 231.95C146.757 231.513 146.777 230.915 146.868 230.379ZM164.374 257.072C162.983 257.967 161.83 259.368 161.615 261.007C161.442 262.334 161.887 263.655 162.325 264.919C162.667 265.906 163.02 266.914 163.672 267.73C164.848 269.204 166.796 269.814 168.658 270.113C169.165 270.195 169.934 269.966 169.754 269.485C167.788 269.449 165.854 268.538 164.575 267.045C163.295 265.552 162.691 263.501 162.956 261.553C163.012 261.143 163.106 260.735 163.278 260.359C163.626 259.598 164.275 259.013 164.978 258.559C166.491 257.581 168.333 257.123 170.128 257.278C171.858 257.428 173.586 258.186 174.643 259.565C175.699 260.943 175.951 262.977 175.019 264.443C174.867 264.681 174.757 265.102 175.034 265.152C176.535 264.343 177.368 262.561 177.284 260.858C177.2 259.156 176.301 257.563 175.065 256.388C174.382 255.739 173.573 255.19 172.657 254.969C171.448 254.678 170.184 254.978 168.982 255.294C167.383 255.715 165.764 256.177 164.374 257.072ZM232.675 259.187C227.645 257.309 222.181 256.609 216.841 257.159C214.602 257.389 212.356 257.846 210.343 258.854C206.545 260.755 203.829 264.668 203.377 268.891C202.925 273.114 204.752 277.513 208.062 280.174C209.317 281.184 210.742 281.939 212.168 282.696L212.168 282.696L212.169 282.696C213.142 283.212 214.117 283.729 215.039 284.328C215.303 284.58 214.71 284.831 214.363 284.719C211.138 283.678 208.005 282.094 205.704 279.605C202.905 276.577 201.54 272.278 202.08 268.19C202.62 264.102 205.055 260.304 208.544 258.106C211.304 256.368 214.603 255.636 217.863 255.518C221.122 255.401 224.372 255.867 227.595 256.366C229.608 256.678 231.969 257.276 232.675 259.187ZM179.759 265.488C179.531 264.965 178.613 264.828 178.445 265.374C177.378 268.846 173.99 271.47 170.363 271.637C169.542 271.674 168.722 271.598 167.905 271.519C166.145 271.349 164.33 271.148 162.789 270.281C160.573 269.035 159.239 266.477 159.224 263.935C159.208 261.392 160.414 258.921 162.245 257.158C161.991 256.446 160.899 256.79 160.358 257.316C157.354 260.235 156.839 265.274 158.946 268.893C161.054 272.512 165.47 274.541 169.632 274.081C173.795 273.621 177.553 270.834 179.488 267.119C179.752 266.613 179.987 266.011 179.759 265.488ZM153.692 283.067C153.014 285.668 152.949 288.426 153.505 291.055C153.755 292.235 153.782 292.884 153.787 293.006C153.788 293.02 153.788 293.027 153.788 293.027C153.789 293.027 153.789 293.02 153.79 293.006C153.795 292.884 153.825 292.232 154.08 291.051C154.648 288.417 154.513 285.634 153.692 283.067ZM157.294 284.64C156.331 286.659 156.45 289.158 157.602 291.076C157.861 291.507 158.057 291.857 158.202 292.116C158.396 292.464 158.498 292.645 158.533 292.633C158.572 292.62 158.531 292.376 158.445 291.866C158.411 291.662 158.37 291.415 158.323 291.122L157.294 284.64ZM160.007 287.219C159.598 288.508 159.899 289.999 160.776 291.028C161.671 292.08 161.963 292.417 161.691 291.063C161.412 289.681 160.834 288.361 160.007 287.219ZM238.504 272.554C237.274 277.492 233.345 281.233 229.535 284.607C229.71 284.982 230.272 284.847 230.633 284.644C234.491 282.473 237.613 278.933 239.038 274.741C240.463 270.549 240.108 265.732 237.86 261.918C237.671 261.598 237.43 261.257 237.066 261.186C236.701 261.114 236.281 261.537 236.495 261.841C238.656 264.902 239.409 268.918 238.504 272.554ZM183.029 227.971C183.02 227.19 183.031 226.344 183.503 225.721C184.152 224.864 185.384 224.774 186.46 224.759C186.94 224.752 187.425 224.746 187.892 224.857C188.887 225.094 189.679 225.828 190.385 226.567C190.541 226.731 190.707 226.932 190.669 227.155C190.621 227.432 190.274 227.559 189.999 227.503C189.816 227.465 189.653 227.374 189.488 227.283L189.488 227.283L189.488 227.283L189.488 227.283L189.488 227.283L189.488 227.283L189.488 227.283L189.488 227.283L189.488 227.283L189.488 227.283L189.488 227.283L189.488 227.283L189.488 227.283L189.488 227.283C189.405 227.237 189.322 227.191 189.237 227.152C188.248 226.698 187.086 227.196 186.197 227.824C186.058 227.923 185.907 228.05 185.904 228.22C185.9 228.392 186.047 228.525 186.186 228.627C187.386 229.506 188.923 229.913 190.401 229.743C190.754 229.703 191.17 229.573 191.261 229.23C191.297 229.095 191.283 228.937 191.27 228.785C191.247 228.529 191.226 228.289 191.441 228.2C191.552 228.154 191.679 228.188 191.795 228.221C192.595 228.454 193.531 228.828 193.686 229.647C193.73 229.883 193.699 230.13 193.623 230.358C193.403 231.027 192.789 231.55 192.093 231.661C191.784 231.71 191.469 231.683 191.157 231.656C190.343 231.587 189.528 231.517 188.721 231.387C187.24 231.148 185.791 230.707 184.428 230.079C183.956 229.861 183.464 229.593 183.224 229.13C183.042 228.779 183.034 228.366 183.029 227.971ZM213.455 208.709C212.979 207.422 211.829 206.406 210.493 206.094C210.079 205.997 209.612 205.973 209.262 206.213C208.911 206.452 208.791 207.036 209.125 207.298C209.449 207.552 209.253 208.149 208.857 208.262C208.461 208.375 208.035 208.106 207.837 207.745C207.64 207.384 207.619 206.955 207.616 206.543C207.613 205.993 207.663 205.38 208.069 205.01C208.224 204.869 208.417 204.778 208.608 204.693C209.398 204.339 210.273 204.039 211.118 204.229C211.923 204.41 212.565 205.005 213.127 205.609C213.587 206.105 214.022 206.624 214.431 207.164C214.791 207.64 215.137 208.147 215.272 208.728C215.407 209.309 215.29 209.983 214.842 210.375C214.402 210.76 213.727 210.793 213.194 210.555C212.722 210.345 212.32 209.884 212.355 209.369C212.391 208.855 213.022 208.428 213.455 208.709ZM217.704 244.889C218.885 244.855 219.985 243.946 220.241 242.792C220.396 242.091 220.204 241.256 219.593 240.879C219.146 240.604 218.585 240.624 218.061 240.657C217.336 240.704 216.583 240.767 215.953 241.129C215.323 241.491 214.855 242.241 215.052 242.941C215.373 244.078 216.523 244.923 217.704 244.889ZM217.856 243.185C217.628 243.247 217.302 243.188 217.281 242.952C217.273 242.854 217.326 242.762 217.386 242.684C217.721 242.249 218.361 242.081 218.867 242.293C218.691 242.724 218.306 243.064 217.856 243.185ZM218.466 225.71C218.274 225.266 218.646 224.749 219.099 224.579C219.462 224.443 219.855 224.457 220.246 224.471C220.343 224.475 220.441 224.478 220.537 224.479C221.021 224.485 221.555 224.405 221.869 224.037C221.98 223.907 222.055 223.716 221.97 223.568C221.882 223.413 221.674 223.386 221.496 223.377C220.263 223.313 218.807 223.351 218.097 224.36C217.944 224.577 217.57 224.504 217.427 224.28C217.284 224.056 217.317 223.763 217.398 223.51C217.689 222.606 218.525 221.948 219.438 221.684C220.351 221.42 221.331 221.503 222.258 221.713C222.57 221.784 222.895 221.877 223.123 222.102C223.304 222.28 223.405 222.525 223.471 222.77C223.787 223.944 223.321 225.288 222.346 226.014C221.372 226.741 219.951 226.803 218.916 226.165C218.732 226.052 218.552 225.909 218.466 225.71ZM214.24 246.448C214.812 247.135 215.491 247.758 216.313 248.108C217.976 248.814 220.101 248.161 221.082 246.645C221.439 246.092 221.599 245.249 221.071 244.857C220.225 246.635 217.771 247.421 216.05 246.464C215.72 246.281 215.42 246.046 215.148 245.786C213.91 244.601 213.265 242.665 213.991 241.113C214.228 240.607 214.591 240.17 214.989 239.778C215.856 238.922 217.096 238.221 218.253 238.602C218.301 238.618 218.349 238.635 218.397 238.653C218.559 238.713 218.722 238.773 218.893 238.763C219.113 238.75 219.344 238.552 219.287 238.338C219.27 238.275 219.231 238.22 219.191 238.169C218.475 237.258 217.072 236.976 216.06 237.541C214.856 238.214 213.633 239.005 212.993 240.227C211.951 242.215 212.802 244.725 214.24 246.448ZM233.412 215.788C233.359 215.864 233.373 215.97 233.385 216.071C233.4 216.191 233.414 216.304 233.316 216.353C232.956 216.531 232.524 216.512 232.14 216.395C231.092 216.073 230.389 215.111 229.796 214.188C229.449 213.649 229.104 213.076 229.048 212.437C228.992 211.798 229.318 211.079 229.934 210.898C230.62 210.697 231.293 211.207 231.827 211.683C232.429 212.219 233.045 212.772 233.417 213.487C233.79 214.202 233.873 215.126 233.412 215.788ZM231.133 213.395C231.281 213.538 231.361 213.731 231.442 213.925C231.522 214.115 231.602 214.305 231.746 214.449C231.928 214.63 232.205 214.712 232.456 214.658C231.985 213.928 231.439 213.247 230.829 212.629C230.666 212.678 230.652 212.919 230.751 213.059C230.81 213.143 230.893 213.205 230.977 213.267C231.031 213.308 231.085 213.348 231.133 213.395ZM141.388 279.304C141.33 280.261 141.403 281.37 142.169 281.947C142.425 281.805 142.407 281.44 142.375 281.149C142.177 279.359 142.733 277.635 143.292 275.898C143.692 274.656 144.094 273.407 144.222 272.125C144.26 271.752 144.161 271.243 143.787 271.229C143.507 271.218 143.326 271.514 143.214 271.77C142.167 274.147 141.546 276.711 141.388 279.304ZM215.713 244.776C216.577 245.158 217.536 245.548 218.44 245.274C218.8 245.164 219.121 244.956 219.436 244.751C219.434 245.28 218.979 245.724 218.473 245.875C217.966 246.026 217.421 245.945 216.904 245.833C216.33 245.709 215.628 245.357 215.713 244.776ZM147.328 288.907C147.549 288.514 147.586 288.048 147.619 287.598L147.88 284.019C148.008 282.263 148.136 280.499 148.021 278.742C148.007 278.52 147.984 278.287 147.855 278.106C147.726 277.925 147.452 277.829 147.275 277.963C147.145 278.062 147.112 278.24 147.09 278.402C146.806 280.434 146.655 282.485 146.637 284.537C146.623 286.025 146.691 287.562 147.328 288.907ZM143.416 285.83C143.187 286.024 142.805 285.854 142.679 285.582C142.552 285.309 142.603 284.992 142.657 284.696C143.224 281.607 143.866 278.532 144.584 275.475C144.602 275.398 144.622 275.319 144.671 275.258C144.86 275.024 145.242 275.259 145.376 275.528C145.705 276.187 145.548 276.975 145.383 277.693L143.614 285.41C143.578 285.564 143.537 285.729 143.416 285.83ZM149.544 285.968C149.445 287.126 149.619 288.289 149.792 289.439C149.854 289.848 150.149 290.392 150.519 290.206L151.24 282.497C151.269 282.184 151.289 281.836 151.094 281.588C150.9 281.34 150.407 281.351 150.345 281.659L149.814 284.303C149.703 284.854 149.592 285.407 149.544 285.968ZM223.985 262.341C221.933 261.285 219.435 260.868 217.303 261.753C215.71 262.415 211.21 265.27 210.611 268.931C210.21 271.382 210.214 273.885 211.072 276.251L211.21 276.623C211.465 277.293 212.279 278.063 212.734 277.509C211.405 275.107 211.157 272.133 212.069 269.545C212.981 266.956 215.038 264.794 217.579 263.756C218.113 263.537 218.672 263.365 219.247 263.311C220.409 263.201 221.57 263.577 222.609 264.11C224.847 265.256 227.62 267.163 228.685 269.441C229.712 271.637 230.469 274.256 229.539 276.495C228.61 278.734 222.505 280.354 222.505 280.354L223.18 281.587C223.18 281.587 226.598 280.913 228.685 279.393C237.448 273.011 225.948 263.352 223.985 262.341Z" fill="#00160A"/>
<path fill-rule="evenodd" clip-rule="evenodd" d="M69.0904 230.83C65.9915 231.163 62.7091 230.446 60.2895 228.481C58.5759 227.09 57.3718 225.155 56.5268 223.115C55.6095 220.901 55.0821 218.526 54.9761 216.132C54.9362 215.231 54.9576 214.313 55.2225 213.45C55.6584 212.031 56.7083 210.892 57.78 209.864C60.06 207.677 62.7399 205.682 65.8653 205.222C67.995 204.909 70.1614 205.336 72.2461 205.873C73.8834 206.294 75.5186 206.791 76.9913 207.621C80.2455 209.456 82.5005 212.955 82.8267 216.677C83.153 220.398 82.7516 222.864 77.7294 227.488C75.1197 229.192 72.1894 230.498 69.0904 230.83ZM74.5554 219.149C74.0527 219.307 73.5518 219.587 73.0329 219.496C71.9728 219.309 71.7831 217.855 72.0185 216.805C72.6923 213.798 74.7881 211.143 77.5558 209.789C76.9292 208.653 75.2649 208.569 74.0877 209.115C72.9106 209.662 71.9904 210.646 70.852 211.269C70.2854 211.579 69.6141 211.798 68.9978 211.605C67.9837 211.288 67.5966 209.96 67.9286 208.95C68.2606 207.941 69.0892 207.187 69.8848 206.483C67.0019 206.584 64.1492 207.449 61.6959 208.967C59.7754 210.155 57.9536 212.102 58.2085 214.346C59.7964 213.068 61.6608 212.135 63.6358 211.63C64.0547 211.523 64.5805 211.47 64.8426 211.813C65.0411 212.074 64.9841 212.448 64.8569 212.75C64.2256 214.247 62.3692 214.75 61.2177 215.896C61.0665 216.047 60.9215 216.22 60.8849 216.431C60.8132 216.842 61.2058 217.218 61.6182 217.287C62.0306 217.356 62.4446 217.206 62.8358 217.058C63.6483 216.751 64.4607 216.445 65.2732 216.138C65.8614 215.916 66.5596 215.705 67.0827 216.053C67.6238 216.414 67.6748 217.235 67.3689 217.808C67.0631 218.382 66.5018 218.767 65.9616 219.129C64.6595 220.002 63.3574 220.875 62.0553 221.747C60.9652 222.478 59.7438 223.463 59.8474 224.771C59.945 226.003 61.2997 226.84 62.5325 226.761C63.7653 226.682 64.8502 225.928 65.7601 225.092C66.67 224.257 67.4912 223.303 68.5478 222.663C69.2373 222.245 70.221 222.013 70.7811 222.593C71.2139 223.041 71.1721 223.761 71.0097 224.362C70.5417 226.095 69.2761 227.595 67.6468 228.348C68.9724 228.654 70.3549 228.712 71.7014 228.517C72.4693 228.406 73.2643 228.193 73.8197 227.652C74.375 227.11 74.59 226.156 74.1083 225.548C73.3897 224.641 73.4183 223.313 73.8774 222.251C74.3365 221.188 75.1565 220.33 75.9597 219.497C75.7298 219.023 75.058 218.991 74.5554 219.149ZM80.6926 221.208C81.4145 219.539 81.4408 217.652 81.258 215.843C81.0558 213.843 80.3584 211.555 78.4738 210.854C75.7121 212.001 73.5808 214.558 72.9511 217.481C72.8982 217.727 72.8568 217.991 72.9534 218.223C73.05 218.455 73.3372 218.624 73.5598 218.507C74.3233 218.107 75.2624 217.88 76.0386 218.255C76.8148 218.63 77.1928 219.8 76.5643 220.39C75.8698 221.042 75.1566 221.72 74.7819 222.595C74.4073 223.471 74.4613 224.604 75.1667 225.244C75.6967 225.725 75.6981 226.669 75.1694 227.152C76.6725 226.713 77.7436 225.42 78.7184 224.195C79.4635 223.258 80.2172 222.307 80.6926 221.208ZM63.3884 212.579C61.8248 213.227 60.307 213.987 58.8501 214.849C58.5037 215.054 58.1535 215.271 57.9002 215.583C57.5581 216.006 57.4282 216.557 57.3224 217.09C56.9809 218.813 56.8049 220.668 57.5283 222.268C57.7592 222.779 58.0749 223.246 58.3889 223.71C58.4816 223.847 58.5868 223.994 58.7457 224.04C58.9046 224.086 59.1145 223.958 59.0772 223.797C58.9621 223.3 59.3384 222.833 59.7096 222.483C61.8841 220.437 64.8136 219.262 66.769 217.005C66.4724 216.653 65.9097 216.818 65.4867 216.999C64.4794 217.429 63.4406 217.786 62.3815 218.065C61.8352 218.209 61.2263 218.326 60.7277 218.061C59.998 217.672 59.8792 216.607 60.2646 215.876C60.6501 215.144 61.3829 214.672 62.0896 214.242C62.7962 213.813 63.5376 213.364 63.9616 212.654C63.8845 212.452 63.5882 212.496 63.3884 212.579ZM68.7398 226.29C69.4308 225.735 70.1774 225.08 70.2528 224.197C70.2922 223.735 69.996 223.17 69.5346 223.215C69.3928 223.228 69.2633 223.298 69.141 223.371C67.1315 224.572 65.8091 226.919 63.5423 227.503C64.1829 227.789 64.8508 228.015 65.534 228.175C65.7374 228.223 65.9493 228.265 66.1539 228.223C66.392 228.174 66.5913 228.017 66.7808 227.864C67.4338 227.34 68.0868 226.815 68.7398 226.29ZM70.6085 207.1C70.1614 207.595 69.7142 208.09 69.2671 208.584C68.9129 208.976 68.5329 209.493 68.7301 209.983C68.8753 210.344 69.3043 210.526 69.6922 210.496C70.0801 210.466 70.4334 210.267 70.7587 210.054C71.9179 209.293 72.9616 208.257 74.3143 207.953C73.3764 207.612 72.4384 207.27 71.5005 206.928C71.3052 206.857 71.0874 206.786 70.8952 206.865C70.7799 206.913 70.6922 207.008 70.6085 207.1Z" fill="#00160A"/>
<path fill-rule="evenodd" clip-rule="evenodd" d="M88.0631 148.026C87.9461 150.369 86.1381 152.907 83.8081 152.63C82.7565 151.413 81.9334 149.904 81.12 148.412C79.5578 145.546 78.0311 142.746 74.9894 142.215C72.002 141.693 69.2198 143.89 67.3591 146.285C64.6644 149.753 62.923 153.955 62.374 158.313C62.0513 160.875 63.102 164.428 65.6688 164.146C68.6008 163.824 70.6859 166.131 72.8067 168.476C74.7696 170.647 76.763 172.852 79.4867 173.038C82.7297 173.26 85.3787 175.203 88.0602 177.169C89.8511 178.483 91.6565 179.807 93.663 180.636C97.4377 182.195 101.791 181.894 105.644 180.539C109.497 179.185 112.926 176.852 116.171 174.373L116.341 174.243C118.113 172.888 119.967 171.47 122.17 171.171C133.435 169.645 143.912 163.038 150.143 153.531C158.977 160.593 171.329 163.007 182.172 159.79C184.012 159.244 185.863 158.512 187.228 157.162C188.592 155.813 189.366 153.717 188.695 151.919C187.962 149.953 185.77 148.9 183.687 148.647C182.545 148.508 181.394 148.549 180.242 148.59C179.293 148.624 178.343 148.658 177.397 148.591C171.669 148.186 166.9 144.236 162.563 140.473C168.847 138.545 173.942 133.704 177.306 128.058C180.67 122.412 182.472 115.979 183.842 109.551C184.563 106.168 185.098 102.357 183.166 99.489C182.301 98.2051 181.032 97.2665 179.768 96.3312C178.345 95.2779 176.928 94.2288 176.098 92.6957C174.502 89.7467 171.391 87.9979 168.441 86.4049C160.719 82.236 151.85 77.9454 143.528 80.7295C140.287 81.814 137.487 83.8921 134.757 85.9488C130.223 89.3641 125.367 93.3703 124.503 98.9803C117.085 95.6616 107.489 98.3121 102.825 104.967C101.759 106.49 100.94 108.168 100.122 109.845C99.1587 111.82 98.1968 113.792 96.8331 115.503C91.3557 113.008 85.7749 110.739 80.1097 108.706C77.598 107.804 74.5976 107.007 72.433 108.568C70.6975 109.82 70.1651 112.276 70.6745 114.354C71.184 116.432 72.544 118.194 74.0025 119.76C77.1667 123.156 80.9676 125.958 85.1484 127.975C85.2833 128.04 85.4192 128.104 85.5555 128.169C86.8645 128.793 88.2102 129.434 89.0819 130.579C90.0444 131.843 90.1041 133.957 88.7548 134.796C86.762 136.035 86.395 138.814 86.8035 141.125C86.9431 141.914 87.148 142.696 87.3526 143.477C87.7469 144.982 88.1401 146.483 88.0631 148.026ZM142.167 160.381C137.146 165.654 130.08 168.739 122.854 169.641C115.629 170.542 108.251 169.37 101.349 167.05C103.205 167.049 104.548 164.619 103.56 163.046C99.7564 167.481 93.9573 169.558 88.4313 171.454C83.439 173.167 77.4718 171.923 73.8047 168.127C70.1377 164.331 69.1453 158.102 71.7242 153.497C72.8451 151.495 74.7464 149.752 77.0322 149.556C79.318 149.36 81.7794 151.255 81.5674 153.539C80.2954 153.318 78.9568 154.399 78.9044 155.689C83.8252 155.158 88.4513 152.339 91.1774 148.208C92.1183 146.782 92.8333 145.229 93.549 143.675L93.549 143.675C94.0295 142.631 94.5103 141.587 95.0599 140.58C96.4281 138.074 98.3925 135.685 101.115 134.824C103.3 134.133 105.661 134.517 107.92 134.906L117.952 136.636C118.703 135.988 117.487 134.949 116.516 134.746C113.38 134.091 110.201 133.687 107.022 133.283L107.022 133.283C104.073 132.909 101.125 132.535 98.2107 131.96C92.154 130.765 86.0665 128.579 81.6581 124.257C84.6484 122.537 86.9235 119.614 87.857 116.293C88.0459 115.621 87.5959 114.517 87.0503 114.952C86.4269 117.108 85.7512 119.357 84.1893 120.968C82.6273 122.58 79.8858 123.288 78.118 121.905C75.8231 120.111 73.4103 118.153 72.5027 115.384C71.5951 112.616 73.0308 108.897 75.9245 108.558C77.2233 108.406 78.493 108.942 79.6907 109.467L91.7741 114.764C95.3704 116.341 99.0203 117.933 102.905 118.505C105.633 118.906 108.407 118.794 111.162 118.68L118.971 118.358C119.29 118.345 119.618 118.33 119.912 118.204C120.696 117.87 120.962 116.911 121.136 116.076C123.231 105.964 126.047 95.2917 133.664 88.3181C137.073 85.1976 141.319 83.0005 145.835 82.0204C150.286 81.0543 155.198 81.3383 159.03 83.8004C152.601 84.2735 146.358 86.9846 141.624 91.3596C139.634 89.236 135.932 90.9718 134.345 93.4109C131.886 97.1919 131.931 102.444 134.454 106.183C136.578 109.33 137.366 113.085 138.156 116.848C138.881 120.307 139.608 123.773 141.376 126.782C144.172 131.541 149.379 134.597 154.817 135.544C160.255 136.491 165.893 135.502 171.062 133.563C165.277 139.333 156.036 141.329 148.386 138.46C147.828 138.251 147.273 138.018 146.718 137.784C144.96 137.044 143.196 136.301 141.311 136.323C142.415 137.493 143.826 138.371 145.363 138.845C143.591 141.823 141.731 144.748 139.788 147.617C139.539 147.983 139.256 148.374 138.83 148.499C138.356 148.637 137.861 148.401 137.429 148.162C133.855 146.186 130.652 143.544 128.034 140.41L122.798 146.78C125.485 150.065 128.627 152.978 132.106 155.409C127.476 161.129 120.461 164.855 113.128 165.488C120.718 165.875 128.402 162.315 133.014 156.275C135.934 157.914 139.001 159.291 142.167 160.381ZM166.17 104.368C167.847 102.539 168.468 99.9268 168.325 97.4496C168.181 94.9725 167.348 92.5902 166.426 90.2866C168.828 90.0018 171.269 90.9082 173.183 92.3881C175.096 93.8681 176.534 95.8819 177.713 97.9943C179.142 100.555 180.238 103.324 180.713 106.218C181.833 113.031 179.442 119.978 176.04 125.987C175.379 127.153 174.668 128.312 173.704 129.244C172.733 130.181 171.538 130.856 170.314 131.425C165.262 133.772 159.45 134.449 153.994 133.327C157.477 130.427 159.937 126.431 161.504 122.178C163.07 117.925 163.787 113.404 164.2 108.89L164.203 108.865C164.307 107.727 164.416 106.531 165.065 105.591C165.28 105.28 165.545 105.01 165.811 104.74C165.932 104.617 166.053 104.494 166.17 104.368ZM159.866 123.168C158.363 126.684 156.034 129.912 152.877 132.07C152.507 132.322 152.111 132.566 151.666 132.618C151.273 132.664 150.88 132.556 150.503 132.437C147.819 131.59 145.283 130.088 143.561 127.861C142.936 127.054 142.426 126.162 141.971 125.248C138.657 118.589 138.332 110.509 141.101 103.605C141.234 103.276 141.423 102.905 141.771 102.836C142.222 102.747 142.568 103.208 142.821 103.591C144.89 106.726 148.758 108.313 152.51 108.477C156.262 108.641 159.953 107.575 163.511 106.373C162.862 107.958 162.697 109.685 162.534 111.397C162.513 111.612 162.492 111.827 162.471 112.042C162.089 115.847 161.369 119.652 159.866 123.168ZM159.102 90.5046C161.022 90.0682 163.262 89.9481 164.729 91.2613C165.203 91.6855 165.555 92.2295 165.844 92.7957C167.661 96.3465 166.95 101.023 164.159 103.873C160.932 107.167 155.826 107.71 151.231 107.319C149.582 107.179 147.887 106.925 146.48 106.055C144.659 104.929 143.58 102.946 142.583 101.052C147.01 96.1047 152.628 91.9762 159.102 90.5046ZM174.63 150.223C174.027 151.743 173.419 153.285 173.222 154.909C173.025 156.533 173.281 158.276 174.269 159.58C166.073 160.033 157.744 157.506 151.183 152.574C153.299 149.58 154.97 146.272 156.124 142.791C156.58 141.417 158.321 140.843 159.733 141.161C161.034 141.454 162.127 142.289 163.192 143.103C163.284 143.173 163.375 143.243 163.467 143.313C166.956 145.961 170.8 148.097 174.63 150.223ZM117.358 170.992C116.066 172.448 114.521 173.656 112.943 174.795C109.649 177.173 106.057 179.335 102.054 180.026C96.1864 181.038 89.8477 178.508 86.291 173.733L99.0881 168.959C99.3944 168.845 99.7118 168.729 100.038 168.747C100.223 168.758 100.4 168.811 100.578 168.864L100.578 168.864L100.578 168.864C100.696 168.899 100.815 168.934 100.936 168.957C101.347 169.035 101.761 168.967 102.177 168.898L102.177 168.898L102.177 168.898C102.436 168.856 102.696 168.813 102.956 168.805C103.914 168.776 104.794 169.214 105.665 169.647C105.886 169.757 106.107 169.867 106.328 169.968C109.721 171.529 113.634 171.276 117.358 170.992ZM98.8807 116.239C98.7905 116.037 98.8856 115.805 98.9808 115.606C101.602 110.117 105.068 105.033 109.221 100.59C112.143 104.646 114.087 109.4 114.844 114.341C114.996 115.329 114.832 116.694 113.841 116.818C109.088 117.41 104.253 117.33 99.5226 116.58C99.2726 116.54 98.984 116.47 98.8807 116.239ZM116.78 115.9C115.801 110.521 113.77 105.335 110.834 100.722C113.319 99.4138 116.256 99.3924 119.064 99.4012C120.838 99.4068 122.774 99.4693 124.125 100.618L120.619 110.961C120.024 112.717 119.422 114.523 119.497 116.375L117.281 116.411C117.202 116.412 117.12 116.413 117.047 116.383C116.87 116.308 116.814 116.089 116.78 115.9ZM145.292 142.371C145.881 141.37 146.442 140.3 146.501 139.14C149.153 140.333 152.072 140.924 154.979 140.856C155.435 140.845 155.419 141.549 155.232 141.965C154.666 143.224 154.099 144.485 153.444 145.701C152.772 146.949 152.009 148.145 151.247 149.34L149.42 152.203C149.17 152.595 148.911 152.996 148.54 153.276C147.542 154.025 146.119 153.665 144.981 153.154C143.093 152.305 141.355 151.124 139.872 149.681C141.932 147.446 143.752 144.991 145.292 142.371ZM76.7316 144.846C77.61 145.732 78.1841 146.867 78.7439 147.982L76.1085 148.357C75.2304 148.483 74.3301 148.615 73.554 149.045C72.7989 149.462 72.2166 150.132 71.7041 150.826C69.5608 153.73 68.3729 157.327 68.3654 160.936C68.3627 162.24 66.822 163.17 65.561 162.839C64.3001 162.509 63.4435 161.256 63.2255 159.971C63.0075 158.686 63.3145 157.372 63.6995 156.126C65.0544 151.744 67.4779 147.604 71.0637 144.743C71.7488 144.197 72.5058 143.685 73.3713 143.547C74.6031 143.35 75.8531 143.96 76.7316 144.846ZM187.398 152.182C187.703 152.574 187.929 153.051 187.915 153.547C187.898 154.188 187.491 154.75 187.054 155.219C184.51 157.946 180.6 158.874 176.897 159.311C176.653 159.34 176.397 159.366 176.168 159.276C175.98 159.203 175.829 159.058 175.695 158.907C174.801 157.902 174.447 156.498 174.52 155.155C174.592 153.813 175.056 152.52 175.632 151.305C175.754 151.05 175.895 150.781 176.142 150.644C176.34 150.534 176.576 150.526 176.802 150.52L181.283 150.402C182.387 150.373 183.502 150.346 184.582 150.573C185.662 150.801 186.72 151.311 187.398 152.182ZM137.452 109.838C135.626 106.454 134.26 102.823 133.403 99.0746L134.141 97.1041C135.053 95.3371 136.204 93.6932 137.552 92.2306C138.1 91.6349 139.052 91.569 139.809 91.8561C140.567 92.1431 141.176 92.7138 141.764 93.2709L144.41 95.7776C144.488 95.8521 144.571 95.9326 144.597 96.0378C144.646 96.2357 144.483 96.417 144.335 96.5575C143.096 97.7356 141.995 99.0638 141.112 100.528C139.778 102.741 138.963 105.221 138.159 107.677L137.452 109.838ZM144.215 90.8343C149.602 87.949 155.494 85.2339 161.571 85.8832C164.748 86.2227 167.787 87.4866 170.433 89.2769C162.852 87.3283 154.403 89.1257 148.271 93.9909C147.324 94.7429 145.902 95.5597 145.058 94.6927C144.842 94.4701 144.7 94.1582 144.562 93.8543C144.341 93.3676 144.129 92.9015 143.634 92.8559C143.161 92.8124 142.951 92.1714 143.152 91.7414C143.352 91.3114 143.796 91.0583 144.215 90.8343ZM129.415 143.608C130.478 144.63 131.649 145.532 132.818 146.431L137.538 150.066C136.084 151.347 134.662 152.664 133.273 154.014C129.966 152.054 127.015 149.497 124.604 146.504C125.923 145.129 127.19 143.703 128.401 142.231C128.591 142.775 129 143.209 129.415 143.608ZM99.0684 133.775C96.5832 135.717 94.0139 137.761 92.6469 140.603C92.3798 141.158 92.1592 141.742 91.9389 142.326C91.4706 143.566 91.0038 144.802 90.0958 145.746C89.6934 145.628 89.5351 145.154 89.437 144.746L88.4913 140.813C88.3637 140.282 88.2352 139.736 88.3077 139.195C88.3799 138.657 88.6454 138.166 88.9062 137.69L91.6809 132.619C91.7427 132.506 91.8069 132.39 91.906 132.308C92.1515 132.104 92.5147 132.169 92.8246 132.245L99.0684 133.775ZM139.441 151.194C141.136 152.937 143.242 154.276 145.539 155.072C145.968 154.668 146.799 154.891 146.968 155.456C146.178 156.481 145.31 157.447 144.375 158.342C143.957 158.742 143.288 158.657 142.725 158.528C139.972 157.896 137.321 156.826 134.901 155.369C134.739 155.272 134.557 155.133 134.573 154.945C134.584 154.818 134.684 154.72 134.777 154.634L138.174 151.505C138.53 151.177 139.104 150.847 139.441 151.194ZM182.81 107.491C182.779 107.874 182.725 108.302 182.425 108.543C182.423 105.532 181.676 102.524 180.27 99.8608C180.015 99.3778 179.738 98.9058 179.431 98.4544C179.391 98.3965 179.351 98.3385 179.311 98.2803L179.31 98.2801C179 97.8322 178.683 97.3738 178.607 96.8391L182.247 100.641C182.582 100.991 182.926 101.356 183.085 101.814C183.238 102.255 183.201 102.737 183.163 103.202L182.81 107.491ZM178.628 102.658L177.804 101.619C176.897 100.476 175.784 99.2282 174.325 99.2266C173.478 99.2257 172.7 99.6593 171.965 100.081L170.824 100.735C170.512 100.914 170.192 101.1 169.972 101.384C169.338 102.204 169.801 103.402 170.4 104.248C170.814 104.833 171.311 105.395 171.971 105.677C172.824 106.041 173.805 105.88 174.7 105.634C175.924 105.296 177.108 104.809 178.215 104.186C178.569 103.987 178.961 103.695 178.943 103.29C178.932 103.051 178.777 102.846 178.628 102.658ZM171.427 103.46C171.285 103.234 171.138 102.993 171.136 102.727C171.132 102.205 171.652 101.855 172.11 101.605L173.737 100.718C173.983 100.584 174.239 100.447 174.518 100.428C174.798 100.409 175.109 100.544 175.203 100.808C175.48 101.587 176.164 102.208 176.965 102.41C177.225 102.476 177.309 102.835 177.186 103.073C177.063 103.311 176.812 103.45 176.572 103.569C175.715 103.994 174.818 104.341 173.898 104.604C173.529 104.709 173.138 104.802 172.765 104.713C172.154 104.568 171.761 103.992 171.427 103.46ZM159.854 111.492C158.24 111.68 157.933 114.589 158.682 116.141C158.837 116.46 159.078 116.789 159.43 116.833C160.031 116.91 160.363 116.168 160.496 115.576L160.499 115.563C160.675 114.783 161.458 111.305 159.854 111.492ZM151.532 115.308C151.855 114.556 151.962 113.712 151.839 112.903C151.782 112.527 151.669 112.145 151.417 111.859C151.166 111.574 150.751 111.407 150.393 111.536C150.069 111.653 149.865 111.97 149.712 112.278C149.17 113.366 148.954 114.614 149.099 115.821C149.166 116.383 149.874 116.689 150.411 116.512C150.947 116.334 151.309 115.828 151.532 115.308ZM156.289 113.586C156.539 113.378 156.855 113.755 156.957 114.064C157.291 115.08 157.567 116.114 157.785 117.161C157.922 117.823 158.035 118.51 157.889 119.169C157.683 120.099 156.976 120.856 156.156 121.34C155.336 121.825 154.402 122.076 153.482 122.321C153.239 122.386 152.933 122.432 152.776 122.236C152.643 122.069 152.709 121.807 152.86 121.657C153.009 121.51 153.216 121.441 153.416 121.376L153.428 121.372C154.862 120.901 156.396 120.05 156.73 118.577C156.913 117.768 156.69 116.954 156.465 116.137C156.261 115.393 156.056 114.646 156.157 113.896C156.172 113.782 156.2 113.659 156.289 113.586ZM146.269 110.273C145.891 109.75 146.194 108.955 146.741 108.613C147.289 108.272 147.982 108.277 148.622 108.359C149.386 108.458 150.138 108.652 150.854 108.936C151.007 108.997 151.171 109.074 151.238 109.224C151.362 109.501 151.041 109.804 150.737 109.804C150.492 109.804 150.271 109.686 150.052 109.57C149.999 109.542 149.946 109.513 149.893 109.487C148.697 108.894 147.111 109.238 146.269 110.273ZM160.05 110.093C160.619 109.998 161.221 110.13 161.699 110.452C161.898 110.586 162.184 110.36 162.185 110.119C162.186 109.878 162.007 109.676 161.818 109.527C161.41 109.206 160.902 109.014 160.385 108.985C160.05 108.966 159.68 109.031 159.465 109.287C159.25 109.544 159.315 110.025 159.638 110.114C159.753 110.146 159.874 110.124 159.992 110.103L160.015 110.099L160.05 110.093ZM152.998 124.857C153.158 124.767 153.369 124.924 153.393 125.106C153.416 125.289 153.313 125.463 153.194 125.603C152.598 126.306 151.571 126.523 150.665 126.358C149.758 126.193 148.945 125.705 148.18 125.191C147.821 124.949 147.466 124.7 147.118 124.442C146.756 124.175 146.371 123.849 146.328 123.401C146.285 122.954 146.858 122.504 147.185 122.812C147.989 123.569 148.811 124.338 149.81 124.806C150.81 125.275 152.036 125.4 152.998 124.857ZM135.786 128.442C132.437 121.162 131.039 112.995 131.778 105.016C131.791 104.88 131.808 104.734 131.898 104.63C132.025 104.485 132.286 104.491 132.406 104.642C132.363 109.032 132.322 113.447 133.039 117.778C133.755 122.109 135.276 126.393 138.054 129.792C138.137 129.893 138.222 129.994 138.306 130.096C138.784 130.669 139.266 131.246 139.537 131.937C137.73 131.903 136.541 130.083 135.786 128.442ZM139.071 95.5686C139.009 95.5016 138.937 95.4425 138.853 95.4064C138.611 95.3021 138.328 95.409 138.117 95.5655C137.274 96.1895 137.27 97.6487 138.111 98.2765C138.52 97.9273 138.941 97.5645 139.181 97.0826C139.421 96.6008 139.436 95.964 139.071 95.5686ZM146.339 103.256C147.248 103.994 148.283 104.575 149.386 104.966C152.945 106.228 156.945 105.435 160.379 103.866C160.904 103.626 161.574 103.752 161.975 104.167C159.769 105.738 157.068 106.602 154.36 106.601C153.763 106.601 153.166 106.56 152.571 106.508C151.354 106.402 150.128 106.246 148.983 105.82C147.838 105.394 146.768 104.672 146.12 103.637L146.339 103.256ZM185.096 151.224C185.061 151.345 185.158 151.461 185.248 151.55L186.6 152.892C186.748 152.506 186.582 152.057 186.299 151.756C186.015 151.456 185.632 151.273 185.258 151.097C185.185 151.1 185.117 151.154 185.096 151.224Z" fill="#00160A"/>
<path fill-rule="evenodd" clip-rule="evenodd" d="M273.909 99.0227C275.566 99.5969 277.126 98.1028 278.554 97.085C280.763 95.51 283.645 94.9144 286.297 95.4848C286.737 95.5794 287.198 95.7214 287.488 96.0658C287.753 96.3807 287.828 96.8102 287.871 97.2195C288.132 99.7251 287.506 102.314 286.128 104.423C285.457 105.449 284.618 106.363 284.018 107.432C283.419 108.501 283.076 109.807 283.503 110.955C286.042 117.785 284.986 125.841 280.771 131.785C276.557 137.728 269.304 141.391 262.019 141.255C258.294 141.185 254.643 140.191 251.133 138.94C249.602 138.394 247.918 137.796 246.398 138.372C243.623 139.423 240.703 140.087 237.747 140.338C237.013 140.401 236.247 140.433 235.57 140.143C234.557 139.71 233.945 138.611 233.829 137.515C233.713 136.419 234.016 135.322 234.398 134.289C235.552 131.172 239.136 126.302 241.305 125.18C241.13 121.395 241.149 117.565 241.967 113.865C242.786 110.164 244.456 106.574 247.196 103.956C248.328 102.875 249.623 101.975 250.979 101.194C257.84 97.2432 266.429 96.4302 273.909 99.0227ZM263.461 98.7154C258.214 98.8382 253.107 100.946 249.006 104.22C247.801 105.181 246.67 106.249 245.766 107.497C245.053 108.481 244.49 109.567 244.019 110.686C241.226 117.33 241.863 125.313 245.676 131.429C245.759 131.563 245.855 131.704 246.003 131.756C246.186 131.82 246.383 131.727 246.554 131.635C258.53 125.254 269.189 116.415 277.677 105.828C277.879 105.576 278.092 105.283 278.048 104.963C278.016 104.722 277.844 104.527 277.677 104.352C274.055 100.554 268.707 98.5926 263.461 98.7154ZM270.796 138.378C276.484 135.708 280.804 130.431 282.651 124.425C283.07 123.065 283.37 121.659 283.4 120.237C283.425 119.04 283.258 117.849 283.091 116.664C282.85 114.946 282.609 113.228 282.367 111.511C282.303 111.055 281.864 110.454 281.544 110.784C272.644 119.943 262.926 128.306 252.543 135.741C252.198 135.989 251.818 136.295 251.799 136.719C251.777 137.21 252.246 137.567 252.672 137.813C258.116 140.952 265.108 141.048 270.796 138.378ZM235.711 137.679C236.124 138.343 237.021 138.478 237.803 138.5C241.905 138.614 245.963 137.412 249.633 135.576C253.303 133.74 256.624 131.285 259.852 128.752C264.157 125.373 268.334 121.831 272.404 118.173C277.445 113.642 282.399 108.836 285.708 102.921C286.348 101.777 286.939 100.523 286.839 99.2154C286.739 97.9081 285.696 96.5883 284.386 96.6394C281.606 96.7479 278.873 97.8168 276.756 99.623C276.336 99.9822 276.633 100.747 277.151 100.941C277.669 101.136 278.246 100.943 278.752 100.719C279.259 100.496 279.786 100.234 280.336 100.296C281.176 100.389 281.773 101.249 281.823 102.093C281.873 102.937 281.499 103.748 281.06 104.47C280.246 105.806 279.183 106.97 278.11 108.108C268.565 118.22 257.554 126.947 245.529 133.93C244.446 134.558 243.351 135.175 242.185 135.634C241.574 135.874 240.873 136.067 240.276 135.792C239.298 135.341 239.22 133.968 239.513 132.932C239.954 131.376 240.906 129.969 242.187 128.982C241.944 128.298 241.702 127.615 241.459 126.931C238.297 128.951 236.078 132.386 235.537 136.099C235.459 136.634 235.424 137.219 235.711 137.679ZM244.701 132.988C244.723 132.918 244.682 132.844 244.643 132.782C244.234 132.133 243.826 131.484 243.417 130.835C243.233 130.541 242.875 130.208 242.598 130.417C241.6 131.169 240.885 132.289 240.623 133.511C240.572 133.753 240.542 134.022 240.673 134.231C240.917 134.619 241.501 134.533 241.933 134.378C242.854 134.048 243.741 133.623 244.576 133.114C244.627 133.082 244.683 133.046 244.701 132.988ZM280.233 102.095C280.192 101.926 279.992 101.853 279.818 101.845C279.292 101.822 278.742 102.255 278.775 102.781C278.809 103.307 279.59 103.638 279.917 103.224C280.015 103.099 280.057 102.94 280.096 102.786C280.135 102.634 280.174 102.481 280.213 102.328C280.232 102.252 280.252 102.171 280.233 102.095Z" fill="#00160A"/>
<defs>
<linearGradient id="paint0_linear" x1="302" y1="184" x2="29" y2="184" gradientUnits="userSpaceOnUse">
<stop stop-color="#7EE8FF"/>
<stop offset="1" stop-color="#FFF066"/>
</linearGradient>
</defs>
</svg>
