<svg width="35" height="35" viewBox="0 0 35 35" fill="none" xmlns="http://www.w3.org/2000/svg">
<circle cx="17.5" cy="17.5" r="17.5" fill="white"/>
<path d="M13.3571 14.8367H22.6429C22.8401 14.8367 23 14.654 23 14.4286V13.4082C23 13.1827 22.8401 13 22.6429 13H13.3571C13.1599 13 13 13.1827 13 13.4082V14.4286C13 14.654 13.1599 14.8367 13.3571 14.8367ZM13.3571 18.9184H22.6429C22.8401 18.9184 23 18.7356 23 18.5102V17.4898C23 17.2644 22.8401 17.0816 22.6429 17.0816H13.3571C13.1599 17.0816 13 17.2644 13 17.4898V18.5102C13 18.7356 13.1599 18.9184 13.3571 18.9184ZM13.3571 23H22.6429C22.8401 23 23 22.8173 23 22.5918V21.5714C23 21.346 22.8401 21.1633 22.6429 21.1633H13.3571C13.1599 21.1633 13 21.346 13 21.5714V22.5918C13 22.8173 13.1599 23 13.3571 23Z" fill="black"/>
</svg>
