<svg width="17" height="28" viewBox="0 0 17 28" fill="none" xmlns="http://www.w3.org/2000/svg">
<path d="M1.62694 15.4809L13.4192 27.2511C13.6129 27.4464 13.8433 27.6014 14.0972 27.7071C14.3511 27.8129 14.6234 27.8673 14.8984 27.8673C15.1734 27.8673 15.4457 27.8128 15.6996 27.707C15.9535 27.6012 16.1839 27.4463 16.3775 27.251C16.7656 26.8606 16.9833 26.3326 16.9833 25.7822C16.9833 25.2318 16.7654 24.7038 16.3774 24.3135L6.06435 13.8973L16.3763 3.58431C16.7643 3.19395 16.9821 2.66591 16.9821 2.11553C16.982 1.56514 16.7642 1.03713 16.3762 0.646808C16.1832 0.449968 15.9531 0.293375 15.6992 0.186104C15.4453 0.0788324 15.1726 0.0230166 14.897 0.0218865C14.6213 0.0230452 14.3487 0.0788894 14.0948 0.186187C13.8409 0.293485 13.6108 0.450102 13.4178 0.646961L1.62678 12.4184C1.41532 12.6135 1.24656 12.8503 1.13114 13.1138C1.01573 13.3774 0.956148 13.662 0.956163 13.9497C0.956178 14.2374 1.01579 14.522 1.13123 14.7855C1.24668 15.0491 1.41546 15.2858 1.62694 15.4809Z" fill="black"/>
</svg>