<svg width="500" height="500" viewBox="0 0 500 500" fill="none" xmlns="http://www.w3.org/2000/svg">
<rect width="500" height="500" fill="white"/>
<path d="M429.653 233.665C445.008 204.041 460.913 160.153 416.378 125.141C371.839 90.1263 327.856 116.48 307.165 135.534C295.227 146.527 284.359 159.281 274.842 170.449C269.294 176.96 264.205 182.933 259.63 187.703C228.803 219.851 197.816 228.405 154.601 240.334C137.755 244.984 119.052 250.148 97.7754 257.421C39.8767 277.216 31.5461 295.845 38.2507 313.157C40.3982 312.257 42.6487 311.367 44.9988 310.491C84.099 295.907 150.738 284.907 228.065 284.907C326.803 284.907 429.492 320.586 467.913 349.166C462.055 337.389 446.857 324.763 432.946 313.205C421.619 303.795 411.146 295.094 407.259 288.136C399.478 274.208 404.664 267.91 413.448 257.241C418.28 251.371 424.202 244.179 429.653 233.665Z" fill="#7EE8FF"/>
<path d="M429.653 233.665C445.008 204.041 460.913 160.153 416.378 125.141C371.839 90.1263 327.856 116.48 307.165 135.534C295.227 146.527 284.359 159.281 274.842 170.449C269.294 176.96 264.205 182.933 259.63 187.703C228.803 219.851 197.816 228.405 154.601 240.334C137.755 244.984 119.052 250.148 97.7754 257.421C39.8767 277.216 31.5461 295.845 38.2507 313.157C40.3982 312.257 42.6487 311.367 44.9988 310.491C84.099 295.907 150.738 284.907 228.065 284.907C326.803 284.907 429.492 320.586 467.913 349.166C462.055 337.389 446.857 324.763 432.946 313.205C421.619 303.795 411.146 295.094 407.259 288.136C399.478 274.208 404.664 267.91 413.448 257.241C418.28 251.371 424.202 244.179 429.653 233.665Z" fill="url(#paint0_linear)"/>
<path d="M430.224 394.815L429.7 394.829L427.397 394.878C350.598 396.361 195.24 386.554 96.6842 373.829C96.6826 373.828 96.6811 373.828 96.6795 373.827L96.667 373.827C96.6727 373.827 96.6785 373.828 96.6842 373.829C136.242 389.789 192.383 400.559 250 400.724C297.668 400.86 330.41 401.627 353.836 402.177C403.022 403.329 411.133 403.52 430.081 394.881L430.224 394.815Z" fill="#7EE8FF"/>
<path d="M430.224 394.815L429.7 394.829L427.397 394.878C350.598 396.361 195.24 386.554 96.6842 373.829C96.6826 373.828 96.6811 373.828 96.6795 373.827L96.667 373.827C96.6727 373.827 96.6785 373.828 96.6842 373.829C136.242 389.789 192.383 400.559 250 400.724C297.668 400.86 330.41 401.627 353.836 402.177C403.022 403.329 411.133 403.52 430.081 394.881L430.224 394.815Z" fill="url(#paint1_linear)"/>
<path fill-rule="evenodd" clip-rule="evenodd" d="M232.643 298.28L234.527 298.402L231.738 343.13L230.394 344.821L228.328 343.403L232.643 298.28Z" fill="white"/>
<circle cx="374.705" cy="189.036" r="52.1699" fill="white"/>
<path fill-rule="evenodd" clip-rule="evenodd" d="M238.135 239.874C238.135 239.874 238.02 236.88 241.587 236.704C245.151 236.527 274.268 239.874 274.268 239.874C274.268 239.874 280.533 240.776 279.498 247.816C278.461 254.857 274.679 271.081 274.679 271.081C274.679 271.081 275.123 273.857 270.574 273.12C266.024 272.383 252.517 268.871 238.135 271.101C238.135 271.101 235.76 271.379 235.829 281.479L234.527 281.239C234.527 281.239 236.428 242.707 238.135 239.874Z" fill="white"/>
<path fill-rule="evenodd" clip-rule="evenodd" d="M259.505 216.051C259.787 215.751 259.505 216.051 259.505 216.051C258.363 217.276 257.392 218.366 256.766 219.152C253.778 222.91 249.775 226.471 248.158 229.194C248.158 229.194 241.002 232.455 238.135 229.065C238.135 229.065 244.71 220.443 249.924 216.592C249.924 216.592 254.989 214.098 259.505 216.051ZM265.061 210.302L259.77 208.765C259.77 208.765 265.136 205.422 268.11 204.155L270.573 204.823C270.573 204.823 268.027 207.311 265.061 210.302C264.987 210.382 265.061 210.302 265.061 210.302Z" fill="white"/>
<path fill-rule="evenodd" clip-rule="evenodd" d="M177.207 353.719C177.207 353.719 167.899 351.655 165.684 341.012C165.684 341.012 167.38 337.941 174.032 330.832C174.032 330.832 182.441 325.433 181.056 316.875C181.056 316.875 171.883 314.497 174.95 300.559L176.906 296.986C176.906 296.986 174.741 281.512 176.575 272.35C176.575 272.35 174.879 260.664 181.947 259.825C181.947 259.825 184.921 259.389 185.249 258.225C185.249 258.225 180.896 246.166 193.641 240.321C206.384 234.477 216.299 244.544 215.899 255.273C215.899 255.273 214.796 262.617 210.299 265.903C210.299 265.903 219.958 271.945 225.335 279.887C225.335 279.887 231.346 286.122 233.989 285.071C233.989 285.071 242.047 284.895 240.949 287.711C239.854 290.525 239.082 294.559 227.282 295.171C227.282 295.171 215.875 293.709 212.901 293.626L210.809 292.895C210.809 292.895 213.383 298.355 210.583 303.561C207.783 308.764 205.747 310.565 206.048 311.575L212.249 340.576C212.249 340.576 211.803 345.473 217.284 344.615C222.766 343.754 221.312 347.1 220.22 347.903C219.127 348.709 210.095 356.433 202.514 346.582C194.932 336.727 193.818 334.702 193.818 334.702L178.658 345.315C178.658 345.315 177.48 346.46 178.338 349.125C178.338 349.125 179.977 353.07 177.207 353.719Z" fill="white"/>
<path fill-rule="evenodd" clip-rule="evenodd" d="M315.887 193.262C313.184 132.56 375.665 135.514 375.799 135.534C450.398 146.569 432.643 241.206 374.83 244.2C374.79 244.202 318.219 245.641 315.887 193.262ZM318.03 193.189C316.402 156.627 340.498 144.62 357.997 140.713C358.056 140.776 358.133 140.842 358.223 140.914C359.425 141.871 360.617 142.752 362.234 143.063C363.182 143.246 364.1 143.578 365.019 143.91C365.727 144.166 366.437 144.423 367.161 144.611C368.12 144.86 369.117 144.971 370.112 145.082C370.399 145.114 370.685 145.146 370.971 145.182C371.235 145.214 371.503 145.216 371.771 145.217C372.109 145.219 372.446 145.222 372.772 145.286C373.204 145.37 373.628 145.492 374.052 145.613C374.578 145.763 375.103 145.913 375.639 145.993C376.019 146.049 376.414 146.03 376.807 146.01C377.278 145.987 377.746 145.964 378.185 146.072C379.338 146.354 380.457 146.789 381.572 147.222L381.575 147.223L381.576 147.223L381.576 147.223C381.732 147.284 381.889 147.344 382.045 147.405L382.295 147.501C383.477 147.957 384.665 148.415 385.788 148.991C386.867 149.545 387.874 149.436 388.448 148.468C389.323 146.995 390.241 145.623 392.189 145.443C392.566 145.408 392.933 145.248 393.299 145.087L393.299 145.087C393.466 145.014 393.633 144.941 393.8 144.88L393.601 144.802C393.119 144.612 392.636 144.423 392.156 144.228C392.147 144.224 392.149 144.2 392.151 144.174C392.153 144.144 392.155 144.11 392.142 144.101C390.981 143.253 389.055 143.947 388.404 145.196C388.004 145.966 387.231 146.729 386.442 147.063C385.636 147.405 384.956 146.981 384.238 146.533C383.941 146.348 383.638 146.158 383.317 146.017C381.94 145.606 380.698 145.199 379.463 144.782C379.074 144.651 378.688 144.51 378.302 144.37C377.48 144.072 376.658 143.773 375.813 143.564C375.389 143.459 374.941 143.466 374.49 143.474C374.139 143.48 373.786 143.486 373.443 143.438C372.767 143.344 372.094 143.22 371.422 143.095L371.421 143.095C370.675 142.956 369.929 142.818 369.178 142.722C368.68 142.658 368.17 142.644 367.661 142.63C366.835 142.607 366.012 142.584 365.252 142.349C364.974 142.262 364.704 142.163 364.436 142.064C363.733 141.805 363.037 141.548 362.214 141.537C361.486 141.526 360.636 141.025 360.074 140.496C360.001 140.428 359.932 140.37 359.864 140.322C368.724 138.577 375.471 138.877 375.513 138.883C442.962 149.325 429.078 238.685 374.83 241.495C374.793 241.497 320.218 242.339 318.03 193.189ZM165.863 344.463L165.92 344.629C166.27 345.655 166.868 346.597 167.484 347.566L167.484 347.567C167.724 347.945 167.967 348.327 168.199 348.721C168.348 348.903 168.483 349.081 168.613 349.254L168.614 349.255L168.614 349.256C168.85 349.568 169.07 349.859 169.329 350.111C170.973 351.714 172.769 353.118 174.904 354.012C175.048 354.073 175.232 354.037 175.415 354.002C175.599 353.966 175.783 353.93 175.925 353.993C177.842 354.84 179.744 353.753 179.668 351.639C179.641 350.913 179.424 350.196 179.205 349.475C179.053 348.972 178.9 348.467 178.811 347.956C178.719 347.427 178.812 346.748 179.086 346.296C179.802 345.109 180.938 344.387 182.136 343.683C182.701 343.351 183.182 342.88 183.665 342.407C184.041 342.039 184.418 341.669 184.838 341.363C185.502 340.88 186.208 340.455 186.915 340.03L186.915 340.03L186.915 340.03L186.915 340.03L186.916 340.03L186.916 340.03L186.916 340.03L186.916 340.029L186.917 340.029L186.917 340.029L186.917 340.029L186.917 340.029L186.917 340.029L186.918 340.029L186.918 340.028L186.918 340.028L186.918 340.028L186.919 340.028L186.919 340.028L186.919 340.028L186.919 340.028C187.437 339.716 187.955 339.405 188.457 339.07C188.802 338.839 189.127 338.582 189.451 338.325C190.214 337.719 190.975 337.114 192.01 336.855C193.319 336.529 194.686 336.943 195.466 338.163C195.8 338.685 196.196 339.166 196.593 339.648L196.594 339.648C196.895 340.014 197.196 340.38 197.471 340.764C198.136 341.694 198.763 342.657 199.348 343.639C199.583 344.032 199.788 344.449 199.992 344.865L199.992 344.866C200.347 345.588 200.701 346.308 201.208 346.9C201.901 347.705 202.697 348.42 203.494 349.135C204.035 349.622 204.577 350.109 205.088 350.624C206.525 352.075 208.378 352.456 210.252 352.616C211.214 352.696 212.188 352.507 213.139 352.322L213.139 352.322L213.139 352.322L213.139 352.322C213.736 352.206 214.324 352.092 214.894 352.048C215.647 351.989 216.247 351.692 216.837 351.4L216.837 351.4C217.386 351.128 217.925 350.86 218.57 350.795C219.174 350.734 219.732 350.223 220.29 349.711C220.539 349.482 220.788 349.254 221.042 349.065C222.641 347.876 222.694 345.669 221.094 344.547C220.931 344.433 220.689 344.424 220.449 344.415C220.2 344.406 219.954 344.397 219.799 344.271C218.568 343.264 217.25 343.531 215.903 343.824C214.712 344.08 213.263 342.762 213.28 341.55C213.287 341.057 213.155 340.559 213.025 340.068C212.992 339.941 212.958 339.814 212.927 339.688C212.852 339.378 212.756 339.07 212.661 338.762C212.49 338.21 212.32 337.66 212.264 337.098C212.216 336.605 212.096 336.129 211.976 335.654C211.818 335.03 211.661 334.406 211.664 333.74C211.666 333.341 211.511 332.946 211.356 332.547C211.241 332.253 211.126 331.958 211.071 331.657C210.992 331.223 210.961 330.781 210.929 330.339C210.896 329.88 210.863 329.42 210.778 328.97C210.662 328.363 210.51 327.762 210.357 327.162L210.357 327.162C210.184 326.482 210.012 325.802 209.893 325.113C209.805 324.603 209.805 324.079 209.804 323.553C209.804 323.212 209.804 322.87 209.78 322.531C209.765 322.332 209.765 322.116 209.764 321.899C209.762 321.285 209.76 320.653 209.452 320.305C209.073 319.879 209.089 319.435 209.106 318.982C209.119 318.605 209.133 318.222 208.92 317.839C208.511 317.104 208.487 316.15 208.464 315.203C208.455 314.849 208.446 314.496 208.417 314.156C208.397 313.92 208.426 313.655 208.453 313.395C208.501 312.951 208.547 312.521 208.35 312.268C207.627 311.348 208.043 310.434 208.351 309.758C208.369 309.719 208.387 309.68 208.403 309.643C208.907 308.524 209.505 307.448 210.104 306.373L210.104 306.372L210.104 306.372C210.745 305.219 211.386 304.066 211.91 302.862C212.397 301.741 212.552 300.462 212.705 299.206L212.705 299.203C212.736 298.952 212.766 298.702 212.799 298.455C212.858 298.006 212.842 297.546 212.825 297.087V297.087C212.806 296.575 212.788 296.064 212.875 295.571C212.937 295.222 213.416 294.921 213.824 294.667C213.885 294.628 213.944 294.591 214.001 294.555C214.042 294.529 214.135 294.61 214.247 294.708C214.376 294.822 214.532 294.958 214.662 294.974C215.031 295.022 215.435 295.018 215.836 295.014H215.837C216.617 295.006 217.388 294.999 217.878 295.371C218.756 296.037 219.677 296.002 220.556 295.968C220.92 295.954 221.276 295.941 221.619 295.977C223.543 296.182 225.502 296.061 227.461 295.94L227.461 295.94C228.231 295.893 229 295.845 229.768 295.817C230.274 295.799 230.784 295.779 231.283 295.699C233.766 295.298 236.206 294.719 238.17 293.04C238.777 292.522 239.286 291.889 239.794 291.257C240.007 290.992 240.22 290.727 240.44 290.471C241.026 289.789 241.246 289.013 241.495 288.125C241.957 286.482 240.931 284.42 239.153 284.553C238.422 284.607 237.928 284.378 237.341 284.096C236.99 283.928 236.517 283.925 236.113 283.97C235.833 284.002 235.551 284.056 235.269 284.109C234.128 284.327 232.999 284.542 232.083 283.261C231.892 282.993 231.514 282.848 231.151 282.709L231.151 282.709C231.082 282.682 231.013 282.656 230.946 282.629C230.923 282.619 230.899 282.61 230.876 282.6L230.84 282.585C230.636 282.496 230.413 282.431 230.191 282.366C229.795 282.251 229.403 282.136 229.123 281.889C227.971 280.877 226.9 279.766 225.863 278.633C225.333 278.054 224.831 277.45 224.328 276.845L224.328 276.845L224.328 276.845L224.328 276.845L224.328 276.845L224.328 276.845L224.328 276.844L224.328 276.844L224.328 276.844L224.327 276.844L224.327 276.844L224.327 276.844L224.327 276.844L224.327 276.844L224.327 276.844L224.327 276.844L224.327 276.844L224.327 276.843L224.327 276.843L224.327 276.843L224.326 276.843C223.807 276.218 223.288 275.593 222.738 274.996C221.654 273.82 220.518 272.685 219.342 271.601C218.376 270.711 217.346 269.883 216.29 269.1C215.521 268.532 214.695 268.04 213.871 267.55L213.636 267.41C212.544 266.759 212.454 265.613 212.43 264.586C212.425 264.345 212.853 264.095 213.281 263.844C213.478 263.728 213.676 263.613 213.831 263.498C213.868 263.471 213.906 263.439 213.928 263.4L214.026 263.222L214.132 263.029L214.262 262.796L214.368 262.603L214.475 262.411C215.014 261.438 215.553 260.466 216.064 259.48C216.196 259.223 216.249 258.924 216.301 258.627L216.311 258.566L216.324 258.494L216.33 258.462L216.339 258.415C216.344 258.39 216.349 258.365 216.354 258.34L216.362 258.3C216.443 257.923 216.538 257.546 216.633 257.168L216.633 257.168L216.633 257.168L216.633 257.168L216.633 257.168L216.633 257.168L216.633 257.167L216.633 257.167C216.881 256.177 217.129 255.186 217.14 254.194C217.145 253.705 217.045 253.045 216.949 252.471C216.767 251.382 216.576 250.29 216.277 249.23C216.17 248.849 215.986 248.492 215.801 248.134L215.801 248.134L215.8 248.134C215.66 247.861 215.518 247.588 215.411 247.304C215.28 246.956 215.185 246.582 215.091 246.209L215.091 246.209L215.091 246.209L215.091 246.208L215.091 246.208L215.091 246.208L215.091 246.208L215.091 246.208L215.091 246.208L215.091 246.208L215.091 246.207L215.091 246.207L215.091 246.207L215.091 246.207L215.091 246.207L215.09 246.207L215.09 246.207L215.09 246.206L215.09 246.206C214.914 245.509 214.739 244.816 214.328 244.311C213.954 243.853 213.641 243.34 213.327 242.826C212.598 241.631 211.865 240.429 210.351 239.89C209.74 239.672 209.161 239.337 208.585 239.004C207.816 238.559 207.052 238.117 206.228 237.964C204.099 237.568 201.872 237.604 199.689 237.641C197.97 237.67 196.184 237.744 194.563 238.24C193.394 238.597 192.214 239.174 191.094 239.924C190.891 240.061 190.683 240.196 190.474 240.333C189.406 241.03 188.314 241.743 187.616 242.68C187.346 243.042 187.036 243.388 186.722 243.736C185.776 244.79 184.804 245.872 184.868 247.493C183.804 248.099 183.774 249.141 183.746 250.107C183.737 250.409 183.729 250.703 183.689 250.975L183.684 251.006C183.518 252.135 183.341 253.343 183.599 254.675C183.916 256.308 184.275 257.773 185.127 259.174C185.631 260.003 186.047 260.885 184.65 261.346C184.454 261.41 184.213 261.579 184.148 261.757C183.815 262.662 183.366 263.482 182.407 263.805C181.528 264.101 181.594 264.718 181.658 265.322V265.322C181.675 265.477 181.691 265.631 181.692 265.779C181.692 265.858 182.428 266.111 182.607 265.983C183.152 265.593 183.678 265.176 184.204 264.759L184.204 264.759L184.205 264.759L184.205 264.759L184.205 264.759L184.205 264.758L184.205 264.758L184.206 264.758L184.206 264.758L184.206 264.758L184.206 264.758L184.206 264.758L184.206 264.757L184.207 264.757L184.207 264.757L184.207 264.757L184.207 264.757L184.207 264.757L184.208 264.757L184.208 264.757L184.208 264.756L184.209 264.756C184.932 264.183 185.654 263.611 186.423 263.108C186.886 262.805 187.704 262.762 188.256 262.935C188.853 263.122 189.415 263.421 189.977 263.72L189.977 263.72C190.32 263.902 190.662 264.084 191.014 264.242C191.92 264.648 192.835 265.033 193.749 265.419L193.752 265.42L193.755 265.421L193.757 265.422L193.76 265.423C194.235 265.623 194.71 265.824 195.183 266.026C195.806 266.294 195.919 266.643 195.339 267.094C195.042 267.325 194.744 267.555 194.446 267.785L194.444 267.787L194.442 267.788L194.44 267.79L194.437 267.792C193.657 268.394 192.876 268.996 192.109 269.615C189.982 271.329 188.912 273.709 188.619 276.286C188.416 278.067 188.614 280.027 189.183 281.722C189.633 283.062 190.553 284.265 191.449 285.438C191.61 285.648 191.77 285.858 191.926 286.067C193.089 287.621 194.745 288.543 196.393 289.46C196.864 289.722 197.334 289.983 197.792 290.259C198.852 290.898 200.081 291.29 201.274 291.661C201.861 291.843 202.469 291.955 203.078 292.067C203.564 292.156 204.051 292.245 204.527 292.371C204.963 292.485 205.386 292.646 205.809 292.806L205.809 292.806L205.81 292.806L205.81 292.806L205.81 292.806L205.81 292.806L205.81 292.806L205.81 292.807L205.81 292.807L205.811 292.807L205.811 292.807L205.811 292.807L205.811 292.807L205.811 292.807L205.811 292.807L205.811 292.807L205.812 292.807L205.812 292.807L205.812 292.807L205.812 292.807L205.812 292.807C206.205 292.956 206.599 293.105 207.003 293.218C207.731 293.42 208.47 293.586 209.209 293.752C209.576 293.835 209.944 293.918 210.311 294.005C210.319 294.007 210.321 294.028 210.323 294.052C210.325 294.08 210.327 294.113 210.342 294.124C210.833 294.514 211.525 297.447 211.334 298.014C210.99 299.042 210.697 300.088 210.405 301.133L210.405 301.133L210.405 301.133L210.405 301.133L210.404 301.134L210.404 301.134L210.404 301.134L210.404 301.135L210.404 301.135L210.404 301.135L210.404 301.135L210.404 301.136L210.404 301.136L210.404 301.136L210.404 301.136L210.403 301.137L210.403 301.137L210.403 301.137L210.403 301.138L210.403 301.138L210.403 301.138L210.343 301.351C210.28 301.577 210.24 301.815 210.2 302.053C210.128 302.48 210.056 302.906 209.85 303.254L209.654 303.586L209.654 303.586C208.75 305.115 207.838 306.658 206.716 308.019C205.6 309.371 204.296 310.646 202.634 311.356C202.309 311.495 202.03 311.709 201.749 311.925C201.171 312.368 200.582 312.819 199.565 312.641C199.019 312.545 198.35 313.14 197.684 313.733C197.39 313.994 197.096 314.255 196.814 314.456C196.745 314.504 196.694 314.577 196.642 314.651C196.619 314.683 196.596 314.715 196.571 314.746C196.611 314.758 196.651 314.773 196.691 314.788C196.773 314.819 196.856 314.851 196.939 314.851C197.225 314.854 197.513 314.846 197.8 314.839L197.801 314.838C198.391 314.822 198.98 314.806 199.555 314.889C200.113 314.969 201.111 315.436 201.086 315.612C200.953 316.534 200.899 317.461 200.845 318.39C200.758 319.879 200.672 321.374 200.257 322.865C199.996 323.804 199.572 324.647 199.15 325.485L199.15 325.485C198.831 326.12 198.513 326.753 198.268 327.423C197.623 329.186 196.048 330.733 194.583 332.044C193.33 333.166 191.941 334.135 190.552 335.105L190.552 335.105L190.552 335.105L190.552 335.105L190.552 335.106L190.551 335.106L190.551 335.106L190.551 335.106L190.551 335.106L190.551 335.106L190.551 335.106L190.551 335.106L190.551 335.106L190.551 335.106L190.551 335.106L190.551 335.107L190.55 335.107L190.55 335.107L190.55 335.107L190.55 335.107L190.55 335.107L190.55 335.107C189.856 335.592 189.163 336.076 188.486 336.579C187.685 337.177 186.899 337.797 186.113 338.416L186.113 338.416L186.112 338.417L186.112 338.417L186.111 338.417L186.111 338.418L186.111 338.418L186.11 338.418L186.11 338.419L186.109 338.419L186.109 338.419L186.108 338.419L186.108 338.42L186.108 338.42L186.106 338.421L186.106 338.422C185.648 338.783 185.189 339.144 184.728 339.501L184.589 339.608L184.589 339.608C183.883 340.152 183.176 340.697 182.453 341.219C182.159 341.432 181.87 341.655 181.58 341.878C180.823 342.462 180.064 343.047 179.217 343.44C177.857 344.069 177.018 345.101 177.029 346.414C177.037 347.375 177.297 348.331 177.559 349.29C177.689 349.769 177.82 350.248 177.919 350.729C177.979 351.017 177.983 351.316 177.987 351.615C177.989 351.753 177.991 351.89 177.998 352.026C177.722 352.017 177.438 352.03 177.153 352.043C176.512 352.072 175.87 352.101 175.324 351.885C174.669 351.627 174.077 351.218 173.483 350.808L173.483 350.808C173.067 350.521 172.649 350.233 172.209 349.995C170.622 349.14 169.75 347.689 168.914 346.218C168.316 345.166 167.818 344.052 167.322 342.946L167.322 342.946L167.255 342.795C167.237 342.756 167.219 342.715 167.2 342.674C167.004 342.242 166.753 341.69 166.905 341.393C167.405 340.422 168.061 339.514 168.757 338.665C170.137 336.978 171.561 335.326 172.985 333.674L173.477 333.103C173.681 332.866 173.88 332.623 174.079 332.38L174.079 332.379C174.656 331.674 175.235 330.967 175.934 330.413C177.847 328.899 179.381 327.114 180.725 325.086C181.771 323.505 182.181 321.916 181.791 320.084C181.766 319.968 181.843 319.831 181.92 319.693C181.956 319.629 181.992 319.565 182.018 319.502C181.856 319.461 181.694 319.42 181.531 319.379L181.04 319.253L181.029 319.251L181.019 319.248C180.686 319.163 180.354 319.079 180.021 318.994C179.99 319.13 179.945 319.266 179.901 319.403L179.901 319.403L179.901 319.403L179.901 319.403L179.901 319.404L179.901 319.404L179.901 319.404L179.901 319.404L179.901 319.404L179.901 319.404L179.901 319.404L179.901 319.405L179.9 319.405C179.804 319.702 179.708 320 179.737 320.286C179.971 322.515 179.26 324.181 177.571 325.8C175.407 327.877 173.42 330.141 171.434 332.405C170.774 333.158 170.113 333.91 169.446 334.656C169.091 335.052 168.718 335.426 168.345 335.798C167.069 337.075 165.807 338.337 165.37 340.447C165.037 342.057 165.442 343.238 165.863 344.463ZM228.101 293.513C227.54 293.555 226.978 293.597 226.412 293.63C217.878 294.124 208.21 291.598 207.528 291.282C206.784 290.937 205.969 290.741 205.155 290.546L205.155 290.546C204.832 290.469 204.509 290.391 204.19 290.305C203.915 290.229 203.637 290.161 203.36 290.092L203.359 290.092C202.925 289.984 202.491 289.877 202.065 289.745C200.916 289.391 199.774 289.014 198.64 288.617C198.234 288.474 197.84 288.273 197.472 288.048C197.201 287.882 196.925 287.722 196.648 287.562L196.647 287.562C195.877 287.118 195.105 286.673 194.466 286.085C193.832 285.501 193.372 284.711 192.922 283.938C192.84 283.796 192.758 283.655 192.675 283.516C192.18 282.684 191.73 281.807 191.368 280.917C189.849 277.172 191.752 273.125 192.551 271.826C193.561 270.181 195.443 269.277 196.979 269C198.295 268.762 200.034 268.708 201.629 269.258C202.727 269.637 203.682 270.21 204.633 270.781C205.198 271.119 205.761 271.457 206.351 271.753C208.334 272.745 210.109 274.033 211.868 275.309L212.075 275.46C213.091 276.196 213.964 277.125 214.838 278.057C215.375 278.629 215.913 279.202 216.485 279.732C217.373 280.553 218.331 281.299 219.288 282.044L219.566 282.261C219.7 282.365 219.833 282.469 219.966 282.574C220.202 282.76 220.436 282.953 220.67 283.146L220.67 283.146C221.378 283.731 222.089 284.317 222.888 284.725C223.902 285.243 224.991 285.613 226.079 285.982C226.428 286.101 226.778 286.219 227.124 286.343C227.962 286.642 228.81 286.924 229.673 287.137C229.769 287.16 229.866 287.185 229.964 287.21L229.964 287.21L229.964 287.21C230.639 287.381 231.337 287.557 232.004 287.503C233.947 287.344 234.036 287.276 235.654 286.046L235.927 285.838C236.123 285.69 236.448 285.582 236.677 285.63C238.015 285.909 239.39 286.247 240.258 287.362C240.446 287.604 239.995 288.586 239.599 288.994C239.525 289.07 239.452 289.147 239.378 289.223C238.197 290.445 237.042 291.64 235.328 292.344C233.839 292.956 232.431 293.304 230.868 293.348C229.943 293.374 229.024 293.443 228.101 293.513ZM185.821 256.714L185.821 256.713C185.813 256.573 185.805 256.434 185.789 256.3C185.717 255.698 185.653 255.094 185.589 254.491C185.563 254.244 185.537 253.996 185.51 253.749C185.662 252.493 185.796 251.511 185.971 250.536C186.002 250.362 186.029 250.183 186.055 250.005C186.141 249.43 186.227 248.849 186.482 248.36C186.771 247.803 187.134 247.285 187.497 246.766L187.497 246.766L187.497 246.766L187.498 246.766L187.498 246.765L187.498 246.765L187.498 246.765L187.498 246.765L187.498 246.765L187.498 246.765L187.498 246.765L187.498 246.764L187.498 246.764L187.498 246.764L187.499 246.764L187.499 246.764L187.499 246.764L187.499 246.763L187.499 246.763L187.499 246.763L187.499 246.763L187.499 246.763C187.848 246.264 188.197 245.766 188.481 245.233C189.45 243.42 191.131 242.523 192.788 241.639C193.233 241.401 193.676 241.165 194.103 240.912C195.019 240.369 196.161 240.19 197.288 240.014L197.288 240.014L197.289 240.014C197.651 239.957 198.011 239.901 198.362 239.833C199.287 239.654 200.245 239.543 201.185 239.561C202.69 239.59 204.141 239.937 205.615 240.306C207.621 240.809 209.231 241.841 210.705 243.153C211.007 243.422 211.182 243.832 211.358 244.243C211.444 244.444 211.529 244.645 211.63 244.83C211.839 245.213 212.051 245.594 212.262 245.975L212.263 245.977L212.264 245.978L212.264 245.979L212.265 245.98L212.265 245.981L212.266 245.981L212.266 245.982L212.267 245.983L212.267 245.984L212.268 245.985L212.268 245.986L212.269 245.987L212.269 245.987L212.269 245.988L212.27 245.989L212.27 245.989L212.27 245.99L212.271 245.99L212.271 245.991L212.271 245.991C212.623 246.625 212.976 247.259 213.313 247.901C213.788 248.804 212.997 249.819 211.954 249.874C211.224 249.913 205.826 250.37 203.876 252.079C202.213 253.536 201.809 254.096 201.158 254.998C201.046 255.154 200.926 255.32 200.791 255.503C200.312 256.151 199.906 259.123 200.166 259.915C200.394 260.608 200.706 261.273 201.018 261.939L201.018 261.94L201.018 261.94C201.268 262.472 201.517 263.004 201.724 263.551C201.872 263.942 201.908 264.376 201.943 264.81C201.96 265.007 201.976 265.204 202.002 265.396C201.811 265.391 201.619 265.393 201.427 265.395C200.99 265.4 200.554 265.405 200.136 265.32C199.671 265.226 199.223 265.05 198.774 264.874C198.574 264.796 198.374 264.717 198.172 264.646C197.305 264.34 196.438 264.034 195.57 263.728L195.504 263.704L194.766 263.444L194.263 263.267C193.983 263.168 193.698 263.076 193.414 262.984C192.788 262.782 192.162 262.579 191.573 262.3C189.351 261.244 187.273 259.968 186.026 257.737C185.865 257.448 185.843 257.079 185.821 256.714ZM208.742 329.095L208.742 329.096C208.879 329.664 209.016 330.232 209.143 330.802C209.163 330.896 209.101 331.007 209.038 331.118L209.038 331.118L209.016 331.158C209.01 331.169 209.004 331.179 208.999 331.19C208.991 331.205 208.983 331.22 208.976 331.234C208.97 331.247 208.965 331.259 208.96 331.271C209.144 332.314 209.318 333.084 209.514 333.848C209.652 334.39 209.796 334.931 209.939 335.472C210.213 336.507 210.488 337.543 210.731 338.585C210.866 339.164 210.931 339.79 210.874 340.378C210.721 341.962 212.549 345.396 214.007 345.633C214.999 345.795 216.018 345.78 217.04 345.765H217.04H217.04H217.04H217.04H217.04H217.041H217.041H217.041H217.041H217.041H217.042H217.042H217.042H217.042H217.042H217.042H217.043H217.043C217.674 345.756 218.307 345.747 218.934 345.78C219.427 345.805 219.963 346.036 220.358 346.334C220.482 346.428 220.324 347.154 220.094 347.405C219.555 347.992 218.935 348.53 218.273 348.974C215.929 350.552 213.253 350.528 210.587 350.437C208.23 350.357 206.081 349.816 204.65 347.669C203.978 346.662 203.268 345.679 202.557 344.696C202.119 344.089 201.68 343.482 201.25 342.869C200.89 342.355 200.54 341.834 200.189 341.313L200.189 341.312L200.188 341.311L200.187 341.31L200.187 341.309L200.186 341.308L200.185 341.307C199.758 340.671 199.33 340.036 198.885 339.412C198.549 338.942 198.191 338.482 197.834 338.023L197.833 338.022L197.833 338.022C197.063 337.033 196.294 336.045 195.738 334.949C195.448 334.378 196.031 333.103 196.566 332.427C197.135 331.707 197.78 331.046 198.425 330.385L198.425 330.384C199.161 329.629 199.896 328.875 200.518 328.035C200.817 327.63 200.921 327.075 201.024 326.523C201.133 325.942 201.241 325.366 201.574 324.973C202.422 323.975 202.434 322.863 202.445 321.77C202.45 321.298 202.455 320.83 202.527 320.377C202.632 319.718 202.729 319.057 202.826 318.394L202.827 318.392L202.827 318.391L202.827 318.39C203.031 317.002 203.236 315.611 203.51 314.241C203.611 313.738 204.149 313.313 204.666 312.904C204.839 312.767 205.009 312.633 205.16 312.497C205.228 312.437 205.757 312.68 205.826 312.87C206.058 313.51 206.235 314.183 206.33 314.859C206.443 315.666 206.538 316.476 206.633 317.286L206.633 317.287L206.633 317.288C206.757 318.346 206.881 319.405 207.046 320.457C207.132 321.003 207.283 321.539 207.435 322.076C207.568 322.547 207.701 323.018 207.789 323.497C207.878 323.975 207.92 324.461 207.962 324.948C208.007 325.455 208.051 325.962 208.147 326.46C208.319 327.343 208.53 328.219 208.742 329.095ZM207.19 265.367C206.673 265.519 205.825 265.101 205.344 264.688C204.917 264.323 204.597 263.831 204.278 263.34C204.14 263.128 204.002 262.916 203.856 262.715C203.726 262.519 203.596 262.334 203.472 262.155C203.067 261.574 202.709 261.06 202.508 260.49C202.386 260.144 202.386 259.758 202.385 259.369C202.385 259.059 202.385 258.746 202.323 258.451C202.033 257.081 202.773 256.225 203.536 255.342L203.537 255.341C203.649 255.212 203.761 255.082 203.871 254.95C204.755 253.883 205.843 253.092 207.044 252.491C207.732 252.146 208.567 252.002 209.347 251.952C209.85 251.919 210.36 251.941 210.869 251.964C211.603 251.996 212.335 252.028 213.038 251.894C213.822 251.744 214.069 252.115 214.329 252.534C214.571 252.924 214.72 253.43 214.734 253.89C214.768 255.106 214.728 256.326 214.663 257.541C214.658 257.636 214.554 257.724 214.447 257.813C214.342 257.9 214.235 257.989 214.219 258.089C213.841 260.416 212.415 262.168 210.805 263.662C209.867 264.532 208.464 264.991 207.19 265.367ZM223.793 282.777C223.767 282.805 223.741 282.833 223.72 282.854C223.517 282.679 223.32 282.508 223.128 282.341C222.338 281.654 221.625 281.034 220.877 280.458C220.688 280.312 220.458 280.216 220.229 280.121C219.98 280.018 219.731 279.915 219.536 279.747C218.88 279.18 218.244 278.588 217.609 277.996L217.608 277.995L217.607 277.994C217.069 277.493 216.531 276.992 215.981 276.506C214.852 275.51 213.694 274.547 212.525 273.599C212.279 273.4 212.036 273.198 211.793 272.995C210.964 272.305 210.133 271.613 209.218 271.064C208.351 270.544 207.428 270.118 206.505 269.693L206.504 269.692L206.503 269.692L206.502 269.691L206.501 269.691L206.5 269.691L206.499 269.69L206.498 269.69L206.498 269.689L206.497 269.689L206.496 269.689L206.495 269.688L206.494 269.688L206.493 269.687L206.493 269.687C205.938 269.432 205.383 269.176 204.84 268.899C204.235 268.59 203.666 268.209 203.099 267.829L203.099 267.829C203.013 267.772 202.928 267.715 202.843 267.659C202.83 267.649 203.016 267.166 203.139 267.151C203.584 267.097 204.035 267.017 204.488 266.937L204.488 266.937C205.653 266.732 206.824 266.525 207.899 266.754C209.421 267.078 210.959 267.626 212.4 268.618C214.777 270.254 216.877 272.126 218.872 274.156C221.065 276.387 223.228 278.648 225.39 280.908L226.182 281.736C227.14 282.737 228.07 283.764 228.999 284.792C229.084 284.885 229.143 285.125 229.086 285.2L229.085 285.2C228.897 285.448 228.571 285.877 228.441 285.831C228.01 285.679 227.619 285.395 227.24 285.119L227.24 285.119L227.171 285.069C226.599 284.655 226.032 284.234 225.464 283.814C224.946 283.431 224.428 283.048 223.908 282.668C223.9 282.663 223.847 282.72 223.793 282.777ZM472.415 350.042C472.168 350.051 471.908 350.088 471.647 350.125C471.073 350.207 470.499 350.288 470.07 350.078C470.042 350.064 469.961 350.023 469.829 349.957L469.828 349.956L469.826 349.955C465.523 347.784 407.528 318.526 348.365 300.524C297.08 284.918 243.216 280.5 240.912 280.311L240.846 280.305C240.6 280.285 295.584 278.922 349.175 294.993C410.784 313.468 472.158 349.732 472.415 350.042ZM280.207 247.722C280.272 247.118 280.338 246.506 280.413 245.886C280.373 245.722 280.334 245.562 280.297 245.405L280.297 245.405C280.123 244.678 279.965 244.021 279.719 243.399L279.68 243.298L279.656 243.237L279.618 243.14C279.242 242.165 278.864 241.189 277.598 240.885C277.319 240.818 277.081 240.604 276.839 240.386C276.64 240.206 276.439 240.025 276.21 239.922C275.541 239.62 274.812 239.411 274.088 239.283C273.722 239.219 273.346 239.21 272.971 239.2C272.601 239.191 272.231 239.182 271.87 239.12C271.223 239.01 270.579 238.871 269.935 238.732C268.946 238.518 267.957 238.304 266.956 238.194C266.57 238.152 266.185 238.116 265.801 238.079L265.8 238.079L265.799 238.079C264.725 237.977 263.653 237.876 262.582 237.649C261.589 237.438 260.557 237.409 259.528 237.38C259.199 237.371 258.87 237.361 258.542 237.346C258.393 237.339 258.238 237.389 258.084 237.438C257.914 237.493 257.745 237.547 257.586 237.523C256.45 237.352 255.319 237.145 254.188 236.939C253.9 236.886 253.611 236.833 253.322 236.781C252.819 236.69 252.319 236.698 251.813 236.706H251.813C251.248 236.715 250.676 236.723 250.084 236.595C249.068 236.375 248.009 236.367 246.941 236.359C246.223 236.354 245.502 236.348 244.787 236.278C243.311 236.133 241.816 236.168 240.322 236.202H240.322H240.322H240.322C239.711 236.216 239.101 236.23 238.491 236.232C237.59 236.235 236.47 237.273 236.406 238.156C236.387 238.407 236.401 238.682 236.415 238.957C236.445 239.534 236.474 240.109 236.204 240.45C235.522 241.313 235.615 242.241 235.708 243.172C235.785 243.937 235.861 244.704 235.511 245.44C235.164 246.169 235.207 247.045 235.251 247.921C235.273 248.348 235.294 248.775 235.27 249.186C235.229 249.875 235.168 250.565 235.106 251.255V251.256V251.256V251.256V251.256V251.256V251.257V251.257V251.257V251.257V251.257V251.258V251.258V251.258V251.258V251.258V251.259V251.259V251.259C234.984 252.609 234.863 253.962 234.902 255.318C234.907 255.502 234.955 255.688 235.004 255.873C235.064 256.105 235.124 256.336 235.097 256.559C234.979 257.51 234.836 258.458 234.692 259.406C234.573 260.197 234.453 260.988 234.348 261.781C234.272 262.353 234.276 262.924 234.279 263.498V263.498C234.284 264.233 234.289 264.974 234.127 265.726C233.94 266.599 233.936 267.502 233.932 268.413C233.929 269.1 233.926 269.792 233.844 270.479C233.739 271.364 233.756 272.256 233.774 273.151C233.797 274.359 233.821 275.572 233.544 276.78C233.373 277.527 233.328 278.302 233.282 279.078V279.078C233.253 279.575 233.224 280.073 233.161 280.565C233.138 280.747 233.022 280.95 232.915 281.139C232.787 281.364 232.671 281.568 232.738 281.689C232.953 282.072 233.459 282.365 233.904 282.53C235.117 282.978 236.75 282.389 236.819 281.527C236.85 281.142 236.894 280.754 236.938 280.365C237.054 279.351 237.171 278.335 237.047 277.35C236.931 276.433 237.14 275.582 237.347 274.736C237.523 274.019 237.698 273.306 237.673 272.559C237.666 272.33 237.944 271.893 238.104 271.886C240.174 271.798 242.247 271.747 244.319 271.735C245.058 271.731 245.797 271.752 246.535 271.773C247.347 271.796 248.159 271.82 248.97 271.809C249.821 271.798 250.673 271.762 251.524 271.726L251.525 271.726H251.525H251.525H251.526H251.526H251.526H251.527H251.527H251.527H251.527H251.528H251.528H251.528H251.529H251.529H251.529H251.53H251.53H251.53C252.903 271.668 254.275 271.609 255.644 271.657C256.505 271.687 257.359 271.861 258.215 272.036C258.811 272.157 259.408 272.279 260.009 272.352C260.381 272.397 260.754 272.406 261.129 272.414H261.129C261.737 272.428 262.348 272.442 262.959 272.614C263.319 272.714 263.709 272.702 264.1 272.69C264.463 272.678 264.827 272.667 265.168 272.745C265.727 272.874 266.27 273.071 266.813 273.268L266.813 273.269C267.279 273.438 267.746 273.607 268.222 273.733C268.768 273.878 269.331 273.953 269.894 274.028C270.178 274.066 270.462 274.105 270.743 274.151C270.993 274.193 271.255 274.267 271.517 274.34L271.517 274.34C272.083 274.5 272.646 274.659 273.085 274.489C273.95 274.156 274.798 273.407 275.302 272.614C275.814 271.807 276.022 270.779 276.22 269.808L276.249 269.664C276.309 269.367 276.277 269.036 276.245 268.712C276.204 268.286 276.163 267.872 276.333 267.56C276.846 266.615 276.982 265.608 277.117 264.603C277.183 264.11 277.249 263.617 277.36 263.132C277.413 262.901 277.386 262.629 277.359 262.365C277.323 262.017 277.289 261.682 277.445 261.475C278.144 260.549 278.244 259.492 278.344 258.433V258.433C278.407 257.766 278.47 257.099 278.683 256.464C278.977 255.588 279.145 254.644 279.313 253.701C279.386 253.291 279.459 252.881 279.542 252.477C279.861 250.93 280.031 249.352 280.207 247.722V247.722ZM275.145 264.18L275.145 264.18L275.145 264.18L275.145 264.18L275.145 264.18L275.145 264.181L275.145 264.181L275.145 264.181L275.145 264.181L275.145 264.181L275.145 264.181L275.144 264.181L275.144 264.182C274.957 265.143 274.771 266.099 274.344 266.991C274.322 267.193 274.308 267.38 274.295 267.552C274.26 268.014 274.233 268.374 274.08 268.668C273.843 269.127 273.812 269.659 273.781 270.19C273.731 271.057 273.68 271.919 272.733 272.454C272.693 272.477 272.651 272.501 272.608 272.526L272.607 272.526C272.305 272.701 271.957 272.903 271.689 272.843C271.416 272.783 271.161 272.64 270.906 272.497C270.638 272.347 270.372 272.198 270.086 272.144C269.582 272.05 269.068 272.01 268.554 271.97C267.964 271.924 267.374 271.879 266.803 271.751C266.315 271.642 265.847 271.446 265.38 271.251C264.904 271.051 264.428 270.852 263.931 270.745C263.299 270.608 262.649 270.56 261.997 270.513C261.491 270.476 260.983 270.439 260.484 270.359C256.207 269.681 251.912 269.783 247.618 269.885C245.045 269.946 242.471 270.007 239.901 269.9C239.011 269.863 238.264 269.815 238.199 268.678C238.175 268.269 238.102 267.842 238.029 267.415C237.879 266.537 237.729 265.663 238.018 264.97C238.629 263.508 238.556 262.064 238.484 260.626C238.454 260.023 238.424 259.42 238.444 258.818C238.637 253.146 238.688 247.468 238.733 241.793C238.733 241.71 238.733 241.627 238.734 241.545C238.736 240.616 238.737 239.755 239.422 238.982C239.815 238.537 240.163 238.371 240.771 238.415C241.487 238.466 242.205 238.476 242.923 238.486H242.924C243.738 238.498 244.551 238.509 245.36 238.581C246.171 238.652 246.977 238.779 247.784 238.906C248.632 239.039 249.48 239.172 250.334 239.241C250.883 239.286 251.452 239.246 252.018 239.206C252.896 239.144 253.765 239.083 254.537 239.34C256.099 239.86 257.675 239.898 259.248 239.935C260.064 239.955 260.878 239.974 261.69 240.061C262.32 240.128 262.982 240.078 263.639 240.028C264.627 239.954 265.601 239.88 266.429 240.208C267.793 240.749 269.154 240.759 270.496 240.769C271.029 240.773 271.558 240.777 272.083 240.814C274.296 240.97 276.218 241.602 277.445 243.222C278.158 244.163 278.844 245.721 277.947 247.185C277.868 247.313 277.889 247.499 277.91 247.688V247.689C277.922 247.795 277.934 247.902 277.928 248.001C277.901 248.471 277.907 248.954 277.912 249.436C277.924 250.543 277.936 251.651 277.564 252.61C277.207 253.53 277.036 254.475 276.865 255.417C276.723 256.207 276.58 256.995 276.328 257.765C276.152 258.303 276.156 258.908 276.159 259.509C276.164 260.188 276.168 260.861 275.912 261.425C275.509 262.312 275.327 263.248 275.145 264.18L275.145 264.18ZM235.546 270.13L235.499 270.082C235.479 270.062 235.46 270.043 235.445 270.026C235.956 270.077 236.533 270.181 236.655 270.475C236.788 270.795 236.768 271.178 236.749 271.562C236.74 271.725 236.732 271.888 236.735 272.046C236.697 272.046 236.653 272.052 236.61 272.057C236.514 272.069 236.418 272.081 236.376 272.04C236.317 271.98 236.275 271.891 236.234 271.805C236.182 271.694 236.132 271.588 236.051 271.559C235.099 271.219 235.073 271.157 235.695 270.305C235.705 270.291 235.626 270.21 235.546 270.13ZM340.393 374.35L340.394 374.35L340.394 374.351L340.395 374.351L340.404 374.355C340.544 374.427 340.682 374.498 340.821 374.568C341.008 374.663 341.193 374.757 341.38 374.849C341.627 374.972 341.885 375.076 342.143 375.179C342.569 375.35 342.992 375.519 343.358 375.773C343.811 376.086 344.191 376.508 344.57 376.927C344.688 377.059 344.807 377.19 344.928 377.318C344.983 377.379 344.944 377.655 344.9 377.669C344.827 377.691 344.751 377.718 344.673 377.747C344.637 377.761 344.601 377.775 344.564 377.789C344.249 377.909 343.924 378.034 343.684 377.945C343.287 377.796 342.879 377.676 342.47 377.556C341.257 377.2 340.044 376.845 339.14 375.732C338.406 374.827 337.391 374.077 336.362 373.514C335.898 373.263 335.051 373.633 334.861 374.402C334.379 376.342 329.106 384.036 321.21 384.036C313.315 384.036 300.894 383.223 297.592 379.259C292.953 373.689 294.74 363.052 294.912 362.028L294.922 361.971C294.977 361.624 294.72 361.185 294.502 360.859C294.435 360.76 293.965 360.818 293.766 360.942C293.157 361.327 292.565 361.736 291.972 362.146L291.971 362.147C291.731 362.313 291.491 362.48 291.249 362.644C290.976 362.829 290.706 363.019 290.436 363.208L290.433 363.21C289.696 363.726 288.959 364.242 288.174 364.672C287.934 364.804 287.538 364.675 287.168 364.555C287.058 364.519 286.95 364.484 286.85 364.457C286.64 364.398 286.441 364.296 286.243 364.194C286.154 364.148 286.064 364.102 285.973 364.06C286.134 363.916 286.291 363.766 286.448 363.616L286.449 363.615L286.449 363.615L286.45 363.614C286.799 363.281 287.148 362.947 287.543 362.683C288.08 362.327 288.642 362.009 289.204 361.69C289.613 361.459 290.023 361.227 290.422 360.981C291.457 360.341 292.476 359.673 293.483 358.992C293.525 358.963 293.567 358.935 293.609 358.907C293.691 358.853 293.773 358.799 293.856 358.745C294.371 358.407 294.892 358.064 295.294 357.62C297.002 355.733 298.922 354.133 300.914 352.542C301.84 351.804 302.854 351.297 303.864 350.794C304.572 350.44 305.278 350.088 305.949 349.659C306.42 349.358 307.016 349.258 307.615 349.158C307.944 349.102 308.275 349.047 308.586 348.958C309.188 348.785 309.784 348.595 310.379 348.404L310.381 348.404C310.823 348.262 311.265 348.121 311.709 347.987C311.836 347.949 311.976 347.954 312.114 347.959C312.16 347.96 312.205 347.962 312.25 347.962C312.799 347.962 313.35 347.947 313.901 347.932H313.902C315.196 347.898 316.49 347.863 317.759 348.02C318.555 348.119 319.315 348.491 320.076 348.864C320.418 349.031 320.76 349.199 321.106 349.341C321.087 349.372 321.071 349.409 321.055 349.447C321.022 349.521 320.991 349.594 320.943 349.609C319.111 350.117 317.323 350.417 315.447 349.554C314.868 349.287 314.093 349.384 313.369 349.475L313.367 349.476C313.286 349.486 313.205 349.496 313.125 349.505L313.047 349.515L312.988 349.521L312.942 349.526C312.267 349.598 311.6 349.764 310.937 349.929C310.858 349.949 310.779 349.968 310.701 349.988C310.63 350.005 310.56 350.022 310.49 350.039C310.434 350.053 310.378 350.066 310.321 350.079C310.239 350.097 310.156 350.116 310.073 350.134C309.559 350.249 309.042 350.364 308.578 350.583C306.9 351.372 305.24 352.208 303.606 353.091C303.067 353.382 302.551 353.715 302.035 354.047L302.035 354.048L302.035 354.048L302.034 354.048L302.034 354.048L302.034 354.048L302.034 354.049L302.033 354.049L302.033 354.049L302.033 354.049L302.032 354.049L302.032 354.049L302.032 354.05L302.032 354.05L302.031 354.05L302.031 354.05L302.031 354.05L302.03 354.051L302.03 354.051L302.03 354.051L302.03 354.051L302.029 354.051L302.029 354.051L302.029 354.052L302.029 354.052L302.028 354.052L302.028 354.052L302.028 354.052L302.027 354.053L302.027 354.053L302.027 354.053L302.027 354.053L302.026 354.053C301.558 354.355 301.09 354.657 300.605 354.928C300.337 355.078 300.048 355.194 299.759 355.311L299.758 355.311C299.009 355.613 298.263 355.913 297.898 356.787C297.87 356.854 297.784 356.899 297.699 356.943C297.662 356.962 297.624 356.981 297.592 357.003C297.783 357.008 297.978 357.026 298.172 357.045C298.609 357.087 299.045 357.129 299.441 357.016C300.107 356.829 300.741 356.525 301.376 356.222C301.592 356.118 301.808 356.014 302.026 355.916C302.34 355.773 302.65 355.619 302.961 355.465C303.563 355.166 304.166 354.867 304.795 354.652C305.169 354.525 305.575 354.5 305.983 354.475C306.273 354.457 306.565 354.44 306.848 354.384C307.374 354.284 307.895 354.144 308.415 354.004C308.678 353.933 308.941 353.862 309.204 353.797C309.331 353.766 309.469 353.758 309.601 353.758C310.164 353.757 310.734 353.786 311.304 353.814C312.668 353.882 314.031 353.95 315.29 353.617C315.799 353.484 316.255 353.527 316.702 353.57C317.068 353.605 317.428 353.639 317.806 353.576C318.533 353.455 319.357 353.793 320.143 354.115L320.143 354.115C320.327 354.19 320.509 354.265 320.686 354.332C321.547 354.658 322.452 355.008 323.161 355.568C323.992 356.228 324.752 356.976 325.512 357.723L325.512 357.723L325.512 357.724L325.512 357.724L325.513 357.724L325.513 357.724L325.513 357.724L325.513 357.725L325.513 357.725L325.514 357.725L325.514 357.725L325.514 357.725L325.514 357.725L325.514 357.726L325.514 357.726L325.515 357.726L325.515 357.726L325.515 357.727L325.517 357.728C325.838 358.044 326.159 358.36 326.485 358.669C326.448 358.707 326.409 358.753 326.368 358.802C326.34 358.834 326.313 358.868 326.285 358.902L326.285 358.902C326.135 359.085 325.986 359.266 325.92 359.24C325.602 359.113 305.96 356.661 298.287 360.859C295.504 362.382 298.065 373.441 298.279 374.367L298.287 374.402C299.441 379.407 317.422 382.292 324.263 381.148C332.499 379.77 332.993 371.162 333.153 368.37C333.182 367.88 333.199 367.569 333.247 367.508C333.688 366.942 334.392 366.639 335.018 367.163C335.316 367.411 335.515 367.894 335.564 368.292C335.611 368.668 335.728 369.026 335.843 369.374C335.934 369.651 336.023 369.922 336.072 370.19C336.225 371.035 336.769 371.565 337.319 372.1C337.704 372.476 338.091 372.853 338.348 373.343C339.076 373.677 339.741 374.017 340.39 374.348L340.393 374.35ZM138.509 321.801C138.251 321.743 137.993 321.685 137.821 321.781C137.222 322.116 111.714 333.529 93.9035 323.764C93.685 323.645 93.3716 323.483 92.996 323.288L92.9959 323.288L92.9956 323.288C90.7661 322.136 86.349 319.852 86.6137 318.559C87.3346 315.035 97.4141 310.193 98.7248 309.564L98.7268 309.563L98.7287 309.562L98.8048 309.525C98.84 309.508 98.8602 309.498 98.8642 309.496C98.8076 309.407 98.756 309.3 98.7045 309.194L98.7044 309.194L98.7042 309.194C98.5901 308.958 98.476 308.723 98.3069 308.672C97.8197 308.528 97.2514 308.509 96.7485 308.605C96.1611 308.717 89.7692 310.141 88.6494 310.852C87.4722 311.598 84.2505 315.524 84.3095 316.79C84.3351 317.331 84.1547 317.881 83.9734 318.433C83.8783 318.723 83.783 319.013 83.7169 319.303C83.6782 319.473 83.6706 319.659 83.6631 319.842C83.6513 320.133 83.6396 320.42 83.5042 320.633C83.3566 320.866 83.1826 321.239 82.9717 321.692L82.9715 321.692L82.9715 321.692C82.557 322.582 82.0002 323.777 81.2222 324.809C80.6386 325.584 79.8455 326.234 79.2426 326.729L79.2425 326.729C78.8823 327.025 78.59 327.265 78.4509 327.442C78.3674 327.548 78.2571 327.655 78.1444 327.764L78.1443 327.764C77.8329 328.065 77.5027 328.385 77.6625 328.766C77.8786 329.282 78.6395 329.029 79.0487 328.893L79.0576 328.89C79.6535 328.694 80.2202 328.314 80.7068 327.903C81.3885 327.326 82.031 326.689 82.606 326.007C83.195 325.307 83.7702 324.567 84.1912 323.764C84.656 322.873 85.684 322.504 86.6137 323.144C112.766 341.128 137.444 323.985 138.597 322.962C138.755 322.822 138.783 322.536 138.811 322.249C138.824 322.117 138.837 321.985 138.862 321.866C138.75 321.855 138.629 321.828 138.509 321.801ZM256.618 220.712C256.103 221.229 255.59 221.736 255.08 222.239L255.079 222.24C253.798 223.505 252.542 224.745 251.355 226.049C250.938 226.507 250.677 227.109 250.417 227.711L250.417 227.711L250.417 227.711L250.417 227.711C250.304 227.971 250.192 228.23 250.067 228.477C249.395 229.81 248.404 230.311 246.659 231.068C245.65 231.505 244.594 231.923 243.661 231.741C243.007 231.612 242.349 231.622 241.701 231.632C240.982 231.643 240.275 231.653 239.597 231.475C238.771 231.259 237.866 230.549 237.45 229.806C237.089 229.163 237.493 228.328 238.212 227.636C239.005 226.873 239.688 225.998 240.372 225.122L240.372 225.121L240.372 225.121L240.373 225.12L240.373 225.12L240.373 225.12C240.768 224.614 241.163 224.108 241.58 223.623C242.026 223.103 242.469 222.579 242.912 222.055C244.375 220.325 245.84 218.592 247.441 216.999C248.764 215.682 250.411 214.834 252.352 214.288C254.117 213.791 255.466 213.914 257.045 214.589C257.633 214.841 258.313 214.877 258.994 214.913C259.326 214.93 259.659 214.948 259.981 214.99C261.01 215.126 261.62 216.096 260.958 216.568C260.372 216.985 259.279 217.396 258.789 217.124C256.101 215.634 253.422 215.986 250.79 216.987C250.089 217.253 249.508 217.864 248.937 218.463L248.937 218.463C248.755 218.654 248.574 218.844 248.39 219.022C246.982 220.384 245.577 221.753 244.241 223.185C243.724 223.739 243.281 224.363 242.839 224.987C242.675 225.218 242.511 225.449 242.344 225.676C242.233 225.826 242.121 225.977 242.01 226.127C241.446 226.888 240.882 227.65 240.357 228.437C239.967 229.023 240.018 229.133 240.628 229.328C242.151 229.813 243.637 229.718 245.152 229.167C247 228.495 248.064 227.084 249.168 225.62C249.303 225.442 249.439 225.262 249.577 225.082C250.477 223.91 251.57 222.884 252.663 221.859C253.14 221.412 253.616 220.965 254.077 220.505C254.157 220.425 254.24 220.346 254.323 220.268C254.471 220.129 254.619 219.989 254.754 219.838C255.424 219.085 256.1 218.361 257.24 218.422C257.292 218.425 257.343 218.36 257.399 218.29C257.441 218.237 257.486 218.181 257.535 218.15C257.607 218.103 257.694 218.079 257.781 218.055C257.819 218.045 257.857 218.034 257.894 218.022C257.888 218.06 257.885 218.1 257.883 218.14C257.877 218.227 257.871 218.313 257.835 218.385C257.46 219.141 257.071 219.891 256.618 220.712ZM266.757 209.996C268.655 208.201 270.567 206.393 271.861 203.952C271.548 203.848 271.234 203.824 270.922 203.801C270.775 203.79 270.628 203.779 270.482 203.759C270.24 203.727 269.995 203.665 269.752 203.604C269.326 203.497 268.902 203.39 268.497 203.443C267.745 203.539 266.969 203.846 266.317 204.247C265.361 204.835 264.344 205.302 263.324 205.77C261.821 206.46 260.313 207.153 258.99 208.237C258.627 208.534 258.448 208.867 258.278 209.184C258.141 209.439 258.009 209.685 257.791 209.894C257.847 209.905 257.903 209.916 257.959 209.926L258.032 209.939L258.117 209.955C258.359 209.999 258.6 210.043 258.836 210.105C259.399 210.255 259.96 210.411 260.521 210.567L260.522 210.567C260.999 210.7 261.476 210.832 261.954 210.961C261.986 210.969 262.018 210.978 262.05 210.987L262.138 211.011C262.204 211.03 262.271 211.049 262.337 211.068L262.338 211.069L262.339 211.069L262.34 211.069L262.34 211.069C262.752 211.188 263.166 211.306 263.586 211.352C263.699 211.364 263.822 211.381 263.949 211.398L263.949 211.398L263.949 211.398L263.949 211.398C264.501 211.475 265.13 211.561 265.386 211.31C265.836 210.866 266.296 210.431 266.757 209.996ZM266.762 205.97C266.808 205.99 266.854 206.009 266.895 206.021C267.205 205.791 267.656 205.731 267.79 205.91C267.968 206.146 268.056 206.762 267.91 206.88C266.969 207.645 265.989 208.377 264.946 208.994C264.547 209.23 263.948 209.194 263.449 209.161C263.293 209.15 262.994 208.669 263.054 208.526C263.07 208.489 263.086 208.45 263.102 208.409L263.128 208.346L263.129 208.343C263.334 207.843 263.598 207.196 263.906 207.156C264.86 207.033 265.569 206.555 266.299 206.063C266.37 206.015 266.442 205.967 266.513 205.919C266.563 205.886 266.662 205.928 266.762 205.97ZM310.967 297.545C308.011 297.194 305.088 297.194 302.175 297.193C301.277 297.193 300.379 297.193 299.482 297.183C298.93 297.177 298.301 297.064 297.857 296.774C297.592 296.603 297.49 295.959 297.565 295.578C297.614 295.336 298.125 295.015 298.423 295.02C298.997 295.032 299.966 294.986 301.132 294.931H301.133C303.908 294.799 307.802 294.615 310.166 295.02C315.591 295.95 318.402 299.414 318.239 299.399C317.988 299.377 317.733 299.366 317.477 299.355C316.827 299.326 316.175 299.298 315.591 299.086C315.142 298.923 314.704 298.726 314.265 298.529C313.233 298.066 312.192 297.599 310.967 297.545ZM280.041 199.791C281.092 199.373 281.134 198.752 280.137 198.159C279.853 198.237 279.601 198.326 279.363 198.41C279.089 198.507 278.834 198.597 278.572 198.655C278.004 198.781 277.434 198.894 276.863 199.008C275.997 199.18 275.131 199.351 274.276 199.569C273.972 199.646 273.53 200.151 273.567 200.396C273.632 200.824 273.92 201.229 274.19 201.609C274.218 201.65 274.247 201.689 274.274 201.729C274.324 201.8 274.689 201.693 274.884 201.61C275.13 201.506 275.371 201.39 275.612 201.274C276.003 201.086 276.393 200.899 276.801 200.762C277.254 200.61 277.717 200.487 278.181 200.364C278.811 200.197 279.44 200.031 280.041 199.791ZM283.172 196.503C283.187 195.623 283.193 195.622 284.462 195.406L284.593 195.384C284.862 195.338 285.118 195.227 285.376 195.115C285.588 195.022 285.8 194.93 286.021 194.874C286.133 194.845 286.483 195.185 286.456 195.276L286.443 195.319L286.429 195.37L286.404 195.458C286.288 195.875 286.141 196.402 285.917 196.449C285.668 196.501 285.42 196.627 285.17 196.754C284.528 197.079 283.875 197.409 283.172 196.503ZM290.523 193.154C290.627 193.142 290.73 193.13 290.828 193.124C291.593 192.985 291.614 192.508 291.634 192.045C291.643 191.841 291.652 191.64 291.724 191.472C291.612 191.492 291.497 191.508 291.382 191.524C291.125 191.559 290.867 191.595 290.63 191.685C290.579 191.704 290.526 191.723 290.471 191.744C290.094 191.881 289.633 192.05 289.56 192.301C289.273 193.294 289.905 193.223 290.523 193.154ZM299.38 189.813L299.352 189.826L299.313 189.843C299.282 189.857 299.252 189.87 299.222 189.884L299.221 189.884C298.992 189.989 298.795 190.079 298.624 190.043C298.382 189.992 298.152 189.881 297.922 189.77C297.824 189.723 297.727 189.676 297.628 189.633C297.762 189.594 297.896 189.553 298.029 189.511C298.335 189.416 298.642 189.32 298.955 189.257C299.416 189.165 299.523 189.295 299.38 189.813ZM345.053 152.711C345.114 152.957 345.176 153.209 345.245 153.466C345.319 153.715 345.402 153.921 345.478 154.11L345.478 154.111L345.478 154.111C345.542 154.268 345.6 154.414 345.645 154.564C346.191 156.371 346.415 158.215 346.373 160.109C346.364 160.522 346.463 160.935 346.563 161.351C346.639 161.667 346.715 161.983 346.743 162.302C346.779 162.696 346.77 163.103 346.762 163.509C346.747 164.231 346.732 164.948 346.967 165.576C347.335 166.566 347.248 167.52 347.163 168.448L347.163 168.452C347.147 168.627 347.131 168.801 347.118 168.975C347.005 170.478 346.426 171.781 344.837 172.622C344.381 172.863 343.927 172.929 343.478 172.994C343.079 173.051 342.685 173.109 342.299 173.288C341.772 173.533 341.202 173.617 340.622 173.703C339.886 173.811 339.135 173.922 338.442 174.367C338.035 174.629 337.492 174.676 336.947 174.723C336.422 174.768 335.895 174.814 335.484 175.052C334.555 175.591 333.904 175.539 333.148 174.982C332.802 174.726 332.462 174.462 332.122 174.198C331.808 173.954 331.494 173.71 331.175 173.473C330.803 173.196 330.419 172.93 330.022 172.69C329.6 172.434 329.088 172.296 328.606 172.167C328.152 172.044 327.725 171.929 327.426 171.73C326.601 171.181 325.936 171.389 325.287 171.593C324.982 171.688 324.68 171.783 324.366 171.797C324.114 171.808 323.877 172.191 323.641 172.573C323.534 172.747 323.427 172.92 323.318 173.058C323.486 173.144 323.661 173.26 323.836 173.376C324.223 173.633 324.611 173.889 324.913 173.812L324.987 173.793L325.04 173.779C325.086 173.767 325.133 173.754 325.179 173.742L325.179 173.742C325.86 173.558 326.451 173.399 327.153 173.86C327.469 174.069 327.832 174.206 328.195 174.344C328.519 174.466 328.844 174.589 329.136 174.763C329.237 174.823 329.339 174.883 329.44 174.943C330.244 175.415 331.067 175.899 331.697 176.553C332.676 177.569 333.733 177.941 335.14 177.52C336.122 177.226 337.116 176.964 338.109 176.703C338.875 176.502 339.642 176.3 340.403 176.083C340.812 175.967 341.223 175.86 341.634 175.754C343.385 175.301 345.128 174.849 346.638 173.636C348.95 171.776 349.025 169.256 348.743 166.788C348.693 166.348 348.634 165.909 348.575 165.469L348.575 165.468L348.575 165.468L348.575 165.467L348.575 165.466L348.575 165.466L348.575 165.465C348.445 164.492 348.314 163.515 348.269 162.526C348.233 161.738 348.254 160.947 348.275 160.155C348.327 158.195 348.378 156.234 347.571 154.328C347.335 153.77 347.202 153.168 347.069 152.567L347.069 152.566C346.94 151.987 346.812 151.407 346.591 150.865C346.191 149.876 345.565 148.961 344.939 148.087L344.863 147.981C344.446 147.398 343.917 146.659 343.369 146.592C342.894 146.534 342.377 146.82 341.86 147.107L341.86 147.107C341.635 147.231 341.411 147.355 341.19 147.451C341.305 147.528 341.42 147.603 341.535 147.679C341.811 147.859 342.086 148.039 342.357 148.227C342.503 148.33 342.644 148.454 342.759 148.592C342.918 148.779 343.088 148.961 343.257 149.143L343.258 149.144C343.671 149.588 344.084 150.033 344.348 150.553C344.68 151.203 344.86 151.93 345.053 152.711ZM322.289 179.214L322.278 179.192C322.185 179.152 322.091 179.144 322.026 179.138C321.98 179.134 321.949 179.131 321.944 179.119C321.845 178.842 321.76 178.56 321.674 178.277L321.643 178.174L321.61 178.067C321.572 178.194 321.521 178.322 321.47 178.45C321.357 178.734 321.245 179.017 321.266 179.291C321.406 181.169 321.577 182.986 322.499 184.77C322.913 185.573 323.073 186.501 323.233 187.433L323.233 187.434C323.369 188.221 323.505 189.012 323.795 189.734L323.908 190.015C324.437 191.33 324.961 192.636 325.219 194.026C325.316 194.547 325.202 195.158 325.02 195.669C324.807 196.265 324.378 196.743 323.947 197.223C323.296 197.946 322.643 198.673 322.728 199.815C322.735 199.918 322.639 200.028 322.542 200.139L322.511 200.175C322.476 200.215 322.443 200.256 322.416 200.296C322.483 200.271 322.552 200.249 322.621 200.228C322.782 200.178 322.943 200.128 323.07 200.034C323.148 199.978 323.194 199.882 323.241 199.786C323.285 199.694 323.33 199.602 323.401 199.545C323.606 199.383 323.812 199.226 324.017 199.069C325.238 198.138 326.412 197.244 326.96 195.494C327.44 193.965 327.274 192.773 326.742 191.507C326.44 190.794 326.073 190.097 325.707 189.402L325.706 189.401C325.05 188.156 324.397 186.916 324.129 185.593C323.776 183.84 323.365 182.126 322.83 180.43C322.705 180.036 322.516 179.663 322.29 179.215L322.29 179.215L322.289 179.214ZM362.074 237.058C361.495 236.94 360.972 236.818 360.469 236.7C360.188 236.634 359.913 236.57 359.638 236.509C359.463 236.47 359.288 236.43 359.113 236.39C358.397 236.227 357.681 236.063 356.956 235.955C356.564 235.897 356.165 235.885 355.765 235.873C355.47 235.864 355.174 235.855 354.882 235.828C354.44 235.787 353.974 235.741 353.577 235.569C353.222 235.417 352.896 235.201 352.569 234.985C352.429 234.892 352.288 234.799 352.145 234.711C352.329 234.703 352.514 234.698 352.699 234.693L352.7 234.693C353.132 234.682 353.564 234.671 353.991 234.621C354.201 234.596 354.409 234.535 354.617 234.473C354.892 234.392 355.165 234.311 355.439 234.317L355.73 234.324C357.587 234.37 359.447 234.415 361.293 234.6C362.491 234.721 363.677 234.976 364.861 235.231L364.861 235.231L364.862 235.231C365.142 235.291 365.422 235.351 365.702 235.41C366.74 235.626 367.769 235.886 368.798 236.145L368.798 236.145L368.799 236.145L368.799 236.145L368.799 236.145L368.8 236.145L369.147 236.233C370.066 236.464 370.978 236.71 371.891 236.958L372.27 237.06C372.402 237.096 372.529 237.146 372.655 237.197C372.715 237.22 372.774 237.244 372.833 237.266C372.786 237.33 372.739 237.413 372.692 237.496C372.589 237.677 372.486 237.858 372.384 237.858C371.893 237.854 371.402 237.943 370.91 238.032C369.885 238.218 368.855 238.404 367.815 237.757C367.629 237.642 367.415 237.665 367.171 237.692C366.859 237.726 366.499 237.766 366.085 237.532C365.35 237.117 364.387 237.109 363.377 237.101C362.947 237.097 362.508 237.093 362.074 237.058ZM144.374 283.81C159.957 281.852 172.95 280.22 172.917 279.797C172.915 279.771 172.937 279.701 172.968 279.599C173.169 278.94 173.778 276.945 171.091 276.911C159.556 276.764 126.067 280.693 94.5965 287.439C49.9445 296.594 24.2195 309.354 24.5248 310.223C24.6637 310.617 35.7666 307.361 49.3932 303.364L49.3934 303.364L49.3951 303.364L49.3965 303.363L49.3973 303.363C65.7483 298.567 85.7316 292.706 94.7657 290.809L95.7721 290.6C104.389 288.834 126.152 286.1 144.374 283.81ZM106.354 311.432C109.187 311.432 113.275 311.74 118.507 313.514L119.82 313.963C120.82 314.309 122.679 314.818 125.372 315.484C125.998 315.638 126.379 316.271 126.225 316.896C126.07 317.522 118.092 315.837 118.092 315.837C112.699 313.999 110.546 313.496 108.025 313.607C105.571 313.715 100.387 315.62 96.449 317.066C93.6684 318.087 91.5098 318.88 91.3738 318.651C91.0455 318.096 91.4341 317.393 91.7831 317.052C95.3172 313.607 97.2755 312.635 106.354 311.432ZM298.849 291.377C299.04 291.209 299.185 290.986 299.257 290.723C299.45 290.012 293.948 288.944 290.243 290.329C289.491 290.61 288.825 291.047 288.096 291.684C287.973 291.791 287.703 292.163 287.367 292.624L287.367 292.625C286.817 293.382 286.094 294.378 285.567 294.831C284.72 295.559 283.282 296.335 282.296 296.832C281.896 297.033 280.38 297.369 278.67 297.747L278.669 297.748L278.668 297.748C275.927 298.355 272.691 299.071 272.764 299.518C272.883 300.245 274.222 300.135 274.948 300.016C276.212 299.809 277.302 299.65 278.251 299.513L278.252 299.513C280.68 299.16 282.18 298.942 283.276 298.389C284.469 297.789 285.499 297.081 286.502 296.218C286.661 296.081 286.886 295.874 287.139 295.637L287.945 294.872C287.818 295.896 288.162 296.881 289.029 297.58L289.358 297.843C299.688 306.011 310.861 307.248 322.653 301.542L322.836 301.451L322.923 301.92C323.229 303.476 323.667 304.773 324.246 305.813C325.104 307.353 326.567 308.865 328.627 310.376L330.205 308.226L329.943 308.031C328.31 306.799 327.191 305.619 326.576 304.515C325.925 303.346 325.466 301.592 325.229 299.266L325.026 297.272L323.266 298.229L322.916 298.417C311.378 304.555 300.728 303.589 290.703 295.505C290.644 295.457 290.584 294.653 290.703 294.306C290.912 293.694 291.391 292.473 292.619 292.05C293.421 291.774 298.849 291.377 298.849 291.377ZM382.272 221.212L381.717 220.209C381.3 219.462 380.759 218.503 380.491 218.063L380.404 217.923C379.316 216.237 379.117 214.1 379.396 210.64L379.512 209.361L379.619 208.248C379.933 204.821 379.853 203.514 379.226 202.839L379.131 202.742C378.506 202.139 377.776 202.147 375.141 202.732L374.498 202.877C371.453 203.575 369.439 203.745 367.112 203.191L365.099 202.691C364.586 202.565 364.076 202.441 363.711 202.352C363.432 202.284 363.238 202.237 363.19 202.225L362.645 202.085C357.845 200.828 355.826 199.478 355.07 196.206C354.89 195.426 354.963 194.618 355.247 193.611L355.311 193.392C355.495 192.785 356.389 190.375 356.389 190.376C356.59 189.805 356.76 189.284 356.91 188.76L357.103 188.079C357.266 187.498 357.433 186.88 357.608 186.219L359.43 179.087C359.757 177.83 360.036 176.787 360.15 176.435L360.667 174.915L360.885 174.298C361.027 173.905 361.164 173.542 361.305 173.189C362.444 170.336 363.652 168.575 365.355 168.088C366.925 167.64 368.081 167.701 369.346 168.206C369.61 168.311 370.294 168.637 370.813 168.885C371.093 169.018 371.324 169.128 371.416 169.169C372.684 169.73 373.982 170.086 375.742 170.263L376.078 170.294C376.926 170.366 377.624 170.273 379.695 169.82L381.181 169.491C382.76 169.148 383.794 168.979 384.927 168.908C385.955 168.844 386.911 168.889 387.822 169.061C389.321 169.345 391.62 170.278 394.776 171.867C395.269 172.116 395.468 172.717 395.22 173.21C394.971 173.704 394.37 173.902 393.877 173.654L393.288 173.36C390.593 172.029 388.631 171.25 387.45 171.026C386.715 170.887 385.922 170.85 385.051 170.904C383.98 170.971 382.969 171.143 381.318 171.508L380.076 171.784C377.87 172.267 377.074 172.374 376.015 172.295L375.909 172.287C373.749 172.103 372.152 171.681 370.607 170.998L368.881 170.185C368.762 170.13 368.665 170.087 368.605 170.063C367.75 169.722 367.047 169.685 365.905 170.011C365.021 170.263 364.076 171.642 363.162 173.93C362.997 174.345 362.836 174.778 362.662 175.268L362.057 177.036C361.787 177.821 359.823 185.638 359.757 185.908L359.436 187.129C359.226 187.912 359.026 188.636 358.832 189.312C358.702 189.764 358.56 190.212 358.399 190.684L358.274 191.042C358.113 191.5 357.969 191.907 357.841 192.269C356.939 194.813 356.83 195.122 356.9 195.383C356.91 195.419 356.923 195.454 356.938 195.494C356.96 195.553 356.986 195.623 357.01 195.721L357.019 195.756C357.568 198.134 359.09 199.115 363.422 200.221L367.353 201.19C369.33 201.701 371.049 201.595 373.736 200.999L375.44 200.613C376.574 200.362 376.862 200.329 377.515 200.303C378.824 200.251 379.873 200.597 380.692 201.478C381.888 202.766 381.999 204.233 381.614 208.398L381.415 210.495L381.368 211.083C381.164 213.849 381.325 215.563 382.012 216.72L382.226 217.068C382.431 217.409 382.741 217.951 383.046 218.491L384.02 220.241L384.149 220.466C385.45 222.705 386.523 223.96 387.663 224.394L387.785 224.437C389.243 224.915 391.046 223.966 393.372 220.945L393.674 220.552C394.026 220.117 394.386 219.843 396.04 218.818L398.594 217.248L398.902 217.054C400.498 216.042 401.437 215.29 401.646 214.864C404.089 209.877 405.646 202.092 405.176 193.242C405.117 192.133 404.527 190.434 403.394 188.194L403.259 187.929L403.197 187.894C400.522 186.374 398.577 184.93 397.352 183.537L397.209 183.37C395.954 181.877 394.692 179.441 393.392 176.04C393.195 175.524 393.454 174.946 393.969 174.749C394.485 174.552 395.063 174.81 395.261 175.326C396.488 178.537 397.658 180.796 398.74 182.084C399.736 183.269 401.458 184.58 403.897 185.99L404.497 186.331L404.757 186.476L404.895 186.74C406.327 189.475 407.091 191.586 407.173 193.136C407.661 202.324 406.036 210.448 403.442 215.744C403.002 216.642 401.921 217.508 399.973 218.743L399.488 219.048L397.421 220.317C395.703 221.378 395.359 221.634 395.125 221.945C392.267 225.733 389.646 227.152 387.162 226.337C385.3 225.727 383.922 224.107 382.272 221.212ZM412.512 161.23C412.01 160.998 411.416 161.217 411.185 161.719C410.685 162.802 409.904 163.482 408.786 163.812C407.984 164.049 407.087 164.185 405.989 164.257C405.605 164.282 405.276 164.297 404.784 164.311L403.096 164.354C400.39 164.442 399.211 164.671 398.029 165.522C396.462 166.651 395.804 170.26 396.354 172.338L396.383 172.452C396.403 172.53 396.423 172.614 396.444 172.705L396.511 173.007C396.515 173.027 396.531 173.1 396.552 173.202C396.599 173.424 396.674 173.779 396.724 174.008L396.818 174.428C396.902 174.791 396.986 175.114 397.078 175.43C397.449 176.691 397.94 177.712 398.662 178.553C398.761 178.669 399.04 179.174 399.346 179.75L400.397 181.757C401.246 183.253 402.128 184.34 403.245 185.068C403.715 185.375 404.146 185.502 404.953 185.647L405.312 185.712C405.967 185.835 406.277 185.912 406.667 186.064L406.97 186.188C407.275 186.304 407.633 186.39 408.153 186.48L408.523 186.542C408.524 186.542 409.404 186.675 409.902 186.755L410.44 186.847C410.954 186.94 411.409 187.04 411.843 187.157C412.266 187.272 412.658 187.401 413.022 187.547L413.253 187.638C413.622 187.776 413.93 187.863 414.473 187.991L414.976 188.107C415.206 188.161 415.37 188.204 415.517 188.25L415.688 188.307C416.332 188.538 416.878 188.943 417.562 189.79C418.469 190.912 418.469 191.438 417.772 191.92C417.317 192.234 417.204 192.857 417.518 193.311C417.832 193.765 418.455 193.879 418.909 193.565C420.686 192.336 420.686 190.475 419.118 188.533C418.211 187.41 417.367 186.784 416.363 186.424C416.162 186.352 415.978 186.296 415.748 186.237L415.448 186.164L414.824 186.019C414.435 185.925 414.206 185.859 413.948 185.762L413.502 185.589C413.14 185.454 412.762 185.334 412.365 185.227C411.775 185.067 411.164 184.939 410.459 184.819L408.542 184.518C408.086 184.439 407.808 184.372 407.648 184.305C407.028 184.043 406.648 183.933 405.87 183.783L405.175 183.654C404.713 183.567 404.5 183.499 404.337 183.392C403.54 182.873 399.27 175.793 398.997 174.866C398.896 174.52 398.804 174.155 398.707 173.715L398.428 172.41C398.403 172.299 398.379 172.196 398.356 172.1L398.287 171.826C397.927 170.463 398.431 167.698 399.198 167.145C399.972 166.587 400.977 166.415 403.446 166.344L404.855 166.31C405.364 166.295 405.71 166.279 406.119 166.253L406.483 166.226C407.56 166.139 408.486 165.986 409.352 165.73C411.026 165.236 412.26 164.161 413.001 162.557C413.232 162.055 413.013 161.461 412.512 161.23Z" fill="#00160A"/>
<path fill-rule="evenodd" clip-rule="evenodd" d="M178.889 265.198C179.257 264.477 179.57 263.848 180.008 263.323C180.45 262.791 181.01 262.354 181.537 261.898C181.589 261.853 181.88 261.966 181.878 261.996C181.87 262.155 181.852 262.362 181.749 262.46C180.966 263.205 180.9 264.195 180.661 265.17C180.398 266.238 180.664 267.074 181.151 267.964C181.475 268.558 181.712 269.21 181.915 269.858C182.342 271.225 182.765 272.596 183.106 273.986C183.337 274.923 183.549 275.893 183.558 276.851C183.603 281.678 183.577 286.506 183.579 291.333C183.581 293.8 183.546 296.267 183.618 298.731C183.642 299.535 184.077 300.329 184.091 301.131C184.102 301.779 183.777 302.438 183.563 303.08C183.532 303.172 183.202 303.278 183.154 303.231C182.815 302.897 182.247 302.529 182.242 302.164C182.198 299.328 182.307 296.49 182.278 293.654C182.265 292.374 181.971 291.099 181.939 289.818C181.864 286.834 182.2 283.797 181.74 280.88C181.381 278.601 181.468 276.431 181.503 274.191C181.511 273.688 180.108 273.06 179.271 272.672C178.183 272.167 177.491 272.842 176.976 273.747C176.929 273.829 176.734 273.869 176.734 273.929C176.708 279.199 176.674 284.47 176.695 289.741C176.701 291.266 176.877 292.79 176.952 294.316C176.98 294.888 176.92 295.185 177.797 295.051C179.281 294.825 181.229 297.018 180.8 298.269C180.469 299.233 179.87 300.105 179.538 301.068C178.788 303.243 177.15 305.346 177.872 307.708C178.421 309.502 179.609 311.179 180.822 312.655C181.305 313.242 182.628 313.118 183.552 313.378C183.864 313.466 184.228 313.684 184.369 313.949C184.461 314.122 184.262 314.575 184.061 314.729C183.94 314.823 183.565 314.58 183.303 314.495C182.872 314.354 182.448 314.147 182.006 314.095C179.927 313.855 179.812 313.728 178.867 311.413C178.529 310.583 177.894 309.877 177.534 309.053C177.195 308.276 177.003 307.427 176.814 306.593C176.633 305.79 176.391 304.958 176.444 304.156C176.506 303.211 176.782 302.258 177.105 301.36C177.393 300.558 177.889 299.832 178.249 299.052C178.29 298.961 178.076 298.701 177.928 298.595C177.847 298.537 177.625 298.599 177.514 298.675C176.438 299.409 175.925 300.593 175.245 301.631C175.021 301.972 175.09 302.506 175.027 302.952C174.934 303.619 174.755 304.289 174.77 304.954C174.798 306.184 174.661 307.522 175.095 308.616C175.997 310.889 176.872 313.289 178.714 314.98C179.391 315.604 180.517 315.902 181.646 316.054C183.134 316.252 184.545 315.822 186.004 315.987C186.671 316.065 187.396 315.483 188.094 315.485C188.945 315.488 189.611 315.022 190.364 314.9C191.224 314.76 191.934 314.39 192.684 314.034C193.908 313.455 195.235 313.041 196.352 312.304C197.345 311.648 198.103 310.64 198.981 309.805C200.335 308.514 201.478 307.089 202.387 305.428C202.788 304.697 203.423 304.141 203.161 303.215C203.12 303.071 203.018 302.841 202.931 302.835C202.738 302.822 202.474 302.863 202.348 302.991C199.478 305.887 196.679 308.857 193.727 311.667C192.931 312.423 191.687 312.718 190.633 313.195C190.046 313.46 189.418 313.631 188.829 313.891C187.545 314.453 186.527 313.67 185.433 313.262C185.484 313.149 185.514 312.958 185.589 312.936C187.372 312.462 189.178 312.067 190.937 311.518C191.751 311.264 192.511 310.773 193.224 310.285C193.915 309.813 194.486 309.171 195.159 308.668C197.673 306.787 199.731 304.573 200.716 301.499C200.982 300.667 202.773 300.139 203.803 300.446C204.423 300.631 205.132 300.616 205.678 300.915C206.027 301.108 206.402 301.758 206.334 302.121C205.967 304.06 204.751 305.498 203.395 306.878C202.494 307.795 201.937 309.062 201 309.929C199.412 311.397 197.755 312.848 195.925 313.979C194.075 315.124 192.021 315.976 189.979 316.752C188.515 317.306 186.94 317.717 185.386 317.847C182.733 318.07 180.123 317.858 177.77 316.283C176.296 315.295 175.302 313.927 174.535 312.448C174.105 311.62 174.518 310.373 174.142 309.49C173.395 307.737 173.257 305.939 173.414 304.133C173.521 302.901 174.285 301.704 174.289 300.49C174.294 299.126 175.297 298.457 175.735 297.427C175.823 297.22 175.587 296.896 175.586 296.626C175.574 293.545 175.58 290.465 175.578 287.384C175.576 285.834 175.673 284.272 175.523 282.736C175.435 281.843 174.882 281.005 174.662 280.111C174.55 279.657 174.74 279.135 174.746 278.643C174.761 277.248 174.624 275.839 174.783 274.462C174.982 272.729 175.465 271.031 175.726 269.303C175.872 268.338 175.82 267.342 175.854 266.36C175.921 264.428 176.316 262.52 177.662 261.131C178.712 260.047 179.968 259.022 181.712 259.017C182.14 259.016 182.724 258.242 182.962 258.363C183.503 258.639 184.028 259.19 184.241 259.75C184.335 259.999 183.729 260.646 183.315 260.927C182.579 261.426 181.72 261.408 180.821 261.37C179.345 261.306 177.998 263.238 177.429 264.934C176.962 266.325 177.676 267.564 177.358 268.889C177.263 269.284 178.041 269.898 178.449 270.386C178.491 270.437 178.869 270.32 178.87 270.278C178.879 269.442 178.936 268.594 178.816 267.773C178.703 266.995 178.179 266.215 179.15 265.626C179.063 265.529 178.976 265.432 178.889 265.198Z" fill="#FFB61D"/>
<path fill-rule="evenodd" clip-rule="evenodd" d="M233.513 328.374C233.254 329.784 232.978 331.053 232.75 332.328C232.713 332.54 232.944 332.786 232.952 333.02C233.022 335.026 232.656 337.009 232.591 339.015C232.56 339.978 232.646 341.032 232.381 341.978C232.054 343.151 232.527 344.69 231.026 345.38C230.447 345.644 229.597 346.147 229.259 345.931C228.604 345.515 227.516 345.286 227.688 344C227.839 342.869 227.523 341.661 227.764 340.566C228.175 338.692 227.738 336.803 228.061 334.982C228.257 333.878 228.045 332.777 228.301 331.735C228.714 330.052 228.652 328.338 228.875 326.653C229.086 325.05 229.214 323.442 229.423 321.847C229.64 320.197 229.765 318.542 229.989 316.906C230.189 315.441 230.156 313.891 230.577 312.536C230.951 311.335 230.074 309.951 231.246 308.914C231.406 308.771 230.986 308.095 231.05 307.702C231.583 304.43 231.166 301.139 231.334 297.863C231.345 297.632 231.71 297.3 231.973 297.222C232.798 296.978 233.647 296.793 234.499 296.677C234.697 296.65 235.142 296.992 235.139 297.158C235.088 299.97 234.926 302.781 234.912 305.593C234.903 307.623 235.126 309.653 235.147 311.684C235.157 312.671 234.917 313.662 234.834 314.655C234.747 315.687 235.069 316.669 234.462 317.769C234.004 318.597 234.406 319.877 234.329 320.948C234.186 322.951 234.064 324.964 233.715 326.934C233.642 327.351 233.485 327.781 233.513 328.374ZM229.651 342.858C230.104 343.542 230.08 343.523 230.498 343.002C230.99 342.386 230.617 341.669 230.777 341.046C231.209 339.368 231.102 337.649 231.306 335.958C231.47 334.601 231.703 333.246 231.777 331.886C231.871 330.129 231.689 328.347 231.903 326.609C232.086 325.116 232.028 323.618 232.557 322.101C233.093 320.561 232.863 318.754 232.958 317.063C232.981 316.649 232.806 316.139 232.99 315.838C233.617 314.815 233.056 313.747 233.21 312.715C233.23 312.577 232.88 312.387 232.701 312.219C232.598 312.415 232.433 312.599 232.403 312.806C232.205 314.155 231.982 315.502 231.871 316.859C231.725 318.661 231.674 320.473 231.583 322.28C231.576 322.418 231.639 322.6 231.573 322.688C230.826 323.69 231.405 324.884 231.066 326.007C230.638 327.425 230.83 329.031 230.755 330.557C230.753 330.603 230.762 330.65 230.753 330.695C230.527 331.762 230.243 332.824 230.09 333.903C229.967 334.769 230.474 335.561 229.773 336.568C229.24 337.335 229.706 338.764 229.632 339.89C229.587 340.571 229.317 341.236 229.239 341.92C229.216 342.122 229.505 342.362 229.651 342.858ZM233.237 305.062C233.267 304.297 233.298 303.532 233.323 302.767C233.327 302.659 233.301 302.456 233.287 302.456C233.112 302.454 232.794 302.455 232.785 302.506C232.645 303.271 232.516 304.041 232.468 304.816C232.461 304.93 232.878 305.072 233.237 305.062Z" fill="#00160A"/>
<path fill-rule="evenodd" clip-rule="evenodd" d="M179.372 308.856C179.31 308.327 179.318 307.867 179.326 307.407C179.702 307.516 180.123 307.55 180.448 307.745C182.158 308.769 183.836 309.847 185.546 310.871C185.844 311.05 186.238 311.092 186.595 311.143C186.869 311.182 187.156 311.136 187.437 311.128C187.168 311.359 186.846 311.83 186.638 311.783C185.335 311.495 183.784 312.555 182.699 311.089C182.678 311.061 182.558 311.07 182.512 311.101C182.025 311.442 181.479 312.111 180.934 311.464C180.311 310.722 179.928 309.78 179.372 308.856Z" fill="#00160A"/>
<defs>
<linearGradient id="paint0_linear" x1="468.572" y1="255.714" x2="35.7144" y2="255.714" gradientUnits="userSpaceOnUse">
<stop stop-color="#7EE8FF"/>
<stop offset="1" stop-color="#FFF066"/>
</linearGradient>
<linearGradient id="paint1_linear" x1="468.572" y1="255.714" x2="35.7144" y2="255.714" gradientUnits="userSpaceOnUse">
<stop stop-color="#7EE8FF"/>
<stop offset="1" stop-color="#FFF066"/>
</linearGradient>
</defs>
</svg>
